%TF.GenerationSoftware,KiCad,Pcbnew,(6.0.2)*%
%TF.CreationDate,2022-04-19T23:13:57-07:00*%
%TF.ProjectId,TxBoard,5478426f-6172-4642-9e6b-696361645f70,3*%
%TF.SameCoordinates,Original*%
%TF.FileFunction,Legend,Bot*%
%TF.FilePolarity,Positive*%
%FSLAX46Y46*%
G04 Gerber Fmt 4.6, Leading zero omitted, Abs format (unit mm)*
G04 Created by KiCad (PCBNEW (6.0.2)) date 2022-04-19 23:13:57*
%MOMM*%
%LPD*%
G01*
G04 APERTURE LIST*
G04 Aperture macros list*
%AMRoundRect*
0 Rectangle with rounded corners*
0 $1 Rounding radius*
0 $2 $3 $4 $5 $6 $7 $8 $9 X,Y pos of 4 corners*
0 Add a 4 corners polygon primitive as box body*
4,1,4,$2,$3,$4,$5,$6,$7,$8,$9,$2,$3,0*
0 Add four circle primitives for the rounded corners*
1,1,$1+$1,$2,$3*
1,1,$1+$1,$4,$5*
1,1,$1+$1,$6,$7*
1,1,$1+$1,$8,$9*
0 Add four rect primitives between the rounded corners*
20,1,$1+$1,$2,$3,$4,$5,0*
20,1,$1+$1,$4,$5,$6,$7,0*
20,1,$1+$1,$6,$7,$8,$9,0*
20,1,$1+$1,$8,$9,$2,$3,0*%
G04 Aperture macros list end*
%ADD10C,0.160000*%
%ADD11C,0.150000*%
%ADD12C,0.177800*%
%ADD13C,0.120000*%
%ADD14C,0.695000*%
%ADD15O,2.717800X1.501800*%
%ADD16O,1.501800X2.717800*%
%ADD17C,7.000000*%
%ADD18C,1.676400*%
%ADD19RoundRect,0.237500X0.237500X-0.250000X0.237500X0.250000X-0.237500X0.250000X-0.237500X-0.250000X0*%
%ADD20RoundRect,0.250000X0.475000X-0.337500X0.475000X0.337500X-0.475000X0.337500X-0.475000X-0.337500X0*%
%ADD21RoundRect,0.237500X0.250000X0.237500X-0.250000X0.237500X-0.250000X-0.237500X0.250000X-0.237500X0*%
%ADD22C,1.100000*%
%ADD23R,1.500000X1.500000*%
%ADD24RoundRect,0.237500X-0.250000X-0.237500X0.250000X-0.237500X0.250000X0.237500X-0.250000X0.237500X0*%
%ADD25C,1.755000*%
%ADD26R,1.500000X0.450000*%
G04 APERTURE END LIST*
D10*
X111242857Y-96372380D02*
X111576190Y-95896190D01*
X111814285Y-96372380D02*
X111814285Y-95372380D01*
X111433333Y-95372380D01*
X111338095Y-95420000D01*
X111290476Y-95467619D01*
X111242857Y-95562857D01*
X111242857Y-95705714D01*
X111290476Y-95800952D01*
X111338095Y-95848571D01*
X111433333Y-95896190D01*
X111814285Y-95896190D01*
X110433333Y-96324761D02*
X110528571Y-96372380D01*
X110719047Y-96372380D01*
X110814285Y-96324761D01*
X110861904Y-96229523D01*
X110861904Y-95848571D01*
X110814285Y-95753333D01*
X110719047Y-95705714D01*
X110528571Y-95705714D01*
X110433333Y-95753333D01*
X110385714Y-95848571D01*
X110385714Y-95943809D01*
X110861904Y-96039047D01*
X110052380Y-95705714D02*
X109814285Y-96372380D01*
X109576190Y-95705714D01*
X109195238Y-96372380D02*
X109195238Y-95705714D01*
X109195238Y-95372380D02*
X109242857Y-95420000D01*
X109195238Y-95467619D01*
X109147619Y-95420000D01*
X109195238Y-95372380D01*
X109195238Y-95467619D01*
X108766666Y-96324761D02*
X108671428Y-96372380D01*
X108480952Y-96372380D01*
X108385714Y-96324761D01*
X108338095Y-96229523D01*
X108338095Y-96181904D01*
X108385714Y-96086666D01*
X108480952Y-96039047D01*
X108623809Y-96039047D01*
X108719047Y-95991428D01*
X108766666Y-95896190D01*
X108766666Y-95848571D01*
X108719047Y-95753333D01*
X108623809Y-95705714D01*
X108480952Y-95705714D01*
X108385714Y-95753333D01*
X107909523Y-96372380D02*
X107909523Y-95705714D01*
X107909523Y-95372380D02*
X107957142Y-95420000D01*
X107909523Y-95467619D01*
X107861904Y-95420000D01*
X107909523Y-95372380D01*
X107909523Y-95467619D01*
X107290476Y-96372380D02*
X107385714Y-96324761D01*
X107433333Y-96277142D01*
X107480952Y-96181904D01*
X107480952Y-95896190D01*
X107433333Y-95800952D01*
X107385714Y-95753333D01*
X107290476Y-95705714D01*
X107147619Y-95705714D01*
X107052380Y-95753333D01*
X107004761Y-95800952D01*
X106957142Y-95896190D01*
X106957142Y-96181904D01*
X107004761Y-96277142D01*
X107052380Y-96324761D01*
X107147619Y-96372380D01*
X107290476Y-96372380D01*
X106528571Y-95705714D02*
X106528571Y-96372380D01*
X106528571Y-95800952D02*
X106480952Y-95753333D01*
X106385714Y-95705714D01*
X106242857Y-95705714D01*
X106147619Y-95753333D01*
X106100000Y-95848571D01*
X106100000Y-96372380D01*
X104338095Y-96372380D02*
X104909523Y-96372380D01*
X104623809Y-96372380D02*
X104623809Y-95372380D01*
X104719047Y-95515238D01*
X104814285Y-95610476D01*
X104909523Y-95658095D01*
X110861904Y-97315714D02*
X110861904Y-97982380D01*
X111100000Y-96934761D02*
X111338095Y-97649047D01*
X110719047Y-97649047D01*
X109623809Y-96934761D02*
X110480952Y-98220476D01*
X108766666Y-97982380D02*
X109338095Y-97982380D01*
X109052380Y-97982380D02*
X109052380Y-96982380D01*
X109147619Y-97125238D01*
X109242857Y-97220476D01*
X109338095Y-97268095D01*
X108290476Y-97982380D02*
X108100000Y-97982380D01*
X108004761Y-97934761D01*
X107957142Y-97887142D01*
X107861904Y-97744285D01*
X107814285Y-97553809D01*
X107814285Y-97172857D01*
X107861904Y-97077619D01*
X107909523Y-97030000D01*
X108004761Y-96982380D01*
X108195238Y-96982380D01*
X108290476Y-97030000D01*
X108338095Y-97077619D01*
X108385714Y-97172857D01*
X108385714Y-97410952D01*
X108338095Y-97506190D01*
X108290476Y-97553809D01*
X108195238Y-97601428D01*
X108004761Y-97601428D01*
X107909523Y-97553809D01*
X107861904Y-97506190D01*
X107814285Y-97410952D01*
X106671428Y-96934761D02*
X107528571Y-98220476D01*
X106385714Y-97077619D02*
X106338095Y-97030000D01*
X106242857Y-96982380D01*
X106004761Y-96982380D01*
X105909523Y-97030000D01*
X105861904Y-97077619D01*
X105814285Y-97172857D01*
X105814285Y-97268095D01*
X105861904Y-97410952D01*
X106433333Y-97982380D01*
X105814285Y-97982380D01*
X105433333Y-97077619D02*
X105385714Y-97030000D01*
X105290476Y-96982380D01*
X105052380Y-96982380D01*
X104957142Y-97030000D01*
X104909523Y-97077619D01*
X104861904Y-97172857D01*
X104861904Y-97268095D01*
X104909523Y-97410952D01*
X105480952Y-97982380D01*
X104861904Y-97982380D01*
X164319380Y-108502380D02*
X164319380Y-108692857D01*
X163938428Y-108502380D02*
X163938428Y-108692857D01*
X163176523Y-108978571D02*
X163509857Y-108978571D01*
X163509857Y-109502380D02*
X163509857Y-108502380D01*
X163033666Y-108502380D01*
X162509857Y-109502380D02*
X162605095Y-109454761D01*
X162652714Y-109407142D01*
X162700333Y-109311904D01*
X162700333Y-109026190D01*
X162652714Y-108930952D01*
X162605095Y-108883333D01*
X162509857Y-108835714D01*
X162367000Y-108835714D01*
X162271761Y-108883333D01*
X162224142Y-108930952D01*
X162176523Y-109026190D01*
X162176523Y-109311904D01*
X162224142Y-109407142D01*
X162271761Y-109454761D01*
X162367000Y-109502380D01*
X162509857Y-109502380D01*
X161747952Y-109502380D02*
X161747952Y-108835714D01*
X161747952Y-109026190D02*
X161700333Y-108930952D01*
X161652714Y-108883333D01*
X161557476Y-108835714D01*
X161462238Y-108835714D01*
X160509857Y-108835714D02*
X160128904Y-108835714D01*
X160367000Y-108502380D02*
X160367000Y-109359523D01*
X160319380Y-109454761D01*
X160224142Y-109502380D01*
X160128904Y-109502380D01*
X159795571Y-109502380D02*
X159795571Y-108502380D01*
X159367000Y-109502380D02*
X159367000Y-108978571D01*
X159414619Y-108883333D01*
X159509857Y-108835714D01*
X159652714Y-108835714D01*
X159747952Y-108883333D01*
X159795571Y-108930952D01*
X158509857Y-109454761D02*
X158605095Y-109502380D01*
X158795571Y-109502380D01*
X158890809Y-109454761D01*
X158938428Y-109359523D01*
X158938428Y-108978571D01*
X158890809Y-108883333D01*
X158795571Y-108835714D01*
X158605095Y-108835714D01*
X158509857Y-108883333D01*
X158462238Y-108978571D01*
X158462238Y-109073809D01*
X158938428Y-109169047D01*
X157414619Y-108835714D02*
X157033666Y-108835714D01*
X157271761Y-108502380D02*
X157271761Y-109359523D01*
X157224142Y-109454761D01*
X157128904Y-109502380D01*
X157033666Y-109502380D01*
X156700333Y-109502380D02*
X156700333Y-108502380D01*
X156271761Y-109502380D02*
X156271761Y-108978571D01*
X156319380Y-108883333D01*
X156414619Y-108835714D01*
X156557476Y-108835714D01*
X156652714Y-108883333D01*
X156700333Y-108930952D01*
X155795571Y-109502380D02*
X155795571Y-108835714D01*
X155795571Y-108502380D02*
X155843190Y-108550000D01*
X155795571Y-108597619D01*
X155747952Y-108550000D01*
X155795571Y-108502380D01*
X155795571Y-108597619D01*
X155319380Y-108835714D02*
X155319380Y-109502380D01*
X155319380Y-108930952D02*
X155271761Y-108883333D01*
X155176523Y-108835714D01*
X155033666Y-108835714D01*
X154938428Y-108883333D01*
X154890809Y-108978571D01*
X154890809Y-109502380D01*
X153986047Y-108835714D02*
X153986047Y-109645238D01*
X154033666Y-109740476D01*
X154081285Y-109788095D01*
X154176523Y-109835714D01*
X154319380Y-109835714D01*
X154414619Y-109788095D01*
X153986047Y-109454761D02*
X154081285Y-109502380D01*
X154271761Y-109502380D01*
X154367000Y-109454761D01*
X154414619Y-109407142D01*
X154462238Y-109311904D01*
X154462238Y-109026190D01*
X154414619Y-108930952D01*
X154367000Y-108883333D01*
X154271761Y-108835714D01*
X154081285Y-108835714D01*
X153986047Y-108883333D01*
X153557476Y-109454761D02*
X153462238Y-109502380D01*
X153271761Y-109502380D01*
X153176523Y-109454761D01*
X153128904Y-109359523D01*
X153128904Y-109311904D01*
X153176523Y-109216666D01*
X153271761Y-109169047D01*
X153414619Y-109169047D01*
X153509857Y-109121428D01*
X153557476Y-109026190D01*
X153557476Y-108978571D01*
X153509857Y-108883333D01*
X153414619Y-108835714D01*
X153271761Y-108835714D01*
X153176523Y-108883333D01*
X152033666Y-108835714D02*
X151843190Y-109502380D01*
X151652714Y-109026190D01*
X151462238Y-109502380D01*
X151271761Y-108835714D01*
X150509857Y-109454761D02*
X150605095Y-109502380D01*
X150795571Y-109502380D01*
X150890809Y-109454761D01*
X150938428Y-109359523D01*
X150938428Y-108978571D01*
X150890809Y-108883333D01*
X150795571Y-108835714D01*
X150605095Y-108835714D01*
X150509857Y-108883333D01*
X150462238Y-108978571D01*
X150462238Y-109073809D01*
X150938428Y-109169047D01*
X149271761Y-109502380D02*
X149271761Y-108502380D01*
X148843190Y-109502380D02*
X148843190Y-108978571D01*
X148890809Y-108883333D01*
X148986047Y-108835714D01*
X149128904Y-108835714D01*
X149224142Y-108883333D01*
X149271761Y-108930952D01*
X147938428Y-109502380D02*
X147938428Y-108978571D01*
X147986047Y-108883333D01*
X148081285Y-108835714D01*
X148271761Y-108835714D01*
X148367000Y-108883333D01*
X147938428Y-109454761D02*
X148033666Y-109502380D01*
X148271761Y-109502380D01*
X148367000Y-109454761D01*
X148414619Y-109359523D01*
X148414619Y-109264285D01*
X148367000Y-109169047D01*
X148271761Y-109121428D01*
X148033666Y-109121428D01*
X147938428Y-109073809D01*
X147557476Y-108835714D02*
X147319380Y-109502380D01*
X147081285Y-108835714D01*
X146319380Y-109454761D02*
X146414619Y-109502380D01*
X146605095Y-109502380D01*
X146700333Y-109454761D01*
X146747952Y-109359523D01*
X146747952Y-108978571D01*
X146700333Y-108883333D01*
X146605095Y-108835714D01*
X146414619Y-108835714D01*
X146319380Y-108883333D01*
X146271761Y-108978571D01*
X146271761Y-109073809D01*
X146747952Y-109169047D01*
X145224142Y-108835714D02*
X144843190Y-108835714D01*
X145081285Y-108502380D02*
X145081285Y-109359523D01*
X145033666Y-109454761D01*
X144938428Y-109502380D01*
X144843190Y-109502380D01*
X144367000Y-109502380D02*
X144462238Y-109454761D01*
X144509857Y-109407142D01*
X144557476Y-109311904D01*
X144557476Y-109026190D01*
X144509857Y-108930952D01*
X144462238Y-108883333D01*
X144367000Y-108835714D01*
X144224142Y-108835714D01*
X144128904Y-108883333D01*
X144081285Y-108930952D01*
X144033666Y-109026190D01*
X144033666Y-109311904D01*
X144081285Y-109407142D01*
X144128904Y-109454761D01*
X144224142Y-109502380D01*
X144367000Y-109502380D01*
X142700333Y-109502380D02*
X142795571Y-109454761D01*
X142843190Y-109359523D01*
X142843190Y-108502380D01*
X141938428Y-109454761D02*
X142033666Y-109502380D01*
X142224142Y-109502380D01*
X142319380Y-109454761D01*
X142367000Y-109359523D01*
X142367000Y-108978571D01*
X142319380Y-108883333D01*
X142224142Y-108835714D01*
X142033666Y-108835714D01*
X141938428Y-108883333D01*
X141890809Y-108978571D01*
X141890809Y-109073809D01*
X142367000Y-109169047D01*
X141033666Y-109502380D02*
X141033666Y-108978571D01*
X141081285Y-108883333D01*
X141176523Y-108835714D01*
X141367000Y-108835714D01*
X141462238Y-108883333D01*
X141033666Y-109454761D02*
X141128904Y-109502380D01*
X141367000Y-109502380D01*
X141462238Y-109454761D01*
X141509857Y-109359523D01*
X141509857Y-109264285D01*
X141462238Y-109169047D01*
X141367000Y-109121428D01*
X141128904Y-109121428D01*
X141033666Y-109073809D01*
X140557476Y-109502380D02*
X140557476Y-108835714D01*
X140557476Y-109026190D02*
X140509857Y-108930952D01*
X140462238Y-108883333D01*
X140367000Y-108835714D01*
X140271761Y-108835714D01*
X139938428Y-108835714D02*
X139938428Y-109502380D01*
X139938428Y-108930952D02*
X139890809Y-108883333D01*
X139795571Y-108835714D01*
X139652714Y-108835714D01*
X139557476Y-108883333D01*
X139509857Y-108978571D01*
X139509857Y-109502380D01*
X138271761Y-109502380D02*
X138271761Y-108502380D01*
X138271761Y-108883333D02*
X138176523Y-108835714D01*
X137986047Y-108835714D01*
X137890809Y-108883333D01*
X137843190Y-108930952D01*
X137795571Y-109026190D01*
X137795571Y-109311904D01*
X137843190Y-109407142D01*
X137890809Y-109454761D01*
X137986047Y-109502380D01*
X138176523Y-109502380D01*
X138271761Y-109454761D01*
X136986047Y-109454761D02*
X137081285Y-109502380D01*
X137271761Y-109502380D01*
X137367000Y-109454761D01*
X137414619Y-109359523D01*
X137414619Y-108978571D01*
X137367000Y-108883333D01*
X137271761Y-108835714D01*
X137081285Y-108835714D01*
X136986047Y-108883333D01*
X136938428Y-108978571D01*
X136938428Y-109073809D01*
X137414619Y-109169047D01*
X136652714Y-108835714D02*
X136271761Y-108835714D01*
X136509857Y-109502380D02*
X136509857Y-108645238D01*
X136462238Y-108550000D01*
X136367000Y-108502380D01*
X136271761Y-108502380D01*
X135795571Y-109502380D02*
X135890809Y-109454761D01*
X135938428Y-109407142D01*
X135986047Y-109311904D01*
X135986047Y-109026190D01*
X135938428Y-108930952D01*
X135890809Y-108883333D01*
X135795571Y-108835714D01*
X135652714Y-108835714D01*
X135557476Y-108883333D01*
X135509857Y-108930952D01*
X135462238Y-109026190D01*
X135462238Y-109311904D01*
X135509857Y-109407142D01*
X135557476Y-109454761D01*
X135652714Y-109502380D01*
X135795571Y-109502380D01*
X135033666Y-109502380D02*
X135033666Y-108835714D01*
X135033666Y-109026190D02*
X134986047Y-108930952D01*
X134938428Y-108883333D01*
X134843190Y-108835714D01*
X134747952Y-108835714D01*
X134033666Y-109454761D02*
X134128904Y-109502380D01*
X134319380Y-109502380D01*
X134414619Y-109454761D01*
X134462238Y-109359523D01*
X134462238Y-108978571D01*
X134414619Y-108883333D01*
X134319380Y-108835714D01*
X134128904Y-108835714D01*
X134033666Y-108883333D01*
X133986047Y-108978571D01*
X133986047Y-109073809D01*
X134462238Y-109169047D01*
X132890809Y-108835714D02*
X132700333Y-109502380D01*
X132509857Y-109026190D01*
X132319380Y-109502380D01*
X132128904Y-108835714D01*
X131367000Y-109454761D02*
X131462238Y-109502380D01*
X131652714Y-109502380D01*
X131747952Y-109454761D01*
X131795571Y-109359523D01*
X131795571Y-108978571D01*
X131747952Y-108883333D01*
X131652714Y-108835714D01*
X131462238Y-108835714D01*
X131367000Y-108883333D01*
X131319380Y-108978571D01*
X131319380Y-109073809D01*
X131795571Y-109169047D01*
X129700333Y-109454761D02*
X129795571Y-109502380D01*
X129986047Y-109502380D01*
X130081285Y-109454761D01*
X130128904Y-109407142D01*
X130176523Y-109311904D01*
X130176523Y-109026190D01*
X130128904Y-108930952D01*
X130081285Y-108883333D01*
X129986047Y-108835714D01*
X129795571Y-108835714D01*
X129700333Y-108883333D01*
X128843190Y-109502380D02*
X128843190Y-108978571D01*
X128890809Y-108883333D01*
X128986047Y-108835714D01*
X129176523Y-108835714D01*
X129271761Y-108883333D01*
X128843190Y-109454761D02*
X128938428Y-109502380D01*
X129176523Y-109502380D01*
X129271761Y-109454761D01*
X129319380Y-109359523D01*
X129319380Y-109264285D01*
X129271761Y-109169047D01*
X129176523Y-109121428D01*
X128938428Y-109121428D01*
X128843190Y-109073809D01*
X128367000Y-108835714D02*
X128367000Y-109502380D01*
X128367000Y-108930952D02*
X128319380Y-108883333D01*
X128224142Y-108835714D01*
X128081285Y-108835714D01*
X127986047Y-108883333D01*
X127938428Y-108978571D01*
X127938428Y-109502380D01*
X126271761Y-109502380D02*
X126271761Y-108502380D01*
X126271761Y-109454761D02*
X126367000Y-109502380D01*
X126557476Y-109502380D01*
X126652714Y-109454761D01*
X126700333Y-109407142D01*
X126747952Y-109311904D01*
X126747952Y-109026190D01*
X126700333Y-108930952D01*
X126652714Y-108883333D01*
X126557476Y-108835714D01*
X126367000Y-108835714D01*
X126271761Y-108883333D01*
X125652714Y-109502380D02*
X125747952Y-109454761D01*
X125795571Y-109407142D01*
X125843190Y-109311904D01*
X125843190Y-109026190D01*
X125795571Y-108930952D01*
X125747952Y-108883333D01*
X125652714Y-108835714D01*
X125509857Y-108835714D01*
X125414619Y-108883333D01*
X125367000Y-108930952D01*
X125319380Y-109026190D01*
X125319380Y-109311904D01*
X125367000Y-109407142D01*
X125414619Y-109454761D01*
X125509857Y-109502380D01*
X125652714Y-109502380D01*
X124271761Y-108835714D02*
X123890809Y-108835714D01*
X124128904Y-108502380D02*
X124128904Y-109359523D01*
X124081285Y-109454761D01*
X123986047Y-109502380D01*
X123890809Y-109502380D01*
X123557476Y-109502380D02*
X123557476Y-108502380D01*
X123128904Y-109502380D02*
X123128904Y-108978571D01*
X123176523Y-108883333D01*
X123271761Y-108835714D01*
X123414619Y-108835714D01*
X123509857Y-108883333D01*
X123557476Y-108930952D01*
X122271761Y-109454761D02*
X122367000Y-109502380D01*
X122557476Y-109502380D01*
X122652714Y-109454761D01*
X122700333Y-109359523D01*
X122700333Y-108978571D01*
X122652714Y-108883333D01*
X122557476Y-108835714D01*
X122367000Y-108835714D01*
X122271761Y-108883333D01*
X122224142Y-108978571D01*
X122224142Y-109073809D01*
X122700333Y-109169047D01*
X121795571Y-109502380D02*
X121795571Y-108835714D01*
X121795571Y-108930952D02*
X121747952Y-108883333D01*
X121652714Y-108835714D01*
X121509857Y-108835714D01*
X121414619Y-108883333D01*
X121367000Y-108978571D01*
X121367000Y-109502380D01*
X121367000Y-108978571D02*
X121319380Y-108883333D01*
X121224142Y-108835714D01*
X121081285Y-108835714D01*
X120986047Y-108883333D01*
X120938428Y-108978571D01*
X120938428Y-109502380D01*
X120414619Y-109454761D02*
X120414619Y-109502380D01*
X120462238Y-109597619D01*
X120509857Y-109645238D01*
X151557476Y-110445714D02*
X151367000Y-111112380D01*
X151176523Y-110636190D01*
X150986047Y-111112380D01*
X150795571Y-110445714D01*
X150033666Y-111064761D02*
X150128904Y-111112380D01*
X150319380Y-111112380D01*
X150414619Y-111064761D01*
X150462238Y-110969523D01*
X150462238Y-110588571D01*
X150414619Y-110493333D01*
X150319380Y-110445714D01*
X150128904Y-110445714D01*
X150033666Y-110493333D01*
X149986047Y-110588571D01*
X149986047Y-110683809D01*
X150462238Y-110779047D01*
X148652714Y-111112380D02*
X148747952Y-111064761D01*
X148795571Y-110969523D01*
X148795571Y-110112380D01*
X147890809Y-111064761D02*
X147986047Y-111112380D01*
X148176523Y-111112380D01*
X148271761Y-111064761D01*
X148319380Y-110969523D01*
X148319380Y-110588571D01*
X148271761Y-110493333D01*
X148176523Y-110445714D01*
X147986047Y-110445714D01*
X147890809Y-110493333D01*
X147843190Y-110588571D01*
X147843190Y-110683809D01*
X148319380Y-110779047D01*
X146986047Y-111112380D02*
X146986047Y-110588571D01*
X147033666Y-110493333D01*
X147128904Y-110445714D01*
X147319380Y-110445714D01*
X147414619Y-110493333D01*
X146986047Y-111064761D02*
X147081285Y-111112380D01*
X147319380Y-111112380D01*
X147414619Y-111064761D01*
X147462238Y-110969523D01*
X147462238Y-110874285D01*
X147414619Y-110779047D01*
X147319380Y-110731428D01*
X147081285Y-110731428D01*
X146986047Y-110683809D01*
X146509857Y-111112380D02*
X146509857Y-110445714D01*
X146509857Y-110636190D02*
X146462238Y-110540952D01*
X146414619Y-110493333D01*
X146319380Y-110445714D01*
X146224142Y-110445714D01*
X145890809Y-110445714D02*
X145890809Y-111112380D01*
X145890809Y-110540952D02*
X145843190Y-110493333D01*
X145747952Y-110445714D01*
X145605095Y-110445714D01*
X145509857Y-110493333D01*
X145462238Y-110588571D01*
X145462238Y-111112380D01*
X144224142Y-111112380D02*
X144224142Y-110112380D01*
X144224142Y-110493333D02*
X144128904Y-110445714D01*
X143938428Y-110445714D01*
X143843190Y-110493333D01*
X143795571Y-110540952D01*
X143747952Y-110636190D01*
X143747952Y-110921904D01*
X143795571Y-111017142D01*
X143843190Y-111064761D01*
X143938428Y-111112380D01*
X144128904Y-111112380D01*
X144224142Y-111064761D01*
X143414619Y-110445714D02*
X143176523Y-111112380D01*
X142938428Y-110445714D02*
X143176523Y-111112380D01*
X143271761Y-111350476D01*
X143319380Y-111398095D01*
X143414619Y-111445714D01*
X141367000Y-111112380D02*
X141367000Y-110112380D01*
X141367000Y-111064761D02*
X141462238Y-111112380D01*
X141652714Y-111112380D01*
X141747952Y-111064761D01*
X141795571Y-111017142D01*
X141843190Y-110921904D01*
X141843190Y-110636190D01*
X141795571Y-110540952D01*
X141747952Y-110493333D01*
X141652714Y-110445714D01*
X141462238Y-110445714D01*
X141367000Y-110493333D01*
X140747952Y-111112380D02*
X140843190Y-111064761D01*
X140890809Y-111017142D01*
X140938428Y-110921904D01*
X140938428Y-110636190D01*
X140890809Y-110540952D01*
X140843190Y-110493333D01*
X140747952Y-110445714D01*
X140605095Y-110445714D01*
X140509857Y-110493333D01*
X140462238Y-110540952D01*
X140414619Y-110636190D01*
X140414619Y-110921904D01*
X140462238Y-111017142D01*
X140509857Y-111064761D01*
X140605095Y-111112380D01*
X140747952Y-111112380D01*
X139986047Y-111112380D02*
X139986047Y-110445714D01*
X139986047Y-110112380D02*
X140033666Y-110160000D01*
X139986047Y-110207619D01*
X139938428Y-110160000D01*
X139986047Y-110112380D01*
X139986047Y-110207619D01*
X139509857Y-110445714D02*
X139509857Y-111112380D01*
X139509857Y-110540952D02*
X139462238Y-110493333D01*
X139367000Y-110445714D01*
X139224142Y-110445714D01*
X139128904Y-110493333D01*
X139081285Y-110588571D01*
X139081285Y-111112380D01*
X138176523Y-110445714D02*
X138176523Y-111255238D01*
X138224142Y-111350476D01*
X138271761Y-111398095D01*
X138367000Y-111445714D01*
X138509857Y-111445714D01*
X138605095Y-111398095D01*
X138176523Y-111064761D02*
X138271761Y-111112380D01*
X138462238Y-111112380D01*
X138557476Y-111064761D01*
X138605095Y-111017142D01*
X138652714Y-110921904D01*
X138652714Y-110636190D01*
X138605095Y-110540952D01*
X138557476Y-110493333D01*
X138462238Y-110445714D01*
X138271761Y-110445714D01*
X138176523Y-110493333D01*
X137081285Y-110445714D02*
X136700333Y-110445714D01*
X136938428Y-110112380D02*
X136938428Y-110969523D01*
X136890809Y-111064761D01*
X136795571Y-111112380D01*
X136700333Y-111112380D01*
X136367000Y-111112380D02*
X136367000Y-110112380D01*
X135938428Y-111112380D02*
X135938428Y-110588571D01*
X135986047Y-110493333D01*
X136081285Y-110445714D01*
X136224142Y-110445714D01*
X136319380Y-110493333D01*
X136367000Y-110540952D01*
X135081285Y-111064761D02*
X135176523Y-111112380D01*
X135367000Y-111112380D01*
X135462238Y-111064761D01*
X135509857Y-110969523D01*
X135509857Y-110588571D01*
X135462238Y-110493333D01*
X135367000Y-110445714D01*
X135176523Y-110445714D01*
X135081285Y-110493333D01*
X135033666Y-110588571D01*
X135033666Y-110683809D01*
X135509857Y-110779047D01*
X134605095Y-111112380D02*
X134605095Y-110445714D01*
X134605095Y-110540952D02*
X134557476Y-110493333D01*
X134462238Y-110445714D01*
X134319380Y-110445714D01*
X134224142Y-110493333D01*
X134176523Y-110588571D01*
X134176523Y-111112380D01*
X134176523Y-110588571D02*
X134128904Y-110493333D01*
X134033666Y-110445714D01*
X133890809Y-110445714D01*
X133795571Y-110493333D01*
X133747952Y-110588571D01*
X133747952Y-111112380D01*
X133271761Y-111017142D02*
X133224142Y-111064761D01*
X133271761Y-111112380D01*
X133319380Y-111064761D01*
X133271761Y-111017142D01*
X133271761Y-111112380D01*
X132843190Y-110112380D02*
X132843190Y-110302857D01*
X132462238Y-110112380D02*
X132462238Y-110302857D01*
D11*
%TO.C,J1*%
X191857380Y-96821666D02*
X192571666Y-96821666D01*
X192714523Y-96774047D01*
X192809761Y-96678809D01*
X192857380Y-96535952D01*
X192857380Y-96440714D01*
X192857380Y-97821666D02*
X192857380Y-97250238D01*
X192857380Y-97535952D02*
X191857380Y-97535952D01*
X192000238Y-97440714D01*
X192095476Y-97345476D01*
X192143095Y-97250238D01*
%TO.C,R4*%
X175516666Y-110252380D02*
X175850000Y-109776190D01*
X176088095Y-110252380D02*
X176088095Y-109252380D01*
X175707142Y-109252380D01*
X175611904Y-109300000D01*
X175564285Y-109347619D01*
X175516666Y-109442857D01*
X175516666Y-109585714D01*
X175564285Y-109680952D01*
X175611904Y-109728571D01*
X175707142Y-109776190D01*
X176088095Y-109776190D01*
X174659523Y-109585714D02*
X174659523Y-110252380D01*
X174897619Y-109204761D02*
X175135714Y-109919047D01*
X174516666Y-109919047D01*
%TO.C,C1*%
X186366666Y-93807142D02*
X186414285Y-93854761D01*
X186557142Y-93902380D01*
X186652380Y-93902380D01*
X186795238Y-93854761D01*
X186890476Y-93759523D01*
X186938095Y-93664285D01*
X186985714Y-93473809D01*
X186985714Y-93330952D01*
X186938095Y-93140476D01*
X186890476Y-93045238D01*
X186795238Y-92950000D01*
X186652380Y-92902380D01*
X186557142Y-92902380D01*
X186414285Y-92950000D01*
X186366666Y-92997619D01*
X185414285Y-93902380D02*
X185985714Y-93902380D01*
X185700000Y-93902380D02*
X185700000Y-92902380D01*
X185795238Y-93045238D01*
X185890476Y-93140476D01*
X185985714Y-93188095D01*
%TO.C,R2*%
X174641166Y-99352380D02*
X174974500Y-98876190D01*
X175212595Y-99352380D02*
X175212595Y-98352380D01*
X174831642Y-98352380D01*
X174736404Y-98400000D01*
X174688785Y-98447619D01*
X174641166Y-98542857D01*
X174641166Y-98685714D01*
X174688785Y-98780952D01*
X174736404Y-98828571D01*
X174831642Y-98876190D01*
X175212595Y-98876190D01*
X174260214Y-98447619D02*
X174212595Y-98400000D01*
X174117357Y-98352380D01*
X173879261Y-98352380D01*
X173784023Y-98400000D01*
X173736404Y-98447619D01*
X173688785Y-98542857D01*
X173688785Y-98638095D01*
X173736404Y-98780952D01*
X174307833Y-99352380D01*
X173688785Y-99352380D01*
%TO.C,BZ1*%
X181347952Y-88193571D02*
X181205095Y-88241190D01*
X181157476Y-88288809D01*
X181109857Y-88384047D01*
X181109857Y-88526904D01*
X181157476Y-88622142D01*
X181205095Y-88669761D01*
X181300333Y-88717380D01*
X181681285Y-88717380D01*
X181681285Y-87717380D01*
X181347952Y-87717380D01*
X181252714Y-87765000D01*
X181205095Y-87812619D01*
X181157476Y-87907857D01*
X181157476Y-88003095D01*
X181205095Y-88098333D01*
X181252714Y-88145952D01*
X181347952Y-88193571D01*
X181681285Y-88193571D01*
X180776523Y-87717380D02*
X180109857Y-87717380D01*
X180776523Y-88717380D01*
X180109857Y-88717380D01*
X179205095Y-88717380D02*
X179776523Y-88717380D01*
X179490809Y-88717380D02*
X179490809Y-87717380D01*
X179586047Y-87860238D01*
X179681285Y-87955476D01*
X179776523Y-88003095D01*
X178429857Y-86454285D02*
X177424142Y-86454285D01*
X177927000Y-86957142D02*
X177927000Y-85951428D01*
X183509857Y-86454285D02*
X182504142Y-86454285D01*
%TO.C,TP2*%
X181149523Y-108501428D02*
X180387619Y-108501428D01*
X180768571Y-108882380D02*
X180768571Y-108120476D01*
X180054285Y-107882380D02*
X179720952Y-108882380D01*
X179387619Y-107882380D01*
%TO.C,R1*%
X180016666Y-99052380D02*
X180350000Y-98576190D01*
X180588095Y-99052380D02*
X180588095Y-98052380D01*
X180207142Y-98052380D01*
X180111904Y-98100000D01*
X180064285Y-98147619D01*
X180016666Y-98242857D01*
X180016666Y-98385714D01*
X180064285Y-98480952D01*
X180111904Y-98528571D01*
X180207142Y-98576190D01*
X180588095Y-98576190D01*
X179064285Y-99052380D02*
X179635714Y-99052380D01*
X179350000Y-99052380D02*
X179350000Y-98052380D01*
X179445238Y-98195238D01*
X179540476Y-98290476D01*
X179635714Y-98338095D01*
%TO.C,BT1*%
X138072714Y-97083571D02*
X137929857Y-97131190D01*
X137882238Y-97178809D01*
X137834619Y-97274047D01*
X137834619Y-97416904D01*
X137882238Y-97512142D01*
X137929857Y-97559761D01*
X138025095Y-97607380D01*
X138406047Y-97607380D01*
X138406047Y-96607380D01*
X138072714Y-96607380D01*
X137977476Y-96655000D01*
X137929857Y-96702619D01*
X137882238Y-96797857D01*
X137882238Y-96893095D01*
X137929857Y-96988333D01*
X137977476Y-97035952D01*
X138072714Y-97083571D01*
X138406047Y-97083571D01*
X137548904Y-96607380D02*
X136977476Y-96607380D01*
X137263190Y-97607380D02*
X137263190Y-96607380D01*
X136120333Y-97607380D02*
X136691761Y-97607380D01*
X136406047Y-97607380D02*
X136406047Y-96607380D01*
X136501285Y-96750238D01*
X136596523Y-96845476D01*
X136691761Y-96893095D01*
%TO.C,R3*%
X174561166Y-102527380D02*
X174894500Y-102051190D01*
X175132595Y-102527380D02*
X175132595Y-101527380D01*
X174751642Y-101527380D01*
X174656404Y-101575000D01*
X174608785Y-101622619D01*
X174561166Y-101717857D01*
X174561166Y-101860714D01*
X174608785Y-101955952D01*
X174656404Y-102003571D01*
X174751642Y-102051190D01*
X175132595Y-102051190D01*
X174227833Y-101527380D02*
X173608785Y-101527380D01*
X173942119Y-101908333D01*
X173799261Y-101908333D01*
X173704023Y-101955952D01*
X173656404Y-102003571D01*
X173608785Y-102098809D01*
X173608785Y-102336904D01*
X173656404Y-102432142D01*
X173704023Y-102479761D01*
X173799261Y-102527380D01*
X174084976Y-102527380D01*
X174180214Y-102479761D01*
X174227833Y-102432142D01*
%TO.C,Q1*%
X182467238Y-101417619D02*
X182562476Y-101370000D01*
X182657714Y-101274761D01*
X182800571Y-101131904D01*
X182895809Y-101084285D01*
X182991047Y-101084285D01*
X182943428Y-101322380D02*
X183038666Y-101274761D01*
X183133904Y-101179523D01*
X183181523Y-100989047D01*
X183181523Y-100655714D01*
X183133904Y-100465238D01*
X183038666Y-100370000D01*
X182943428Y-100322380D01*
X182752952Y-100322380D01*
X182657714Y-100370000D01*
X182562476Y-100465238D01*
X182514857Y-100655714D01*
X182514857Y-100989047D01*
X182562476Y-101179523D01*
X182657714Y-101274761D01*
X182752952Y-101322380D01*
X182943428Y-101322380D01*
X181562476Y-101322380D02*
X182133904Y-101322380D01*
X181848190Y-101322380D02*
X181848190Y-100322380D01*
X181943428Y-100465238D01*
X182038666Y-100560476D01*
X182133904Y-100608095D01*
%TO.C,TP1*%
X184237238Y-107930000D02*
X184332476Y-107882380D01*
X184475334Y-107882380D01*
X184618191Y-107930000D01*
X184713429Y-108025238D01*
X184761048Y-108120476D01*
X184808667Y-108310952D01*
X184808667Y-108453809D01*
X184761048Y-108644285D01*
X184713429Y-108739523D01*
X184618191Y-108834761D01*
X184475334Y-108882380D01*
X184380095Y-108882380D01*
X184237238Y-108834761D01*
X184189619Y-108787142D01*
X184189619Y-108453809D01*
X184380095Y-108453809D01*
X183761048Y-108882380D02*
X183761048Y-107882380D01*
X183189619Y-108882380D01*
X183189619Y-107882380D01*
X182713429Y-108882380D02*
X182713429Y-107882380D01*
X182475334Y-107882380D01*
X182332476Y-107930000D01*
X182237238Y-108025238D01*
X182189619Y-108120476D01*
X182142000Y-108310952D01*
X182142000Y-108453809D01*
X182189619Y-108644285D01*
X182237238Y-108739523D01*
X182332476Y-108834761D01*
X182475334Y-108882380D01*
X182713429Y-108882380D01*
D12*
%TO.C,J1*%
X196637000Y-102055000D02*
X188337000Y-102055000D01*
X188337000Y-102055000D02*
X188337000Y-92255000D01*
X188337000Y-92255000D02*
X196637000Y-92255000D01*
X196637000Y-92255000D02*
X196637000Y-102055000D01*
D13*
%TO.C,R4*%
X174864500Y-107569724D02*
X174864500Y-107060276D01*
X175909500Y-107569724D02*
X175909500Y-107060276D01*
%TO.C,C1*%
X186917000Y-96553752D02*
X186917000Y-96031248D01*
X185447000Y-96553752D02*
X185447000Y-96031248D01*
%TO.C,R2*%
X174729224Y-100852500D02*
X174219776Y-100852500D01*
X174729224Y-99807500D02*
X174219776Y-99807500D01*
D12*
%TO.C,BZ1*%
X186767000Y-88265000D02*
G75*
G03*
X186767000Y-88265000I-6300000J0D01*
G01*
D13*
%TO.C,TP2*%
X181290000Y-107630000D02*
X181290000Y-105730000D01*
X179390000Y-107630000D02*
X181290000Y-107630000D01*
X181290000Y-105730000D02*
X179390000Y-105730000D01*
X179390000Y-105730000D02*
X179390000Y-107630000D01*
%TO.C,R1*%
X179577276Y-99553500D02*
X180086724Y-99553500D01*
X179577276Y-100598500D02*
X180086724Y-100598500D01*
D12*
%TO.C,BT1*%
X117332000Y-103445000D02*
X118832000Y-103445000D01*
X118082000Y-102695000D02*
X118082000Y-104195000D01*
X170732000Y-112405000D02*
X170732000Y-81905000D01*
X112732000Y-112405000D02*
X170732000Y-112405000D01*
X117332000Y-90745000D02*
X118832000Y-90745000D01*
X112732000Y-81905000D02*
X112732000Y-112405000D01*
X170732000Y-81905000D02*
X112732000Y-81905000D01*
D14*
X142079500Y-97155000D02*
G75*
G03*
X142079500Y-97155000I-347500J0D01*
G01*
D13*
%TO.C,R3*%
X174649224Y-102982500D02*
X174139776Y-102982500D01*
X174649224Y-104027500D02*
X174139776Y-104027500D01*
%TO.C,Q1*%
X181637000Y-101700000D02*
X181637000Y-102370000D01*
X183047000Y-104030000D02*
X181637000Y-104030000D01*
X181637000Y-101710000D02*
X184372000Y-101710000D01*
X181637000Y-103370000D02*
X181637000Y-104030000D01*
%TO.C,TP1*%
X184425334Y-105730000D02*
X182525334Y-105730000D01*
X182525334Y-105730000D02*
X182525334Y-107630000D01*
X184425334Y-107630000D02*
X184425334Y-105730000D01*
X182525334Y-107630000D02*
X184425334Y-107630000D01*
%TD*%
%LPC*%
D15*
%TO.C,J1*%
X189936999Y-97155000D03*
D16*
X194437000Y-97155000D03*
%TD*%
D17*
%TO.C,REF\u002A\u002A*%
X108077000Y-86360000D03*
%TD*%
D18*
%TO.C,SW2*%
X149352000Y-94615000D03*
X149352000Y-97155000D03*
X149352000Y-99695000D03*
%TD*%
D17*
%TO.C,REF\u002A\u002A*%
X191897000Y-86360000D03*
%TD*%
D18*
%TO.C,SW1*%
X167767000Y-94615000D03*
X167767000Y-97155000D03*
X167767000Y-99695000D03*
%TD*%
%TO.C,SW3*%
X130302000Y-94615000D03*
X130302000Y-97155000D03*
X130302000Y-99695000D03*
%TD*%
D17*
%TO.C,REF\u002A\u002A*%
X191897000Y-107950000D03*
%TD*%
%TO.C,REF\u002A\u002A*%
X108077000Y-107950000D03*
%TD*%
D19*
%TO.C,R4*%
X175387000Y-108227500D03*
X175387000Y-106402500D03*
%TD*%
D20*
%TO.C,C1*%
X186182000Y-97330000D03*
X186182000Y-95255000D03*
%TD*%
D21*
%TO.C,R2*%
X175387000Y-100330000D03*
X173562000Y-100330000D03*
%TD*%
D22*
%TO.C,BZ1*%
X177967000Y-88265000D03*
X182967000Y-88265000D03*
%TD*%
D23*
%TO.C,TP2*%
X180340000Y-106680000D03*
%TD*%
D24*
%TO.C,R1*%
X178919500Y-100076000D03*
X180744500Y-100076000D03*
%TD*%
D25*
%TO.C,BT1*%
X115572000Y-103795000D03*
X115572000Y-90205000D03*
%TD*%
D21*
%TO.C,R3*%
X175307000Y-103505000D03*
X173482000Y-103505000D03*
%TD*%
D26*
%TO.C,Q1*%
X183702000Y-102220000D03*
X183702000Y-103520000D03*
X181042000Y-102870000D03*
%TD*%
D23*
%TO.C,TP1*%
X183475334Y-106680000D03*
%TD*%
M02*
