%TF.GenerationSoftware,KiCad,Pcbnew,(6.0.2)*%
%TF.CreationDate,2022-05-28T13:28:15-07:00*%
%TF.ProjectId,TxBoard,5478426f-6172-4642-9e6b-696361645f70,4*%
%TF.SameCoordinates,Original*%
%TF.FileFunction,Copper,L1,Top*%
%TF.FilePolarity,Positive*%
%FSLAX46Y46*%
G04 Gerber Fmt 4.6, Leading zero omitted, Abs format (unit mm)*
G04 Created by KiCad (PCBNEW (6.0.2)) date 2022-05-28 13:28:15*
%MOMM*%
%LPD*%
G01*
G04 APERTURE LIST*
G04 Aperture macros list*
%AMRoundRect*
0 Rectangle with rounded corners*
0 $1 Rounding radius*
0 $2 $3 $4 $5 $6 $7 $8 $9 X,Y pos of 4 corners*
0 Add a 4 corners polygon primitive as box body*
4,1,4,$2,$3,$4,$5,$6,$7,$8,$9,$2,$3,0*
0 Add four circle primitives for the rounded corners*
1,1,$1+$1,$2,$3*
1,1,$1+$1,$4,$5*
1,1,$1+$1,$6,$7*
1,1,$1+$1,$8,$9*
0 Add four rect primitives between the rounded corners*
20,1,$1+$1,$2,$3,$4,$5,0*
20,1,$1+$1,$4,$5,$6,$7,0*
20,1,$1+$1,$6,$7,$8,$9,0*
20,1,$1+$1,$8,$9,$2,$3,0*%
G04 Aperture macros list end*
%TA.AperFunction,Profile*%
%ADD10C,0.100000*%
%TD*%
%TA.AperFunction,ComponentPad*%
%ADD11C,7.000000*%
%TD*%
%TA.AperFunction,SMDPad,CuDef*%
%ADD12R,2.700000X1.000000*%
%TD*%
%TA.AperFunction,SMDPad,CuDef*%
%ADD13RoundRect,0.237500X0.287500X0.237500X-0.287500X0.237500X-0.287500X-0.237500X0.287500X-0.237500X0*%
%TD*%
%TA.AperFunction,ComponentPad*%
%ADD14O,2.717800X1.501800*%
%TD*%
%TA.AperFunction,ComponentPad*%
%ADD15O,1.501800X2.717800*%
%TD*%
%TA.AperFunction,ComponentPad*%
%ADD16C,1.755000*%
%TD*%
%TA.AperFunction,ViaPad*%
%ADD17C,0.800000*%
%TD*%
%TA.AperFunction,Conductor*%
%ADD18C,0.381000*%
%TD*%
%TA.AperFunction,Conductor*%
%ADD19C,0.250000*%
%TD*%
G04 APERTURE END LIST*
D10*
X104389949Y-113010051D02*
X194300000Y-113000000D01*
X103000000Y-82700000D02*
X102989949Y-111610051D01*
X197000000Y-110300000D02*
X197000000Y-84000000D01*
X197000000Y-84000000D02*
G75*
G03*
X194300000Y-81300000I-2700001J-1D01*
G01*
X102989949Y-111610051D02*
G75*
G03*
X104389949Y-113010051I1400002J2D01*
G01*
X104400000Y-81300000D02*
G75*
G03*
X103000000Y-82700000I2J-1400002D01*
G01*
X194300000Y-81300000D02*
X104400000Y-81300000D01*
X194300000Y-113000000D02*
G75*
G03*
X197000000Y-110300000I-1J2700001D01*
G01*
D11*
%TO.P,REF\u002A\u002A,1*%
%TO.N,GND*%
X108077000Y-86360000D03*
%TD*%
D12*
%TO.P,SW2,1,A*%
%TO.N,Net-(SW2-Pad1)*%
X143950000Y-94650000D03*
%TO.P,SW2,2,B*%
%TO.N,Net-(C1-Pad1)*%
X149650000Y-97150000D03*
%TO.P,SW2,3,C*%
%TO.N,unconnected-(SW2-Pad3)*%
X143950000Y-99650000D03*
%TD*%
D13*
%TO.P,D1,1,K*%
%TO.N,Net-(D1-Pad1)*%
X178929000Y-97155000D03*
%TO.P,D1,2,A*%
%TO.N,+BATT*%
X177179000Y-97155000D03*
%TD*%
%TO.P,D2,1,K*%
%TO.N,Net-(C2-Pad2)*%
X178929000Y-90600000D03*
%TO.P,D2,2,A*%
%TO.N,+BATT*%
X177179000Y-90600000D03*
%TD*%
D11*
%TO.P,REF\u002A\u002A,1*%
%TO.N,GND*%
X189200000Y-86360000D03*
%TD*%
D12*
%TO.P,SW1,1,A*%
%TO.N,Net-(R2-Pad2)*%
X162900000Y-94650000D03*
%TO.P,SW1,2,B*%
%TO.N,Net-(C1-Pad1)*%
X168600000Y-97150000D03*
%TO.P,SW1,3,C*%
%TO.N,unconnected-(SW1-Pad3)*%
X162900000Y-99650000D03*
%TD*%
%TO.P,SW3,1,A*%
%TO.N,Net-(C2-Pad2)*%
X125000000Y-94700000D03*
%TO.P,SW3,2,B*%
%TO.N,Net-(SW2-Pad1)*%
X130700000Y-97200000D03*
%TO.P,SW3,3,C*%
%TO.N,Net-(R3-Pad2)*%
X125000000Y-99700000D03*
%TD*%
D11*
%TO.P,REF\u002A\u002A,1*%
%TO.N,GND*%
X189300000Y-107950000D03*
%TD*%
%TO.P,REF\u002A\u002A,1*%
%TO.N,GND*%
X108077000Y-107950000D03*
%TD*%
D14*
%TO.P,J1,1,In*%
%TO.N,Net-(C1-Pad1)*%
X188099999Y-97155000D03*
D15*
%TO.P,J1,2,Ext*%
%TO.N,GND*%
X192600000Y-97155000D03*
%TD*%
D16*
%TO.P,BT1,1,+*%
%TO.N,+BATT*%
X115572000Y-103795000D03*
%TO.P,BT1,2,-*%
%TO.N,GND*%
X115572000Y-90205000D03*
%TD*%
D17*
%TO.N,Net-(D1-Pad1)*%
X180467000Y-97155000D03*
%TO.N,+BATT*%
X175600000Y-90600000D03*
X175545000Y-97155000D03*
%TO.N,Net-(R2-Pad2)*%
X165850000Y-94650000D03*
%TO.N,Net-(R3-Pad2)*%
X127900000Y-99700000D03*
%TO.N,Net-(C2-Pad2)*%
X127900000Y-94700000D03*
X180400000Y-90600000D03*
%TD*%
D18*
%TO.N,Net-(C1-Pad1)*%
X176595000Y-99695000D02*
X174050000Y-97150000D01*
X183045000Y-97155000D02*
X180505000Y-99695000D01*
X174050000Y-97150000D02*
X168600000Y-97150000D01*
X180505000Y-99695000D02*
X176595000Y-99695000D01*
X188099999Y-97155000D02*
X183045000Y-97155000D01*
X168600000Y-97150000D02*
X149650000Y-97150000D01*
%TO.N,Net-(D1-Pad1)*%
X178929000Y-97155000D02*
X180467000Y-97155000D01*
D19*
%TO.N,+BATT*%
X175600000Y-90600000D02*
X175500000Y-90600000D01*
D18*
X177179000Y-90600000D02*
X175600000Y-90600000D01*
X177179000Y-97155000D02*
X175545000Y-97155000D01*
%TO.N,Net-(R2-Pad2)*%
X162900000Y-94650000D02*
X165850000Y-94650000D01*
%TO.N,Net-(R3-Pad2)*%
X125000000Y-99700000D02*
X127900000Y-99700000D01*
%TO.N,Net-(C2-Pad2)*%
X127900000Y-94700000D02*
X125000000Y-94700000D01*
X178929000Y-90600000D02*
X180400000Y-90600000D01*
%TO.N,Net-(SW2-Pad1)*%
X146900000Y-95500000D02*
X146900000Y-96700000D01*
X146050000Y-94650000D02*
X146900000Y-95500000D01*
X146900000Y-96700000D02*
X146400000Y-97200000D01*
X143950000Y-94650000D02*
X146050000Y-94650000D01*
X146400000Y-97200000D02*
X130700000Y-97200000D01*
%TD*%
%TA.AperFunction,Conductor*%
%TO.N,GND*%
G36*
X194270057Y-81809500D02*
G01*
X194284858Y-81811805D01*
X194284861Y-81811805D01*
X194293730Y-81813186D01*
X194310899Y-81810941D01*
X194334838Y-81810108D01*
X194556608Y-81823522D01*
X194571713Y-81825356D01*
X194817082Y-81870322D01*
X194831855Y-81873963D01*
X195070025Y-81948180D01*
X195084243Y-81953572D01*
X195311721Y-82055952D01*
X195325194Y-82063023D01*
X195538674Y-82192076D01*
X195551195Y-82200718D01*
X195738808Y-82347704D01*
X195747571Y-82354569D01*
X195758959Y-82364659D01*
X195935341Y-82541041D01*
X195945431Y-82552429D01*
X196065959Y-82706271D01*
X196099281Y-82748804D01*
X196107924Y-82761326D01*
X196236977Y-82974806D01*
X196244047Y-82988277D01*
X196252615Y-83007313D01*
X196346426Y-83215753D01*
X196351822Y-83229980D01*
X196426037Y-83468145D01*
X196429678Y-83482918D01*
X196474644Y-83728287D01*
X196476478Y-83743391D01*
X196489455Y-83957929D01*
X196488198Y-83984639D01*
X196488195Y-83984859D01*
X196486814Y-83993730D01*
X196487978Y-84002632D01*
X196487978Y-84002635D01*
X196490936Y-84025251D01*
X196492000Y-84041589D01*
X196492000Y-110250672D01*
X196490500Y-110270056D01*
X196486814Y-110293730D01*
X196489059Y-110310897D01*
X196489892Y-110334838D01*
X196476478Y-110556608D01*
X196474644Y-110571713D01*
X196429678Y-110817082D01*
X196426037Y-110831855D01*
X196351822Y-111070020D01*
X196346428Y-111084243D01*
X196244048Y-111311721D01*
X196236977Y-111325194D01*
X196107924Y-111538674D01*
X196099282Y-111551195D01*
X196072871Y-111584906D01*
X195945431Y-111747571D01*
X195935341Y-111758959D01*
X195758959Y-111935341D01*
X195747571Y-111945431D01*
X195551196Y-112099281D01*
X195538674Y-112107924D01*
X195325194Y-112236977D01*
X195311723Y-112244047D01*
X195084243Y-112346428D01*
X195070025Y-112351820D01*
X194841990Y-112422879D01*
X194831855Y-112426037D01*
X194817082Y-112429678D01*
X194571713Y-112474644D01*
X194556609Y-112476478D01*
X194342071Y-112489455D01*
X194315361Y-112488198D01*
X194315141Y-112488195D01*
X194306270Y-112486814D01*
X194297368Y-112487978D01*
X194297366Y-112487978D01*
X194286073Y-112489455D01*
X194274707Y-112490941D01*
X194258388Y-112492005D01*
X104439252Y-112502045D01*
X104419859Y-112500545D01*
X104412011Y-112499324D01*
X104405092Y-112498246D01*
X104405090Y-112498246D01*
X104396220Y-112496865D01*
X104385222Y-112498303D01*
X104356539Y-112498760D01*
X104298201Y-112493014D01*
X104228278Y-112486127D01*
X104204056Y-112481309D01*
X104060466Y-112437752D01*
X104037653Y-112428302D01*
X103905326Y-112357571D01*
X103884789Y-112343848D01*
X103768804Y-112248662D01*
X103751338Y-112231196D01*
X103656152Y-112115211D01*
X103642429Y-112094674D01*
X103571698Y-111962347D01*
X103562248Y-111939534D01*
X103518691Y-111795944D01*
X103513873Y-111771722D01*
X103501905Y-111650216D01*
X103502358Y-111634174D01*
X103501644Y-111634165D01*
X103501754Y-111625192D01*
X103503135Y-111616320D01*
X103501971Y-111607419D01*
X103501971Y-111607414D01*
X103499027Y-111584906D01*
X103497963Y-111568524D01*
X103500678Y-103761021D01*
X114181665Y-103761021D01*
X114194785Y-103988555D01*
X114244890Y-104210891D01*
X114246834Y-104215677D01*
X114246835Y-104215682D01*
X114283903Y-104306969D01*
X114330636Y-104422058D01*
X114449720Y-104616385D01*
X114598943Y-104788653D01*
X114774299Y-104934236D01*
X114778751Y-104936838D01*
X114778756Y-104936841D01*
X114966619Y-105046619D01*
X114971077Y-105049224D01*
X115183993Y-105130528D01*
X115189061Y-105131559D01*
X115189064Y-105131560D01*
X115298741Y-105153874D01*
X115407330Y-105175967D01*
X115412503Y-105176157D01*
X115412506Y-105176157D01*
X115629925Y-105184129D01*
X115629929Y-105184129D01*
X115635089Y-105184318D01*
X115640209Y-105183662D01*
X115640211Y-105183662D01*
X115856025Y-105156016D01*
X115856026Y-105156016D01*
X115861153Y-105155359D01*
X115866103Y-105153874D01*
X116074497Y-105091353D01*
X116074502Y-105091351D01*
X116079452Y-105089866D01*
X116085548Y-105086880D01*
X116279473Y-104991877D01*
X116279478Y-104991874D01*
X116284124Y-104989598D01*
X116288334Y-104986595D01*
X116288339Y-104986592D01*
X116465458Y-104860254D01*
X116465463Y-104860250D01*
X116469670Y-104857249D01*
X116631109Y-104696373D01*
X116685782Y-104620288D01*
X116761087Y-104515489D01*
X116764105Y-104511289D01*
X116806030Y-104426462D01*
X116862793Y-104311611D01*
X116862794Y-104311609D01*
X116865087Y-104306969D01*
X116931341Y-104088900D01*
X116961090Y-103862938D01*
X116962750Y-103795000D01*
X116944075Y-103567854D01*
X116888552Y-103346809D01*
X116797673Y-103137800D01*
X116673877Y-102946441D01*
X116520489Y-102777870D01*
X116516438Y-102774671D01*
X116516434Y-102774667D01*
X116345683Y-102639816D01*
X116345678Y-102639813D01*
X116341629Y-102636615D01*
X116337113Y-102634122D01*
X116337110Y-102634120D01*
X116146624Y-102528966D01*
X116146620Y-102528964D01*
X116142100Y-102526469D01*
X116137231Y-102524745D01*
X116137227Y-102524743D01*
X115932136Y-102452116D01*
X115932132Y-102452115D01*
X115927261Y-102450390D01*
X115922168Y-102449483D01*
X115922165Y-102449482D01*
X115707970Y-102411328D01*
X115707964Y-102411327D01*
X115702881Y-102410422D01*
X115629469Y-102409525D01*
X115480156Y-102407701D01*
X115480154Y-102407701D01*
X115474986Y-102407638D01*
X115249697Y-102442112D01*
X115033063Y-102512919D01*
X115028475Y-102515307D01*
X115028471Y-102515309D01*
X114835491Y-102615768D01*
X114830902Y-102618157D01*
X114826769Y-102621260D01*
X114826766Y-102621262D01*
X114809641Y-102634120D01*
X114648645Y-102755000D01*
X114491184Y-102919773D01*
X114362750Y-103108050D01*
X114266791Y-103314777D01*
X114205884Y-103534399D01*
X114181665Y-103761021D01*
X103500678Y-103761021D01*
X103501899Y-100248134D01*
X123141500Y-100248134D01*
X123148255Y-100310316D01*
X123199385Y-100446705D01*
X123286739Y-100563261D01*
X123403295Y-100650615D01*
X123539684Y-100701745D01*
X123601866Y-100708500D01*
X126398134Y-100708500D01*
X126460316Y-100701745D01*
X126596705Y-100650615D01*
X126713261Y-100563261D01*
X126798569Y-100449435D01*
X126855428Y-100406920D01*
X126899395Y-100399000D01*
X127275519Y-100399000D01*
X127343640Y-100419002D01*
X127349580Y-100423064D01*
X127392010Y-100453891D01*
X127443248Y-100491118D01*
X127449276Y-100493802D01*
X127449278Y-100493803D01*
X127611681Y-100566109D01*
X127617712Y-100568794D01*
X127711112Y-100588647D01*
X127798056Y-100607128D01*
X127798061Y-100607128D01*
X127804513Y-100608500D01*
X127995487Y-100608500D01*
X128001939Y-100607128D01*
X128001944Y-100607128D01*
X128088888Y-100588647D01*
X128182288Y-100568794D01*
X128188319Y-100566109D01*
X128350722Y-100493803D01*
X128350724Y-100493802D01*
X128356752Y-100491118D01*
X128511253Y-100378866D01*
X128516216Y-100373354D01*
X128634621Y-100241852D01*
X128634622Y-100241851D01*
X128639040Y-100236944D01*
X128661447Y-100198134D01*
X142091500Y-100198134D01*
X142098255Y-100260316D01*
X142149385Y-100396705D01*
X142236739Y-100513261D01*
X142353295Y-100600615D01*
X142489684Y-100651745D01*
X142551866Y-100658500D01*
X145348134Y-100658500D01*
X145410316Y-100651745D01*
X145546705Y-100600615D01*
X145663261Y-100513261D01*
X145750615Y-100396705D01*
X145801745Y-100260316D01*
X145808500Y-100198134D01*
X161041500Y-100198134D01*
X161048255Y-100260316D01*
X161099385Y-100396705D01*
X161186739Y-100513261D01*
X161303295Y-100600615D01*
X161439684Y-100651745D01*
X161501866Y-100658500D01*
X164298134Y-100658500D01*
X164360316Y-100651745D01*
X164496705Y-100600615D01*
X164613261Y-100513261D01*
X164700615Y-100396705D01*
X164751745Y-100260316D01*
X164758500Y-100198134D01*
X164758500Y-99101866D01*
X164751745Y-99039684D01*
X164700615Y-98903295D01*
X164613261Y-98786739D01*
X164496705Y-98699385D01*
X164360316Y-98648255D01*
X164298134Y-98641500D01*
X161501866Y-98641500D01*
X161439684Y-98648255D01*
X161303295Y-98699385D01*
X161186739Y-98786739D01*
X161099385Y-98903295D01*
X161048255Y-99039684D01*
X161041500Y-99101866D01*
X161041500Y-100198134D01*
X145808500Y-100198134D01*
X145808500Y-99101866D01*
X145801745Y-99039684D01*
X145750615Y-98903295D01*
X145663261Y-98786739D01*
X145546705Y-98699385D01*
X145410316Y-98648255D01*
X145348134Y-98641500D01*
X142551866Y-98641500D01*
X142489684Y-98648255D01*
X142353295Y-98699385D01*
X142236739Y-98786739D01*
X142149385Y-98903295D01*
X142098255Y-99039684D01*
X142091500Y-99101866D01*
X142091500Y-100198134D01*
X128661447Y-100198134D01*
X128734527Y-100071556D01*
X128793542Y-99889928D01*
X128813504Y-99700000D01*
X128793542Y-99510072D01*
X128734527Y-99328444D01*
X128639040Y-99163056D01*
X128628965Y-99151866D01*
X128515675Y-99026045D01*
X128515674Y-99026044D01*
X128511253Y-99021134D01*
X128356752Y-98908882D01*
X128350724Y-98906198D01*
X128350722Y-98906197D01*
X128188319Y-98833891D01*
X128188318Y-98833891D01*
X128182288Y-98831206D01*
X128088887Y-98811353D01*
X128001944Y-98792872D01*
X128001939Y-98792872D01*
X127995487Y-98791500D01*
X127804513Y-98791500D01*
X127798061Y-98792872D01*
X127798056Y-98792872D01*
X127711113Y-98811353D01*
X127617712Y-98831206D01*
X127611682Y-98833891D01*
X127611681Y-98833891D01*
X127449278Y-98906197D01*
X127449276Y-98906198D01*
X127443248Y-98908882D01*
X127437907Y-98912762D01*
X127437906Y-98912763D01*
X127349580Y-98976936D01*
X127282712Y-99000794D01*
X127275519Y-99001000D01*
X126899395Y-99001000D01*
X126831274Y-98980998D01*
X126798569Y-98950565D01*
X126718642Y-98843919D01*
X126713261Y-98836739D01*
X126596705Y-98749385D01*
X126460316Y-98698255D01*
X126398134Y-98691500D01*
X123601866Y-98691500D01*
X123539684Y-98698255D01*
X123403295Y-98749385D01*
X123286739Y-98836739D01*
X123199385Y-98953295D01*
X123148255Y-99089684D01*
X123141500Y-99151866D01*
X123141500Y-100248134D01*
X103501899Y-100248134D01*
X103502769Y-97748134D01*
X128841500Y-97748134D01*
X128848255Y-97810316D01*
X128899385Y-97946705D01*
X128986739Y-98063261D01*
X129103295Y-98150615D01*
X129239684Y-98201745D01*
X129301866Y-98208500D01*
X132098134Y-98208500D01*
X132160316Y-98201745D01*
X132296705Y-98150615D01*
X132413261Y-98063261D01*
X132498569Y-97949435D01*
X132555428Y-97906920D01*
X132599395Y-97899000D01*
X146371401Y-97899000D01*
X146379971Y-97899292D01*
X146429277Y-97902654D01*
X146429281Y-97902654D01*
X146436852Y-97903170D01*
X146444328Y-97901865D01*
X146444332Y-97901865D01*
X146498924Y-97892337D01*
X146505449Y-97891374D01*
X146560418Y-97884722D01*
X146560420Y-97884721D01*
X146567960Y-97883809D01*
X146575062Y-97881125D01*
X146578500Y-97880281D01*
X146592623Y-97876417D01*
X146596034Y-97875387D01*
X146603517Y-97874081D01*
X146623787Y-97865183D01*
X146661198Y-97848761D01*
X146667304Y-97846270D01*
X146719117Y-97826691D01*
X146719118Y-97826690D01*
X146726222Y-97824006D01*
X146732477Y-97819707D01*
X146735618Y-97818065D01*
X146748372Y-97810967D01*
X146751478Y-97809130D01*
X146758433Y-97806077D01*
X146764460Y-97801452D01*
X146764464Y-97801450D01*
X146808402Y-97767735D01*
X146813720Y-97763871D01*
X146865652Y-97728179D01*
X146906526Y-97682303D01*
X146911490Y-97677045D01*
X147374053Y-97214483D01*
X147380319Y-97208630D01*
X147417547Y-97176154D01*
X147423274Y-97171158D01*
X147459498Y-97119617D01*
X147463423Y-97114332D01*
X147497607Y-97070735D01*
X147502292Y-97064760D01*
X147505416Y-97057842D01*
X147507245Y-97054821D01*
X147514500Y-97042102D01*
X147516188Y-97038954D01*
X147520556Y-97032739D01*
X147543438Y-96974050D01*
X147545991Y-96967976D01*
X147550665Y-96957625D01*
X147596929Y-96903772D01*
X147664964Y-96883480D01*
X147733169Y-96903192D01*
X147779890Y-96956649D01*
X147791500Y-97009479D01*
X147791500Y-97698134D01*
X147798255Y-97760316D01*
X147849385Y-97896705D01*
X147936739Y-98013261D01*
X148053295Y-98100615D01*
X148189684Y-98151745D01*
X148251866Y-98158500D01*
X151048134Y-98158500D01*
X151110316Y-98151745D01*
X151246705Y-98100615D01*
X151363261Y-98013261D01*
X151448569Y-97899435D01*
X151505428Y-97856920D01*
X151549395Y-97849000D01*
X166700605Y-97849000D01*
X166768726Y-97869002D01*
X166801431Y-97899435D01*
X166886739Y-98013261D01*
X167003295Y-98100615D01*
X167139684Y-98151745D01*
X167201866Y-98158500D01*
X169998134Y-98158500D01*
X170060316Y-98151745D01*
X170196705Y-98100615D01*
X170313261Y-98013261D01*
X170398569Y-97899435D01*
X170455428Y-97856920D01*
X170499395Y-97849000D01*
X173708275Y-97849000D01*
X173776396Y-97869002D01*
X173797370Y-97885905D01*
X174943749Y-99032285D01*
X176080510Y-100169046D01*
X176086363Y-100175311D01*
X176123842Y-100218274D01*
X176175383Y-100254498D01*
X176180668Y-100258423D01*
X176192519Y-100267715D01*
X176230240Y-100297292D01*
X176237158Y-100300416D01*
X176240179Y-100302245D01*
X176252898Y-100309500D01*
X176256046Y-100311188D01*
X176262261Y-100315556D01*
X176320950Y-100338438D01*
X176326995Y-100340978D01*
X176384435Y-100366913D01*
X176391908Y-100368298D01*
X176395326Y-100369369D01*
X176409315Y-100373354D01*
X176412807Y-100374251D01*
X176419889Y-100377012D01*
X176427422Y-100378004D01*
X176427423Y-100378004D01*
X176482330Y-100385233D01*
X176488843Y-100386265D01*
X176543318Y-100396361D01*
X176543320Y-100396361D01*
X176550787Y-100397745D01*
X176558367Y-100397308D01*
X176558368Y-100397308D01*
X176612112Y-100394209D01*
X176619365Y-100394000D01*
X180476401Y-100394000D01*
X180484971Y-100394292D01*
X180534277Y-100397654D01*
X180534281Y-100397654D01*
X180541852Y-100398170D01*
X180549328Y-100396865D01*
X180549332Y-100396865D01*
X180603924Y-100387337D01*
X180610449Y-100386374D01*
X180665418Y-100379722D01*
X180665420Y-100379721D01*
X180672960Y-100378809D01*
X180680062Y-100376125D01*
X180683500Y-100375281D01*
X180697623Y-100371417D01*
X180701034Y-100370387D01*
X180708517Y-100369081D01*
X180766197Y-100343761D01*
X180772304Y-100341270D01*
X180824117Y-100321691D01*
X180824118Y-100321690D01*
X180831222Y-100319006D01*
X180837477Y-100314707D01*
X180840618Y-100313065D01*
X180853372Y-100305967D01*
X180856478Y-100304130D01*
X180863433Y-100301077D01*
X180869460Y-100296452D01*
X180869464Y-100296450D01*
X180913402Y-100262735D01*
X180918720Y-100258871D01*
X180970652Y-100223179D01*
X181011519Y-100177311D01*
X181016499Y-100172036D01*
X183297630Y-97890905D01*
X183359942Y-97856879D01*
X183386725Y-97854000D01*
X186378680Y-97854000D01*
X186446801Y-97874002D01*
X186478642Y-97903296D01*
X186561212Y-98010903D01*
X186565357Y-98014674D01*
X186565360Y-98014678D01*
X186689577Y-98127707D01*
X186727489Y-98162204D01*
X186917933Y-98281669D01*
X187126521Y-98365521D01*
X187132012Y-98366658D01*
X187132015Y-98366659D01*
X187271695Y-98395585D01*
X187346662Y-98411110D01*
X187351273Y-98411376D01*
X187351274Y-98411376D01*
X187401899Y-98414295D01*
X187401903Y-98414295D01*
X187403722Y-98414400D01*
X188765033Y-98414400D01*
X188767819Y-98414151D01*
X188767827Y-98414151D01*
X188849803Y-98406835D01*
X188931921Y-98399506D01*
X188937337Y-98398024D01*
X188937339Y-98398024D01*
X189056149Y-98365521D01*
X189148765Y-98340184D01*
X189153823Y-98337772D01*
X189153827Y-98337770D01*
X189271444Y-98281669D01*
X189351677Y-98243400D01*
X189534243Y-98112213D01*
X189690692Y-97950769D01*
X189780442Y-97817207D01*
X191341100Y-97817207D01*
X191341349Y-97822802D01*
X191355490Y-97981237D01*
X191357472Y-97992252D01*
X191413807Y-98198180D01*
X191417701Y-98208653D01*
X191509618Y-98401360D01*
X191515304Y-98410975D01*
X191639891Y-98584357D01*
X191647199Y-98592823D01*
X191800514Y-98741394D01*
X191809211Y-98748437D01*
X191986409Y-98867509D01*
X191996209Y-98872897D01*
X192191697Y-98958711D01*
X192202296Y-98962278D01*
X192328384Y-98992549D01*
X192342470Y-98991844D01*
X192346000Y-98982965D01*
X192346000Y-98982317D01*
X192854000Y-98982317D01*
X192858105Y-98996297D01*
X192867778Y-98997799D01*
X192868160Y-98997717D01*
X193072224Y-98934938D01*
X193082570Y-98930717D01*
X193272296Y-98832792D01*
X193281727Y-98826807D01*
X193451118Y-98696828D01*
X193459335Y-98689272D01*
X193603030Y-98531353D01*
X193609783Y-98522457D01*
X193723242Y-98341589D01*
X193728313Y-98331638D01*
X193807949Y-98133535D01*
X193811178Y-98122840D01*
X193854674Y-97912803D01*
X193855877Y-97903666D01*
X193858795Y-97853062D01*
X193858900Y-97849415D01*
X193858900Y-97427115D01*
X193854425Y-97411876D01*
X193853035Y-97410671D01*
X193845352Y-97409000D01*
X192872115Y-97409000D01*
X192856876Y-97413475D01*
X192855671Y-97414865D01*
X192854000Y-97422548D01*
X192854000Y-98982317D01*
X192346000Y-98982317D01*
X192346000Y-97427115D01*
X192341525Y-97411876D01*
X192340135Y-97410671D01*
X192332452Y-97409000D01*
X191359215Y-97409000D01*
X191343976Y-97413475D01*
X191342771Y-97414865D01*
X191341100Y-97422548D01*
X191341100Y-97817207D01*
X189780442Y-97817207D01*
X189816080Y-97764173D01*
X189906443Y-97558321D01*
X189941601Y-97411876D01*
X189957614Y-97345178D01*
X189957614Y-97345177D01*
X189958924Y-97339721D01*
X189969002Y-97164943D01*
X189971542Y-97120888D01*
X189971542Y-97120885D01*
X189971865Y-97115281D01*
X189944857Y-96892098D01*
X189942023Y-96882885D01*
X191341100Y-96882885D01*
X191345575Y-96898124D01*
X191346965Y-96899329D01*
X191354648Y-96901000D01*
X192327885Y-96901000D01*
X192343124Y-96896525D01*
X192344329Y-96895135D01*
X192346000Y-96887452D01*
X192346000Y-96882885D01*
X192854000Y-96882885D01*
X192858475Y-96898124D01*
X192859865Y-96899329D01*
X192867548Y-96901000D01*
X193840785Y-96901000D01*
X193856024Y-96896525D01*
X193857229Y-96895135D01*
X193858900Y-96887452D01*
X193858900Y-96492793D01*
X193858651Y-96487198D01*
X193844510Y-96328763D01*
X193842528Y-96317748D01*
X193786193Y-96111820D01*
X193782299Y-96101347D01*
X193690382Y-95908640D01*
X193684696Y-95899025D01*
X193560109Y-95725643D01*
X193552801Y-95717177D01*
X193399486Y-95568606D01*
X193390789Y-95561563D01*
X193213591Y-95442491D01*
X193203791Y-95437103D01*
X193008303Y-95351289D01*
X192997704Y-95347722D01*
X192871616Y-95317451D01*
X192857530Y-95318156D01*
X192854000Y-95327035D01*
X192854000Y-96882885D01*
X192346000Y-96882885D01*
X192346000Y-95327683D01*
X192341895Y-95313703D01*
X192332222Y-95312201D01*
X192331840Y-95312283D01*
X192127776Y-95375062D01*
X192117430Y-95379283D01*
X191927704Y-95477208D01*
X191918273Y-95483193D01*
X191748882Y-95613172D01*
X191740665Y-95620728D01*
X191596970Y-95778647D01*
X191590217Y-95787543D01*
X191476758Y-95968411D01*
X191471687Y-95978362D01*
X191392051Y-96176465D01*
X191388822Y-96187160D01*
X191345326Y-96397197D01*
X191344123Y-96406334D01*
X191341205Y-96456938D01*
X191341100Y-96460585D01*
X191341100Y-96882885D01*
X189942023Y-96882885D01*
X189878753Y-96677224D01*
X189872776Y-96665642D01*
X189778214Y-96482433D01*
X189778213Y-96482432D01*
X189775643Y-96477452D01*
X189638786Y-96299097D01*
X189634641Y-96295326D01*
X189634638Y-96295322D01*
X189476662Y-96151575D01*
X189472509Y-96147796D01*
X189282065Y-96028331D01*
X189073477Y-95944479D01*
X189067986Y-95943342D01*
X189067983Y-95943341D01*
X188916526Y-95911976D01*
X188853336Y-95898890D01*
X188848725Y-95898624D01*
X188848724Y-95898624D01*
X188798099Y-95895705D01*
X188798095Y-95895705D01*
X188796276Y-95895600D01*
X187434965Y-95895600D01*
X187432179Y-95895849D01*
X187432171Y-95895849D01*
X187350195Y-95903165D01*
X187268077Y-95910494D01*
X187262661Y-95911976D01*
X187262659Y-95911976D01*
X187177563Y-95935256D01*
X187051233Y-95969816D01*
X187046175Y-95972228D01*
X187046171Y-95972230D01*
X186949777Y-96018208D01*
X186848321Y-96066600D01*
X186665755Y-96197787D01*
X186509306Y-96359231D01*
X186488722Y-96389863D01*
X186481725Y-96400276D01*
X186427129Y-96445661D01*
X186377143Y-96456000D01*
X183073589Y-96456000D01*
X183065019Y-96455708D01*
X183015724Y-96452347D01*
X183015720Y-96452347D01*
X183008148Y-96451831D01*
X183000671Y-96453136D01*
X183000670Y-96453136D01*
X182978886Y-96456938D01*
X182946085Y-96462663D01*
X182939568Y-96463624D01*
X182925461Y-96465331D01*
X182884582Y-96470278D01*
X182884579Y-96470279D01*
X182877040Y-96471191D01*
X182869931Y-96473877D01*
X182866488Y-96474723D01*
X182852363Y-96478586D01*
X182848958Y-96479614D01*
X182841482Y-96480919D01*
X182783810Y-96506235D01*
X182777715Y-96508723D01*
X182725880Y-96528310D01*
X182725878Y-96528311D01*
X182718778Y-96530994D01*
X182712526Y-96535291D01*
X182709383Y-96536934D01*
X182696635Y-96544029D01*
X182693523Y-96545870D01*
X182686567Y-96548923D01*
X182637500Y-96586573D01*
X182636602Y-96587262D01*
X182631275Y-96591133D01*
X182579348Y-96626821D01*
X182574296Y-96632491D01*
X182574295Y-96632492D01*
X182538490Y-96672679D01*
X182533509Y-96677955D01*
X181454562Y-97756903D01*
X181392251Y-97790927D01*
X181321436Y-97785863D01*
X181264600Y-97743316D01*
X181239789Y-97676796D01*
X181256349Y-97604807D01*
X181298223Y-97532279D01*
X181298224Y-97532278D01*
X181301527Y-97526556D01*
X181360542Y-97344928D01*
X181361679Y-97334116D01*
X181379814Y-97161565D01*
X181380504Y-97155000D01*
X181375743Y-97109704D01*
X181361232Y-96971635D01*
X181361232Y-96971633D01*
X181360542Y-96965072D01*
X181301527Y-96783444D01*
X181206040Y-96618056D01*
X181191463Y-96601866D01*
X181082675Y-96481045D01*
X181082674Y-96481044D01*
X181078253Y-96476134D01*
X180969606Y-96397197D01*
X180929094Y-96367763D01*
X180929093Y-96367762D01*
X180923752Y-96363882D01*
X180917724Y-96361198D01*
X180917722Y-96361197D01*
X180755319Y-96288891D01*
X180755318Y-96288891D01*
X180749288Y-96286206D01*
X180655888Y-96266353D01*
X180568944Y-96247872D01*
X180568939Y-96247872D01*
X180562487Y-96246500D01*
X180371513Y-96246500D01*
X180365061Y-96247872D01*
X180365056Y-96247872D01*
X180278112Y-96266353D01*
X180184712Y-96286206D01*
X180178682Y-96288891D01*
X180178681Y-96288891D01*
X180016278Y-96361197D01*
X180016276Y-96361198D01*
X180010248Y-96363882D01*
X180004907Y-96367762D01*
X180004906Y-96367763D01*
X179964394Y-96397197D01*
X179945585Y-96410863D01*
X179928018Y-96423626D01*
X179861151Y-96447484D01*
X179791999Y-96431404D01*
X179764942Y-96410866D01*
X179682003Y-96328071D01*
X179665256Y-96317748D01*
X179540150Y-96240631D01*
X179540148Y-96240630D01*
X179533920Y-96236791D01*
X179368809Y-96182026D01*
X179361973Y-96181326D01*
X179361970Y-96181325D01*
X179310474Y-96176049D01*
X179266072Y-96171500D01*
X178591928Y-96171500D01*
X178588682Y-96171837D01*
X178588678Y-96171837D01*
X178494765Y-96181581D01*
X178494761Y-96181582D01*
X178487907Y-96182293D01*
X178481371Y-96184474D01*
X178481369Y-96184474D01*
X178440063Y-96198255D01*
X178322893Y-96237346D01*
X178265395Y-96272927D01*
X178182490Y-96324230D01*
X178174969Y-96328884D01*
X178143121Y-96360787D01*
X178080841Y-96394866D01*
X178010021Y-96389863D01*
X177964933Y-96360943D01*
X177937184Y-96333243D01*
X177937183Y-96333242D01*
X177932003Y-96328071D01*
X177915256Y-96317748D01*
X177790150Y-96240631D01*
X177790148Y-96240630D01*
X177783920Y-96236791D01*
X177618809Y-96182026D01*
X177611973Y-96181326D01*
X177611970Y-96181325D01*
X177560474Y-96176049D01*
X177516072Y-96171500D01*
X176841928Y-96171500D01*
X176838682Y-96171837D01*
X176838678Y-96171837D01*
X176744765Y-96181581D01*
X176744761Y-96181582D01*
X176737907Y-96182293D01*
X176731371Y-96184474D01*
X176731369Y-96184474D01*
X176690063Y-96198255D01*
X176572893Y-96237346D01*
X176424969Y-96328884D01*
X176419796Y-96334066D01*
X176334992Y-96419018D01*
X176272710Y-96453097D01*
X176245819Y-96456000D01*
X176169481Y-96456000D01*
X176101360Y-96435998D01*
X176095420Y-96431936D01*
X176007094Y-96367763D01*
X176007093Y-96367762D01*
X176001752Y-96363882D01*
X175995724Y-96361198D01*
X175995722Y-96361197D01*
X175833319Y-96288891D01*
X175833318Y-96288891D01*
X175827288Y-96286206D01*
X175733888Y-96266353D01*
X175646944Y-96247872D01*
X175646939Y-96247872D01*
X175640487Y-96246500D01*
X175449513Y-96246500D01*
X175443061Y-96247872D01*
X175443056Y-96247872D01*
X175356112Y-96266353D01*
X175262712Y-96286206D01*
X175256682Y-96288891D01*
X175256681Y-96288891D01*
X175094278Y-96361197D01*
X175094276Y-96361198D01*
X175088248Y-96363882D01*
X175082907Y-96367762D01*
X175082906Y-96367763D01*
X175042394Y-96397197D01*
X174933747Y-96476134D01*
X174929326Y-96481044D01*
X174929325Y-96481045D01*
X174820538Y-96601866D01*
X174805960Y-96618056D01*
X174802661Y-96623769D01*
X174802658Y-96623774D01*
X174778486Y-96665642D01*
X174727103Y-96714635D01*
X174657390Y-96728071D01*
X174591479Y-96701684D01*
X174580272Y-96691737D01*
X174564497Y-96675962D01*
X174558643Y-96669696D01*
X174521158Y-96626726D01*
X174469622Y-96590506D01*
X174464326Y-96586573D01*
X174420737Y-96552394D01*
X174420734Y-96552392D01*
X174414760Y-96547708D01*
X174407836Y-96544582D01*
X174404801Y-96542744D01*
X174392102Y-96535500D01*
X174388954Y-96533812D01*
X174382739Y-96529444D01*
X174324050Y-96506562D01*
X174318005Y-96504022D01*
X174260565Y-96478087D01*
X174253092Y-96476702D01*
X174249674Y-96475631D01*
X174235685Y-96471646D01*
X174232193Y-96470749D01*
X174225111Y-96467988D01*
X174217578Y-96466996D01*
X174217577Y-96466996D01*
X174162670Y-96459767D01*
X174156157Y-96458735D01*
X174101682Y-96448639D01*
X174101680Y-96448639D01*
X174094213Y-96447255D01*
X174086633Y-96447692D01*
X174086632Y-96447692D01*
X174032888Y-96450791D01*
X174025635Y-96451000D01*
X170499395Y-96451000D01*
X170431274Y-96430998D01*
X170398569Y-96400565D01*
X170341959Y-96325031D01*
X170313261Y-96286739D01*
X170196705Y-96199385D01*
X170060316Y-96148255D01*
X169998134Y-96141500D01*
X167201866Y-96141500D01*
X167139684Y-96148255D01*
X167003295Y-96199385D01*
X166886739Y-96286739D01*
X166858041Y-96325031D01*
X166801431Y-96400565D01*
X166744572Y-96443080D01*
X166700605Y-96451000D01*
X151549395Y-96451000D01*
X151481274Y-96430998D01*
X151448569Y-96400565D01*
X151391959Y-96325031D01*
X151363261Y-96286739D01*
X151246705Y-96199385D01*
X151110316Y-96148255D01*
X151048134Y-96141500D01*
X148251866Y-96141500D01*
X148189684Y-96148255D01*
X148053295Y-96199385D01*
X147936739Y-96286739D01*
X147849385Y-96403295D01*
X147846233Y-96411704D01*
X147846232Y-96411705D01*
X147842982Y-96420374D01*
X147800341Y-96477139D01*
X147733779Y-96501839D01*
X147664430Y-96486632D01*
X147614312Y-96436346D01*
X147599000Y-96376145D01*
X147599000Y-95528600D01*
X147599292Y-95520029D01*
X147601263Y-95491118D01*
X147603170Y-95463149D01*
X147592334Y-95401065D01*
X147591378Y-95394586D01*
X147583809Y-95332040D01*
X147581125Y-95324938D01*
X147580270Y-95321456D01*
X147576430Y-95307421D01*
X147575389Y-95303973D01*
X147574082Y-95296483D01*
X147551358Y-95244717D01*
X147548763Y-95238805D01*
X147546270Y-95232697D01*
X147533210Y-95198134D01*
X161041500Y-95198134D01*
X161048255Y-95260316D01*
X161099385Y-95396705D01*
X161186739Y-95513261D01*
X161303295Y-95600615D01*
X161439684Y-95651745D01*
X161501866Y-95658500D01*
X164298134Y-95658500D01*
X164360316Y-95651745D01*
X164496705Y-95600615D01*
X164613261Y-95513261D01*
X164698569Y-95399435D01*
X164755428Y-95356920D01*
X164799395Y-95349000D01*
X165225519Y-95349000D01*
X165293640Y-95369002D01*
X165299580Y-95373064D01*
X165346179Y-95406920D01*
X165393248Y-95441118D01*
X165399276Y-95443802D01*
X165399278Y-95443803D01*
X165561681Y-95516109D01*
X165567712Y-95518794D01*
X165661112Y-95538647D01*
X165748056Y-95557128D01*
X165748061Y-95557128D01*
X165754513Y-95558500D01*
X165945487Y-95558500D01*
X165951939Y-95557128D01*
X165951944Y-95557128D01*
X166038887Y-95538647D01*
X166132288Y-95518794D01*
X166138319Y-95516109D01*
X166300722Y-95443803D01*
X166300724Y-95443802D01*
X166306752Y-95441118D01*
X166461253Y-95328866D01*
X166470896Y-95318156D01*
X166584621Y-95191852D01*
X166584622Y-95191851D01*
X166589040Y-95186944D01*
X166684527Y-95021556D01*
X166743542Y-94839928D01*
X166763504Y-94650000D01*
X166743542Y-94460072D01*
X166684527Y-94278444D01*
X166589040Y-94113056D01*
X166578965Y-94101866D01*
X166465675Y-93976045D01*
X166465674Y-93976044D01*
X166461253Y-93971134D01*
X166306752Y-93858882D01*
X166300724Y-93856198D01*
X166300722Y-93856197D01*
X166138319Y-93783891D01*
X166138318Y-93783891D01*
X166132288Y-93781206D01*
X166038888Y-93761353D01*
X165951944Y-93742872D01*
X165951939Y-93742872D01*
X165945487Y-93741500D01*
X165754513Y-93741500D01*
X165748061Y-93742872D01*
X165748056Y-93742872D01*
X165661112Y-93761353D01*
X165567712Y-93781206D01*
X165561682Y-93783891D01*
X165561681Y-93783891D01*
X165399278Y-93856197D01*
X165399276Y-93856198D01*
X165393248Y-93858882D01*
X165387907Y-93862762D01*
X165387906Y-93862763D01*
X165299580Y-93926936D01*
X165232712Y-93950794D01*
X165225519Y-93951000D01*
X164799395Y-93951000D01*
X164731274Y-93930998D01*
X164698569Y-93900565D01*
X164650734Y-93836739D01*
X164613261Y-93786739D01*
X164496705Y-93699385D01*
X164360316Y-93648255D01*
X164298134Y-93641500D01*
X161501866Y-93641500D01*
X161439684Y-93648255D01*
X161303295Y-93699385D01*
X161186739Y-93786739D01*
X161099385Y-93903295D01*
X161048255Y-94039684D01*
X161041500Y-94101866D01*
X161041500Y-95198134D01*
X147533210Y-95198134D01*
X147526692Y-95180886D01*
X147526692Y-95180885D01*
X147524006Y-95173778D01*
X147519700Y-95167512D01*
X147518050Y-95164357D01*
X147510931Y-95151565D01*
X147509131Y-95148521D01*
X147506078Y-95141567D01*
X147467740Y-95091604D01*
X147463862Y-95086267D01*
X147432481Y-95040607D01*
X147432479Y-95040605D01*
X147428179Y-95034348D01*
X147406768Y-95015271D01*
X147382312Y-94993482D01*
X147377036Y-94988501D01*
X146564497Y-94175962D01*
X146558643Y-94169696D01*
X146543089Y-94151866D01*
X146521158Y-94126726D01*
X146469622Y-94090506D01*
X146464326Y-94086573D01*
X146420737Y-94052394D01*
X146420734Y-94052392D01*
X146414760Y-94047708D01*
X146407836Y-94044582D01*
X146404801Y-94042744D01*
X146392102Y-94035500D01*
X146388954Y-94033812D01*
X146382739Y-94029444D01*
X146324050Y-94006562D01*
X146318005Y-94004022D01*
X146260565Y-93978087D01*
X146253092Y-93976702D01*
X146249674Y-93975631D01*
X146235685Y-93971646D01*
X146232193Y-93970749D01*
X146225111Y-93967988D01*
X146217578Y-93966996D01*
X146217577Y-93966996D01*
X146162670Y-93959767D01*
X146156157Y-93958735D01*
X146101682Y-93948639D01*
X146101680Y-93948639D01*
X146094213Y-93947255D01*
X146086633Y-93947692D01*
X146086632Y-93947692D01*
X146032888Y-93950791D01*
X146025635Y-93951000D01*
X145849395Y-93951000D01*
X145781274Y-93930998D01*
X145748569Y-93900565D01*
X145700734Y-93836739D01*
X145663261Y-93786739D01*
X145546705Y-93699385D01*
X145410316Y-93648255D01*
X145348134Y-93641500D01*
X142551866Y-93641500D01*
X142489684Y-93648255D01*
X142353295Y-93699385D01*
X142236739Y-93786739D01*
X142149385Y-93903295D01*
X142098255Y-94039684D01*
X142091500Y-94101866D01*
X142091500Y-95198134D01*
X142098255Y-95260316D01*
X142149385Y-95396705D01*
X142236739Y-95513261D01*
X142353295Y-95600615D01*
X142489684Y-95651745D01*
X142551866Y-95658500D01*
X145348134Y-95658500D01*
X145410316Y-95651745D01*
X145546705Y-95600615D01*
X145663261Y-95513261D01*
X145688113Y-95480101D01*
X145744972Y-95437586D01*
X145815791Y-95432560D01*
X145878034Y-95466571D01*
X146164095Y-95752632D01*
X146198121Y-95814944D01*
X146201000Y-95841727D01*
X146201000Y-96358275D01*
X146180998Y-96426396D01*
X146164095Y-96447370D01*
X146147370Y-96464095D01*
X146085058Y-96498121D01*
X146058275Y-96501000D01*
X132599395Y-96501000D01*
X132531274Y-96480998D01*
X132498569Y-96450565D01*
X132436512Y-96367763D01*
X132413261Y-96336739D01*
X132296705Y-96249385D01*
X132160316Y-96198255D01*
X132098134Y-96191500D01*
X129301866Y-96191500D01*
X129239684Y-96198255D01*
X129103295Y-96249385D01*
X128986739Y-96336739D01*
X128899385Y-96453295D01*
X128848255Y-96589684D01*
X128841500Y-96651866D01*
X128841500Y-97748134D01*
X103502769Y-97748134D01*
X103503638Y-95248134D01*
X123141500Y-95248134D01*
X123148255Y-95310316D01*
X123199385Y-95446705D01*
X123286739Y-95563261D01*
X123403295Y-95650615D01*
X123539684Y-95701745D01*
X123601866Y-95708500D01*
X126398134Y-95708500D01*
X126460316Y-95701745D01*
X126596705Y-95650615D01*
X126713261Y-95563261D01*
X126798569Y-95449435D01*
X126855428Y-95406920D01*
X126899395Y-95399000D01*
X127275519Y-95399000D01*
X127343640Y-95419002D01*
X127349580Y-95423064D01*
X127424103Y-95477208D01*
X127443248Y-95491118D01*
X127449276Y-95493802D01*
X127449278Y-95493803D01*
X127611681Y-95566109D01*
X127617712Y-95568794D01*
X127711112Y-95588647D01*
X127798056Y-95607128D01*
X127798061Y-95607128D01*
X127804513Y-95608500D01*
X127995487Y-95608500D01*
X128001939Y-95607128D01*
X128001944Y-95607128D01*
X128088888Y-95588647D01*
X128182288Y-95568794D01*
X128188319Y-95566109D01*
X128350722Y-95493803D01*
X128350724Y-95493802D01*
X128356752Y-95491118D01*
X128375898Y-95477208D01*
X128425571Y-95441118D01*
X128511253Y-95378866D01*
X128531013Y-95356920D01*
X128634621Y-95241852D01*
X128634622Y-95241851D01*
X128639040Y-95236944D01*
X128734527Y-95071556D01*
X128793542Y-94889928D01*
X128813504Y-94700000D01*
X128793542Y-94510072D01*
X128734527Y-94328444D01*
X128639040Y-94163056D01*
X128628965Y-94151866D01*
X128515675Y-94026045D01*
X128515674Y-94026044D01*
X128511253Y-94021134D01*
X128356752Y-93908882D01*
X128350724Y-93906198D01*
X128350722Y-93906197D01*
X128188319Y-93833891D01*
X128188318Y-93833891D01*
X128182288Y-93831206D01*
X128088888Y-93811353D01*
X128001944Y-93792872D01*
X128001939Y-93792872D01*
X127995487Y-93791500D01*
X127804513Y-93791500D01*
X127798061Y-93792872D01*
X127798056Y-93792872D01*
X127711112Y-93811353D01*
X127617712Y-93831206D01*
X127611682Y-93833891D01*
X127611681Y-93833891D01*
X127449278Y-93906197D01*
X127449276Y-93906198D01*
X127443248Y-93908882D01*
X127437907Y-93912762D01*
X127437906Y-93912763D01*
X127349580Y-93976936D01*
X127282712Y-94000794D01*
X127275519Y-94001000D01*
X126899395Y-94001000D01*
X126831274Y-93980998D01*
X126798569Y-93950565D01*
X126718642Y-93843919D01*
X126713261Y-93836739D01*
X126596705Y-93749385D01*
X126460316Y-93698255D01*
X126398134Y-93691500D01*
X123601866Y-93691500D01*
X123539684Y-93698255D01*
X123403295Y-93749385D01*
X123286739Y-93836739D01*
X123199385Y-93953295D01*
X123148255Y-94089684D01*
X123141500Y-94151866D01*
X123141500Y-95248134D01*
X103503638Y-95248134D01*
X103504994Y-91349957D01*
X114791873Y-91349957D01*
X114797154Y-91357011D01*
X114966836Y-91456166D01*
X114976119Y-91460613D01*
X115179302Y-91538201D01*
X115189200Y-91541077D01*
X115402328Y-91584438D01*
X115412556Y-91585657D01*
X115629902Y-91593628D01*
X115640188Y-91593161D01*
X115855921Y-91565525D01*
X115865999Y-91563383D01*
X116074316Y-91500884D01*
X116083914Y-91497122D01*
X116279229Y-91401439D01*
X116288074Y-91396166D01*
X116340964Y-91358440D01*
X116349365Y-91347740D01*
X116342377Y-91334587D01*
X115584812Y-90577022D01*
X115570868Y-90569408D01*
X115569035Y-90569539D01*
X115562420Y-90573790D01*
X114798633Y-91337577D01*
X114791873Y-91349957D01*
X103504994Y-91349957D01*
X103505402Y-90176189D01*
X114182464Y-90176189D01*
X114194985Y-90393326D01*
X114196418Y-90403528D01*
X114244231Y-90615692D01*
X114247314Y-90625532D01*
X114329140Y-90827045D01*
X114333783Y-90836236D01*
X114418461Y-90974419D01*
X114428917Y-90983879D01*
X114437695Y-90980095D01*
X115199978Y-90217812D01*
X115206356Y-90206132D01*
X115936408Y-90206132D01*
X115936539Y-90207965D01*
X115940790Y-90214580D01*
X116702179Y-90975969D01*
X116714190Y-90982528D01*
X116725929Y-90973560D01*
X116760655Y-90925234D01*
X116765969Y-90916389D01*
X116862326Y-90721426D01*
X116866124Y-90711833D01*
X116900101Y-90600000D01*
X174686496Y-90600000D01*
X174706458Y-90789928D01*
X174765473Y-90971556D01*
X174860960Y-91136944D01*
X174988747Y-91278866D01*
X175143248Y-91391118D01*
X175149276Y-91393802D01*
X175149278Y-91393803D01*
X175221855Y-91426116D01*
X175317712Y-91468794D01*
X175411113Y-91488647D01*
X175498056Y-91507128D01*
X175498061Y-91507128D01*
X175504513Y-91508500D01*
X175695487Y-91508500D01*
X175701939Y-91507128D01*
X175701944Y-91507128D01*
X175788888Y-91488647D01*
X175882288Y-91468794D01*
X175978145Y-91426116D01*
X176050722Y-91393803D01*
X176050724Y-91393802D01*
X176056752Y-91391118D01*
X176116457Y-91347740D01*
X176150420Y-91323064D01*
X176217288Y-91299206D01*
X176224481Y-91299000D01*
X176245718Y-91299000D01*
X176313839Y-91319002D01*
X176334734Y-91335825D01*
X176425997Y-91426929D01*
X176432227Y-91430769D01*
X176432228Y-91430770D01*
X176545974Y-91500884D01*
X176574080Y-91518209D01*
X176739191Y-91572974D01*
X176746027Y-91573674D01*
X176746030Y-91573675D01*
X176797526Y-91578951D01*
X176841928Y-91583500D01*
X177516072Y-91583500D01*
X177519318Y-91583163D01*
X177519322Y-91583163D01*
X177613235Y-91573419D01*
X177613239Y-91573418D01*
X177620093Y-91572707D01*
X177626629Y-91570526D01*
X177626631Y-91570526D01*
X177759395Y-91526232D01*
X177785107Y-91517654D01*
X177868403Y-91466109D01*
X177926805Y-91429969D01*
X177926806Y-91429968D01*
X177933031Y-91426116D01*
X177964879Y-91394213D01*
X178027159Y-91360134D01*
X178097979Y-91365137D01*
X178143067Y-91394057D01*
X178145180Y-91396166D01*
X178175997Y-91426929D01*
X178182227Y-91430769D01*
X178182228Y-91430770D01*
X178295974Y-91500884D01*
X178324080Y-91518209D01*
X178489191Y-91572974D01*
X178496027Y-91573674D01*
X178496030Y-91573675D01*
X178547526Y-91578951D01*
X178591928Y-91583500D01*
X179266072Y-91583500D01*
X179269318Y-91583163D01*
X179269322Y-91583163D01*
X179363235Y-91573419D01*
X179363239Y-91573418D01*
X179370093Y-91572707D01*
X179376629Y-91570526D01*
X179376631Y-91570526D01*
X179509395Y-91526232D01*
X179535107Y-91517654D01*
X179683031Y-91426116D01*
X179712929Y-91396166D01*
X179736577Y-91372477D01*
X179798860Y-91338398D01*
X179869680Y-91343401D01*
X179899811Y-91359559D01*
X179943248Y-91391118D01*
X179949276Y-91393802D01*
X179949278Y-91393803D01*
X180021855Y-91426116D01*
X180117712Y-91468794D01*
X180211113Y-91488647D01*
X180298056Y-91507128D01*
X180298061Y-91507128D01*
X180304513Y-91508500D01*
X180495487Y-91508500D01*
X180501939Y-91507128D01*
X180501944Y-91507128D01*
X180588888Y-91488647D01*
X180682288Y-91468794D01*
X180778145Y-91426116D01*
X180850722Y-91393803D01*
X180850724Y-91393802D01*
X180856752Y-91391118D01*
X181011253Y-91278866D01*
X181139040Y-91136944D01*
X181234527Y-90971556D01*
X181293542Y-90789928D01*
X181313504Y-90600000D01*
X181293542Y-90410072D01*
X181234527Y-90228444D01*
X181222704Y-90207965D01*
X181142341Y-90068774D01*
X181139040Y-90063056D01*
X181011253Y-89921134D01*
X180856752Y-89808882D01*
X180850724Y-89806198D01*
X180850722Y-89806197D01*
X180688319Y-89733891D01*
X180688318Y-89733891D01*
X180682288Y-89731206D01*
X180588888Y-89711353D01*
X180501944Y-89692872D01*
X180501939Y-89692872D01*
X180495487Y-89691500D01*
X180304513Y-89691500D01*
X180298061Y-89692872D01*
X180298056Y-89692872D01*
X180211113Y-89711353D01*
X180117712Y-89731206D01*
X180111682Y-89733891D01*
X180111681Y-89733891D01*
X179949278Y-89806197D01*
X179949276Y-89806198D01*
X179943248Y-89808882D01*
X179900603Y-89839866D01*
X179899796Y-89840452D01*
X179832929Y-89864310D01*
X179763777Y-89848230D01*
X179736718Y-89827690D01*
X179687184Y-89778243D01*
X179682003Y-89773071D01*
X179533920Y-89681791D01*
X179368809Y-89627026D01*
X179361973Y-89626326D01*
X179361970Y-89626325D01*
X179310474Y-89621049D01*
X179266072Y-89616500D01*
X178591928Y-89616500D01*
X178588682Y-89616837D01*
X178588678Y-89616837D01*
X178494765Y-89626581D01*
X178494761Y-89626582D01*
X178487907Y-89627293D01*
X178481371Y-89629474D01*
X178481369Y-89629474D01*
X178348605Y-89673768D01*
X178322893Y-89682346D01*
X178316661Y-89686202D01*
X178316662Y-89686202D01*
X178182490Y-89769230D01*
X178174969Y-89773884D01*
X178143121Y-89805787D01*
X178080841Y-89839866D01*
X178010021Y-89834863D01*
X177964933Y-89805943D01*
X177937184Y-89778243D01*
X177932003Y-89773071D01*
X177783920Y-89681791D01*
X177618809Y-89627026D01*
X177611973Y-89626326D01*
X177611970Y-89626325D01*
X177560474Y-89621049D01*
X177516072Y-89616500D01*
X176841928Y-89616500D01*
X176838682Y-89616837D01*
X176838678Y-89616837D01*
X176744765Y-89626581D01*
X176744761Y-89626582D01*
X176737907Y-89627293D01*
X176731371Y-89629474D01*
X176731369Y-89629474D01*
X176598605Y-89673768D01*
X176572893Y-89682346D01*
X176424969Y-89773884D01*
X176419796Y-89779066D01*
X176334992Y-89864018D01*
X176272710Y-89898097D01*
X176245819Y-89901000D01*
X176224481Y-89901000D01*
X176156360Y-89880998D01*
X176150420Y-89876936D01*
X176062094Y-89812763D01*
X176062093Y-89812762D01*
X176056752Y-89808882D01*
X176050724Y-89806198D01*
X176050722Y-89806197D01*
X175888319Y-89733891D01*
X175888318Y-89733891D01*
X175882288Y-89731206D01*
X175788888Y-89711353D01*
X175701944Y-89692872D01*
X175701939Y-89692872D01*
X175695487Y-89691500D01*
X175504513Y-89691500D01*
X175498061Y-89692872D01*
X175498056Y-89692872D01*
X175411113Y-89711353D01*
X175317712Y-89731206D01*
X175311682Y-89733891D01*
X175311681Y-89733891D01*
X175149278Y-89806197D01*
X175149276Y-89806198D01*
X175143248Y-89808882D01*
X174988747Y-89921134D01*
X174860960Y-90063056D01*
X174857659Y-90068774D01*
X174777297Y-90207965D01*
X174765473Y-90228444D01*
X174706458Y-90410072D01*
X174686496Y-90600000D01*
X116900101Y-90600000D01*
X116929348Y-90503738D01*
X116931525Y-90493668D01*
X116960151Y-90276235D01*
X116960670Y-90269560D01*
X116962166Y-90208364D01*
X116961972Y-90201646D01*
X116944004Y-89983097D01*
X116942319Y-89972917D01*
X116889336Y-89761983D01*
X116886016Y-89752232D01*
X116799290Y-89552774D01*
X116794424Y-89543699D01*
X116724951Y-89436312D01*
X116714264Y-89427108D01*
X116704699Y-89431511D01*
X115944022Y-90192188D01*
X115936408Y-90206132D01*
X115206356Y-90206132D01*
X115207592Y-90203868D01*
X115207461Y-90202035D01*
X115203210Y-90195420D01*
X114442059Y-89434269D01*
X114430523Y-89427969D01*
X114418240Y-89437592D01*
X114366098Y-89514029D01*
X114361010Y-89522985D01*
X114269441Y-89720255D01*
X114265878Y-89729942D01*
X114207759Y-89939511D01*
X114205828Y-89949631D01*
X114182716Y-90165900D01*
X114182464Y-90176189D01*
X103505402Y-90176189D01*
X103505789Y-89061784D01*
X114793580Y-89061784D01*
X114800325Y-89074115D01*
X115559188Y-89832978D01*
X115573132Y-89840592D01*
X115574965Y-89840461D01*
X115581580Y-89836210D01*
X116344969Y-89072821D01*
X116351990Y-89059964D01*
X116344429Y-89049587D01*
X116336820Y-89044532D01*
X116146429Y-88939430D01*
X116137017Y-88935200D01*
X115932008Y-88862602D01*
X115922037Y-88859968D01*
X115707923Y-88821828D01*
X115697671Y-88820859D01*
X115480191Y-88818202D01*
X115469907Y-88818922D01*
X115254922Y-88851818D01*
X115244903Y-88854205D01*
X115038170Y-88921776D01*
X115028668Y-88925771D01*
X114835759Y-89026193D01*
X114827034Y-89031687D01*
X114802033Y-89050459D01*
X114793580Y-89061784D01*
X103505789Y-89061784D01*
X103507984Y-82749391D01*
X103509483Y-82730054D01*
X103511805Y-82715141D01*
X103513186Y-82706271D01*
X103511748Y-82695273D01*
X103511291Y-82666588D01*
X103523924Y-82538329D01*
X103528742Y-82514105D01*
X103572299Y-82370517D01*
X103581749Y-82347704D01*
X103652480Y-82215377D01*
X103666203Y-82194840D01*
X103761389Y-82078855D01*
X103778855Y-82061389D01*
X103894840Y-81966203D01*
X103915377Y-81952480D01*
X104047704Y-81881749D01*
X104070517Y-81872299D01*
X104214107Y-81828742D01*
X104238329Y-81823924D01*
X104289101Y-81818923D01*
X104359838Y-81811956D01*
X104375877Y-81812409D01*
X104375886Y-81811695D01*
X104384859Y-81811805D01*
X104393731Y-81813186D01*
X104402633Y-81812022D01*
X104402636Y-81812022D01*
X104425252Y-81809064D01*
X104441590Y-81808000D01*
X194250672Y-81808000D01*
X194270057Y-81809500D01*
G37*
%TD.AperFunction*%
%TD*%
M02*
