%TF.GenerationSoftware,KiCad,Pcbnew,(6.0.2)*%
%TF.CreationDate,2022-05-28T13:28:15-07:00*%
%TF.ProjectId,TxBoard,5478426f-6172-4642-9e6b-696361645f70,4*%
%TF.SameCoordinates,Original*%
%TF.FileFunction,Copper,L2,Bot*%
%TF.FilePolarity,Positive*%
%FSLAX46Y46*%
G04 Gerber Fmt 4.6, Leading zero omitted, Abs format (unit mm)*
G04 Created by KiCad (PCBNEW (6.0.2)) date 2022-05-28 13:28:15*
%MOMM*%
%LPD*%
G01*
G04 APERTURE LIST*
G04 Aperture macros list*
%AMRoundRect*
0 Rectangle with rounded corners*
0 $1 Rounding radius*
0 $2 $3 $4 $5 $6 $7 $8 $9 X,Y pos of 4 corners*
0 Add a 4 corners polygon primitive as box body*
4,1,4,$2,$3,$4,$5,$6,$7,$8,$9,$2,$3,0*
0 Add four circle primitives for the rounded corners*
1,1,$1+$1,$2,$3*
1,1,$1+$1,$4,$5*
1,1,$1+$1,$6,$7*
1,1,$1+$1,$8,$9*
0 Add four rect primitives between the rounded corners*
20,1,$1+$1,$2,$3,$4,$5,0*
20,1,$1+$1,$4,$5,$6,$7,0*
20,1,$1+$1,$6,$7,$8,$9,0*
20,1,$1+$1,$8,$9,$2,$3,0*%
G04 Aperture macros list end*
%TA.AperFunction,Profile*%
%ADD10C,0.100000*%
%TD*%
%TA.AperFunction,SMDPad,CuDef*%
%ADD11RoundRect,0.250000X0.337500X0.475000X-0.337500X0.475000X-0.337500X-0.475000X0.337500X-0.475000X0*%
%TD*%
%TA.AperFunction,ComponentPad*%
%ADD12C,7.000000*%
%TD*%
%TA.AperFunction,ComponentPad*%
%ADD13O,2.717800X1.501800*%
%TD*%
%TA.AperFunction,ComponentPad*%
%ADD14O,1.501800X2.717800*%
%TD*%
%TA.AperFunction,SMDPad,CuDef*%
%ADD15RoundRect,0.250000X0.475000X-0.337500X0.475000X0.337500X-0.475000X0.337500X-0.475000X-0.337500X0*%
%TD*%
%TA.AperFunction,SMDPad,CuDef*%
%ADD16RoundRect,0.237500X0.250000X0.237500X-0.250000X0.237500X-0.250000X-0.237500X0.250000X-0.237500X0*%
%TD*%
%TA.AperFunction,SMDPad,CuDef*%
%ADD17R,1.500000X1.500000*%
%TD*%
%TA.AperFunction,SMDPad,CuDef*%
%ADD18RoundRect,0.237500X-0.250000X-0.237500X0.250000X-0.237500X0.250000X0.237500X-0.250000X0.237500X0*%
%TD*%
%TA.AperFunction,ComponentPad*%
%ADD19C,1.755000*%
%TD*%
%TA.AperFunction,SMDPad,CuDef*%
%ADD20R,1.500000X0.450000*%
%TD*%
%TA.AperFunction,ViaPad*%
%ADD21C,0.800000*%
%TD*%
%TA.AperFunction,Conductor*%
%ADD22C,0.381000*%
%TD*%
G04 APERTURE END LIST*
D10*
X104389949Y-113010051D02*
X194300000Y-113000000D01*
X103000000Y-82700000D02*
X102989949Y-111610051D01*
X197000000Y-110300000D02*
X197000000Y-84000000D01*
X197000000Y-84000000D02*
G75*
G03*
X194300000Y-81300000I-2700001J-1D01*
G01*
X102989949Y-111610051D02*
G75*
G03*
X104389949Y-113010051I1400002J2D01*
G01*
X104400000Y-81300000D02*
G75*
G03*
X103000000Y-82700000I2J-1400002D01*
G01*
X194300000Y-81300000D02*
X104400000Y-81300000D01*
X194300000Y-113000000D02*
G75*
G03*
X197000000Y-110300000I-1J2700001D01*
G01*
D11*
%TO.P,C2,2*%
%TO.N,Net-(C2-Pad2)*%
X182662500Y-90600000D03*
%TO.P,C2,1*%
%TO.N,GND*%
X184737500Y-90600000D03*
%TD*%
D12*
%TO.P,REF\u002A\u002A,1*%
%TO.N,GND*%
X108077000Y-86360000D03*
%TD*%
%TO.P,REF\u002A\u002A,1*%
%TO.N,GND*%
X189200000Y-86360000D03*
%TD*%
%TO.P,REF\u002A\u002A,1*%
%TO.N,GND*%
X189300000Y-107950000D03*
%TD*%
%TO.P,REF\u002A\u002A,1*%
%TO.N,GND*%
X108077000Y-107950000D03*
%TD*%
D13*
%TO.P,J1,1,In*%
%TO.N,Net-(C1-Pad1)*%
X188099999Y-97155000D03*
D14*
%TO.P,J1,2,Ext*%
%TO.N,GND*%
X192600000Y-97155000D03*
%TD*%
D15*
%TO.P,C1,1*%
%TO.N,Net-(C1-Pad1)*%
X183700000Y-97337500D03*
%TO.P,C1,2*%
%TO.N,GND*%
X183700000Y-95262500D03*
%TD*%
D16*
%TO.P,R2,1*%
%TO.N,+BATT*%
X175387000Y-100330000D03*
%TO.P,R2,2*%
%TO.N,Net-(R2-Pad2)*%
X173562000Y-100330000D03*
%TD*%
D17*
%TO.P,TP2,1,1*%
%TO.N,+BATT*%
X173600000Y-88500000D03*
%TD*%
D18*
%TO.P,R1,1*%
%TO.N,Net-(D1-Pad1)*%
X178919500Y-100076000D03*
%TO.P,R1,2*%
%TO.N,Net-(Q1-Pad3)*%
X180744500Y-100076000D03*
%TD*%
D19*
%TO.P,BT1,1,+*%
%TO.N,+BATT*%
X115572000Y-103795000D03*
%TO.P,BT1,2,-*%
%TO.N,GND*%
X115572000Y-90205000D03*
%TD*%
D16*
%TO.P,R3,1*%
%TO.N,GND*%
X175307000Y-103505000D03*
%TO.P,R3,2*%
%TO.N,Net-(R3-Pad2)*%
X173482000Y-103505000D03*
%TD*%
D20*
%TO.P,Q1,1,G*%
%TO.N,Net-(C1-Pad1)*%
X183702000Y-102220000D03*
%TO.P,Q1,2,S*%
%TO.N,GND*%
X183702000Y-103520000D03*
%TO.P,Q1,3,D*%
%TO.N,Net-(Q1-Pad3)*%
X181042000Y-102870000D03*
%TD*%
D17*
%TO.P,TP1,1,1*%
%TO.N,GND*%
X173500000Y-85400000D03*
%TD*%
D21*
%TO.N,Net-(D1-Pad1)*%
X180467000Y-97155000D03*
%TO.N,+BATT*%
X175600000Y-90600000D03*
X175545000Y-97155000D03*
%TO.N,Net-(R2-Pad2)*%
X165850000Y-94650000D03*
%TO.N,Net-(R3-Pad2)*%
X127900000Y-99700000D03*
%TO.N,Net-(C2-Pad2)*%
X127900000Y-94700000D03*
X180400000Y-90600000D03*
%TD*%
D22*
%TO.N,Net-(C2-Pad2)*%
X182662500Y-90600000D02*
X180400000Y-90600000D01*
X180400000Y-90600000D02*
X176650000Y-94350000D01*
%TO.N,Net-(C1-Pad1)*%
X183702000Y-97339500D02*
X183700000Y-97337500D01*
X183700000Y-97337500D02*
X183882500Y-97155000D01*
X183702000Y-102220000D02*
X183702000Y-97339500D01*
X183882500Y-97155000D02*
X188099999Y-97155000D01*
%TO.N,Net-(D1-Pad1)*%
X178919500Y-98702500D02*
X180467000Y-97155000D01*
X178919500Y-100076000D02*
X178919500Y-98702500D01*
%TO.N,+BATT*%
X115572000Y-98550000D02*
X115572000Y-103795000D01*
X172212000Y-97155000D02*
X172212000Y-93345000D01*
X175387000Y-100330000D02*
X172212000Y-97155000D01*
X172212000Y-93345000D02*
X167132000Y-88265000D01*
X175545000Y-97155000D02*
X175545000Y-100172000D01*
X175545000Y-100172000D02*
X175387000Y-100330000D01*
X173600000Y-90600000D02*
X175600000Y-90600000D01*
X120200000Y-94000000D02*
X120161000Y-93961000D01*
X172212000Y-93345000D02*
X172212000Y-91988000D01*
X125857000Y-88265000D02*
X120161000Y-93961000D01*
X167132000Y-88265000D02*
X125857000Y-88265000D01*
X172212000Y-91988000D02*
X173600000Y-90600000D01*
X120161000Y-93961000D02*
X115572000Y-98550000D01*
X173600000Y-90600000D02*
X173600000Y-88500000D01*
%TO.N,Net-(Q1-Pad3)*%
X181042000Y-100373500D02*
X180744500Y-100076000D01*
X181042000Y-102870000D02*
X181042000Y-100373500D01*
%TO.N,Net-(R2-Pad2)*%
X173562000Y-100330000D02*
X173482000Y-100330000D01*
X165850000Y-94650000D02*
X167882000Y-94650000D01*
X167882000Y-94650000D02*
X173562000Y-100330000D01*
%TO.N,Net-(R3-Pad2)*%
X134112000Y-103505000D02*
X130302000Y-99695000D01*
X127900000Y-99700000D02*
X130297000Y-99700000D01*
X173482000Y-103505000D02*
X134112000Y-103505000D01*
X130297000Y-99700000D02*
X130302000Y-99695000D01*
%TO.N,Net-(C2-Pad2)*%
X135000000Y-101800000D02*
X127900000Y-94700000D01*
X176650000Y-94350000D02*
X176650000Y-101250000D01*
X176100000Y-101800000D02*
X135000000Y-101800000D01*
X176650000Y-101250000D02*
X176100000Y-101800000D01*
%TD*%
%TA.AperFunction,Conductor*%
%TO.N,GND*%
G36*
X194270057Y-81809500D02*
G01*
X194284858Y-81811805D01*
X194284861Y-81811805D01*
X194293730Y-81813186D01*
X194310899Y-81810941D01*
X194334838Y-81810108D01*
X194556608Y-81823522D01*
X194571713Y-81825356D01*
X194817082Y-81870322D01*
X194831855Y-81873963D01*
X195070025Y-81948180D01*
X195084243Y-81953572D01*
X195311721Y-82055952D01*
X195325194Y-82063023D01*
X195538674Y-82192076D01*
X195551195Y-82200718D01*
X195738808Y-82347704D01*
X195747571Y-82354569D01*
X195758959Y-82364659D01*
X195935341Y-82541041D01*
X195945431Y-82552429D01*
X196065959Y-82706271D01*
X196099281Y-82748804D01*
X196107924Y-82761326D01*
X196236977Y-82974806D01*
X196244047Y-82988277D01*
X196252615Y-83007313D01*
X196346426Y-83215753D01*
X196351822Y-83229980D01*
X196426037Y-83468145D01*
X196429678Y-83482918D01*
X196474644Y-83728287D01*
X196476478Y-83743391D01*
X196489455Y-83957929D01*
X196488198Y-83984639D01*
X196488195Y-83984859D01*
X196486814Y-83993730D01*
X196487978Y-84002632D01*
X196487978Y-84002635D01*
X196490936Y-84025251D01*
X196492000Y-84041589D01*
X196492000Y-110250672D01*
X196490500Y-110270056D01*
X196486814Y-110293730D01*
X196489059Y-110310897D01*
X196489892Y-110334838D01*
X196476478Y-110556608D01*
X196474644Y-110571713D01*
X196429678Y-110817082D01*
X196426037Y-110831855D01*
X196351822Y-111070020D01*
X196346428Y-111084243D01*
X196244048Y-111311721D01*
X196236977Y-111325194D01*
X196107924Y-111538674D01*
X196099282Y-111551195D01*
X196072871Y-111584906D01*
X195945431Y-111747571D01*
X195935341Y-111758959D01*
X195758959Y-111935341D01*
X195747571Y-111945431D01*
X195551196Y-112099281D01*
X195538674Y-112107924D01*
X195325194Y-112236977D01*
X195311723Y-112244047D01*
X195084243Y-112346428D01*
X195070025Y-112351820D01*
X194841990Y-112422879D01*
X194831855Y-112426037D01*
X194817082Y-112429678D01*
X194571713Y-112474644D01*
X194556609Y-112476478D01*
X194342071Y-112489455D01*
X194315361Y-112488198D01*
X194315141Y-112488195D01*
X194306270Y-112486814D01*
X194297368Y-112487978D01*
X194297366Y-112487978D01*
X194286073Y-112489455D01*
X194274707Y-112490941D01*
X194258388Y-112492005D01*
X104439252Y-112502045D01*
X104419859Y-112500545D01*
X104412011Y-112499324D01*
X104405092Y-112498246D01*
X104405090Y-112498246D01*
X104396220Y-112496865D01*
X104385222Y-112498303D01*
X104356539Y-112498760D01*
X104298201Y-112493014D01*
X104228278Y-112486127D01*
X104204056Y-112481309D01*
X104060466Y-112437752D01*
X104037653Y-112428302D01*
X103905326Y-112357571D01*
X103884789Y-112343848D01*
X103768804Y-112248662D01*
X103751338Y-112231196D01*
X103656152Y-112115211D01*
X103642429Y-112094674D01*
X103571698Y-111962347D01*
X103562248Y-111939534D01*
X103518691Y-111795944D01*
X103513873Y-111771722D01*
X103501905Y-111650216D01*
X103502358Y-111634174D01*
X103501644Y-111634165D01*
X103501754Y-111625192D01*
X103503135Y-111616320D01*
X103501971Y-111607419D01*
X103501971Y-111607414D01*
X103499027Y-111584906D01*
X103497963Y-111568524D01*
X103500678Y-103761021D01*
X114181665Y-103761021D01*
X114181962Y-103766173D01*
X114181962Y-103766177D01*
X114183710Y-103796486D01*
X114194785Y-103988555D01*
X114195920Y-103993592D01*
X114195921Y-103993598D01*
X114243337Y-104204000D01*
X114244890Y-104210891D01*
X114246834Y-104215677D01*
X114246835Y-104215682D01*
X114295598Y-104335770D01*
X114330636Y-104422058D01*
X114449720Y-104616385D01*
X114598943Y-104788653D01*
X114774299Y-104934236D01*
X114778751Y-104936838D01*
X114778756Y-104936841D01*
X114966619Y-105046619D01*
X114971077Y-105049224D01*
X115183993Y-105130528D01*
X115189061Y-105131559D01*
X115189064Y-105131560D01*
X115298741Y-105153874D01*
X115407330Y-105175967D01*
X115412503Y-105176157D01*
X115412506Y-105176157D01*
X115629925Y-105184129D01*
X115629929Y-105184129D01*
X115635089Y-105184318D01*
X115640209Y-105183662D01*
X115640211Y-105183662D01*
X115856025Y-105156016D01*
X115856026Y-105156016D01*
X115861153Y-105155359D01*
X115866103Y-105153874D01*
X116074497Y-105091353D01*
X116074502Y-105091351D01*
X116079452Y-105089866D01*
X116085548Y-105086880D01*
X116279473Y-104991877D01*
X116279478Y-104991874D01*
X116284124Y-104989598D01*
X116288334Y-104986595D01*
X116288339Y-104986592D01*
X116465458Y-104860254D01*
X116465463Y-104860250D01*
X116469670Y-104857249D01*
X116631109Y-104696373D01*
X116685782Y-104620288D01*
X116761087Y-104515489D01*
X116764105Y-104511289D01*
X116775778Y-104487672D01*
X116862793Y-104311611D01*
X116862794Y-104311609D01*
X116865087Y-104306969D01*
X116931341Y-104088900D01*
X116961090Y-103862938D01*
X116962750Y-103795000D01*
X116944075Y-103567854D01*
X116888552Y-103346809D01*
X116823614Y-103197460D01*
X116799733Y-103142537D01*
X116799731Y-103142534D01*
X116797673Y-103137800D01*
X116717917Y-103014516D01*
X116676687Y-102950784D01*
X116676685Y-102950781D01*
X116673877Y-102946441D01*
X116596459Y-102861359D01*
X116523967Y-102781692D01*
X116523965Y-102781691D01*
X116520489Y-102777870D01*
X116516438Y-102774671D01*
X116516434Y-102774667D01*
X116345684Y-102639817D01*
X116345680Y-102639815D01*
X116341629Y-102636615D01*
X116336111Y-102633569D01*
X116335787Y-102633242D01*
X116332795Y-102631254D01*
X116333205Y-102630637D01*
X116286138Y-102583139D01*
X116271000Y-102523258D01*
X116271000Y-98891725D01*
X116291002Y-98823604D01*
X116307905Y-98802630D01*
X120437218Y-94673317D01*
X120475061Y-94647307D01*
X120479141Y-94645490D01*
X120486397Y-94643258D01*
X120631569Y-94556375D01*
X120751825Y-94437371D01*
X120792658Y-94370737D01*
X120836252Y-94299598D01*
X120836254Y-94299595D01*
X120840223Y-94293117D01*
X120842534Y-94285877D01*
X120845694Y-94278974D01*
X120847168Y-94279649D01*
X120872550Y-94237985D01*
X126109630Y-89000905D01*
X126171942Y-88966879D01*
X126198725Y-88964000D01*
X166790275Y-88964000D01*
X166858396Y-88984002D01*
X166879370Y-89000905D01*
X171476095Y-93597630D01*
X171510121Y-93659942D01*
X171513000Y-93686725D01*
X171513000Y-96988275D01*
X171492998Y-97056396D01*
X171439342Y-97102889D01*
X171369068Y-97112993D01*
X171304488Y-97083499D01*
X171297905Y-97077370D01*
X168396497Y-94175962D01*
X168390643Y-94169696D01*
X168380127Y-94157641D01*
X168353158Y-94126726D01*
X168301622Y-94090506D01*
X168296326Y-94086573D01*
X168252737Y-94052394D01*
X168252734Y-94052392D01*
X168246760Y-94047708D01*
X168239836Y-94044582D01*
X168236801Y-94042744D01*
X168224102Y-94035500D01*
X168220954Y-94033812D01*
X168214739Y-94029444D01*
X168156050Y-94006562D01*
X168150005Y-94004022D01*
X168092565Y-93978087D01*
X168085092Y-93976702D01*
X168081674Y-93975631D01*
X168067685Y-93971646D01*
X168064193Y-93970749D01*
X168057111Y-93967988D01*
X168049578Y-93966996D01*
X168049577Y-93966996D01*
X167994670Y-93959767D01*
X167988157Y-93958735D01*
X167933682Y-93948639D01*
X167933680Y-93948639D01*
X167926213Y-93947255D01*
X167918633Y-93947692D01*
X167918632Y-93947692D01*
X167864888Y-93950791D01*
X167857635Y-93951000D01*
X166474481Y-93951000D01*
X166406360Y-93930998D01*
X166400420Y-93926936D01*
X166312094Y-93862763D01*
X166312093Y-93862762D01*
X166306752Y-93858882D01*
X166300724Y-93856198D01*
X166300722Y-93856197D01*
X166138319Y-93783891D01*
X166138318Y-93783891D01*
X166132288Y-93781206D01*
X166038888Y-93761353D01*
X165951944Y-93742872D01*
X165951939Y-93742872D01*
X165945487Y-93741500D01*
X165754513Y-93741500D01*
X165748061Y-93742872D01*
X165748056Y-93742872D01*
X165661112Y-93761353D01*
X165567712Y-93781206D01*
X165561682Y-93783891D01*
X165561681Y-93783891D01*
X165399278Y-93856197D01*
X165399276Y-93856198D01*
X165393248Y-93858882D01*
X165387907Y-93862762D01*
X165387906Y-93862763D01*
X165357223Y-93885056D01*
X165238747Y-93971134D01*
X165234326Y-93976044D01*
X165234325Y-93976045D01*
X165169800Y-94047708D01*
X165110960Y-94113056D01*
X165070911Y-94182423D01*
X165039295Y-94237184D01*
X165015473Y-94278444D01*
X164956458Y-94460072D01*
X164936496Y-94650000D01*
X164937186Y-94656565D01*
X164948310Y-94762400D01*
X164956458Y-94839928D01*
X165015473Y-95021556D01*
X165110960Y-95186944D01*
X165115378Y-95191851D01*
X165115379Y-95191852D01*
X165225094Y-95313703D01*
X165238747Y-95328866D01*
X165393248Y-95441118D01*
X165399276Y-95443802D01*
X165399278Y-95443803D01*
X165487750Y-95483193D01*
X165567712Y-95518794D01*
X165642144Y-95534615D01*
X165748056Y-95557128D01*
X165748061Y-95557128D01*
X165754513Y-95558500D01*
X165945487Y-95558500D01*
X165951939Y-95557128D01*
X165951944Y-95557128D01*
X166057856Y-95534615D01*
X166132288Y-95518794D01*
X166212250Y-95483193D01*
X166300722Y-95443803D01*
X166300724Y-95443802D01*
X166306752Y-95441118D01*
X166400420Y-95373064D01*
X166467288Y-95349206D01*
X166474481Y-95349000D01*
X167540275Y-95349000D01*
X167608396Y-95369002D01*
X167629370Y-95385905D01*
X172529095Y-100285630D01*
X172563121Y-100347942D01*
X172566000Y-100374725D01*
X172566000Y-100617072D01*
X172566337Y-100620318D01*
X172566337Y-100620322D01*
X172568207Y-100638338D01*
X172576793Y-100721093D01*
X172631846Y-100886107D01*
X172645827Y-100908700D01*
X172664663Y-100977149D01*
X172643501Y-101044919D01*
X172589060Y-101090490D01*
X172538681Y-101101000D01*
X135341726Y-101101000D01*
X135273605Y-101080998D01*
X135252631Y-101064095D01*
X128836243Y-94647708D01*
X128802217Y-94585396D01*
X128800028Y-94571783D01*
X128794232Y-94516637D01*
X128794232Y-94516635D01*
X128793542Y-94510072D01*
X128776361Y-94457193D01*
X128736569Y-94334729D01*
X128734527Y-94328444D01*
X128639040Y-94163056D01*
X128606329Y-94126726D01*
X128515675Y-94026045D01*
X128515674Y-94026044D01*
X128511253Y-94021134D01*
X128356752Y-93908882D01*
X128350724Y-93906198D01*
X128350722Y-93906197D01*
X128188319Y-93833891D01*
X128188318Y-93833891D01*
X128182288Y-93831206D01*
X128088888Y-93811353D01*
X128001944Y-93792872D01*
X128001939Y-93792872D01*
X127995487Y-93791500D01*
X127804513Y-93791500D01*
X127798061Y-93792872D01*
X127798056Y-93792872D01*
X127711112Y-93811353D01*
X127617712Y-93831206D01*
X127611682Y-93833891D01*
X127611681Y-93833891D01*
X127449278Y-93906197D01*
X127449276Y-93906198D01*
X127443248Y-93908882D01*
X127288747Y-94021134D01*
X127284326Y-94026044D01*
X127284325Y-94026045D01*
X127193672Y-94126726D01*
X127160960Y-94163056D01*
X127065473Y-94328444D01*
X127006458Y-94510072D01*
X126986496Y-94700000D01*
X126987186Y-94706565D01*
X127004515Y-94871438D01*
X127006458Y-94889928D01*
X127065473Y-95071556D01*
X127160960Y-95236944D01*
X127165378Y-95241851D01*
X127165379Y-95241852D01*
X127279865Y-95369002D01*
X127288747Y-95378866D01*
X127374429Y-95441118D01*
X127424103Y-95477208D01*
X127443248Y-95491118D01*
X127449276Y-95493802D01*
X127449278Y-95493803D01*
X127611681Y-95566109D01*
X127617712Y-95568794D01*
X127787631Y-95604912D01*
X127850528Y-95639063D01*
X134485503Y-102274038D01*
X134491356Y-102280303D01*
X134528842Y-102323274D01*
X134575745Y-102356238D01*
X134580389Y-102359502D01*
X134585684Y-102363435D01*
X134635239Y-102402291D01*
X134642163Y-102405417D01*
X134645212Y-102407264D01*
X134657878Y-102414489D01*
X134661043Y-102416186D01*
X134667261Y-102420556D01*
X134725996Y-102443456D01*
X134732009Y-102445983D01*
X134789435Y-102471912D01*
X134796903Y-102473296D01*
X134800311Y-102474364D01*
X134814358Y-102478366D01*
X134817813Y-102479253D01*
X134824889Y-102482012D01*
X134887353Y-102490235D01*
X134893845Y-102491263D01*
X134955787Y-102502744D01*
X134963367Y-102502307D01*
X134963368Y-102502307D01*
X135017094Y-102499209D01*
X135024347Y-102499000D01*
X172641223Y-102499000D01*
X172709344Y-102519002D01*
X172755837Y-102572658D01*
X172765941Y-102642932D01*
X172736447Y-102707512D01*
X172730396Y-102714018D01*
X172675492Y-102769018D01*
X172613210Y-102803097D01*
X172586319Y-102806000D01*
X134453725Y-102806000D01*
X134385604Y-102785998D01*
X134364630Y-102769095D01*
X130802616Y-99207081D01*
X130802150Y-99206614D01*
X130739372Y-99143175D01*
X130732898Y-99139208D01*
X130732892Y-99139203D01*
X130707801Y-99123827D01*
X130695890Y-99115549D01*
X130672736Y-99097394D01*
X130666760Y-99092708D01*
X130636963Y-99079255D01*
X130622991Y-99071857D01*
X130595118Y-99054776D01*
X130559842Y-99043518D01*
X130546315Y-99038325D01*
X130512565Y-99023087D01*
X130505097Y-99021703D01*
X130505091Y-99021701D01*
X130480429Y-99017131D01*
X130465091Y-99013279D01*
X130433942Y-99003338D01*
X130407569Y-99001540D01*
X130397008Y-99000820D01*
X130382617Y-98999002D01*
X130353680Y-98993639D01*
X130346213Y-98992255D01*
X130338634Y-98992692D01*
X130335625Y-98992866D01*
X130313578Y-98994137D01*
X130297766Y-98994054D01*
X130265148Y-98991830D01*
X130257674Y-98993135D01*
X130257665Y-98993135D01*
X130228673Y-98998196D01*
X130214260Y-98999863D01*
X130204720Y-99000414D01*
X130198170Y-99000791D01*
X130190921Y-99001000D01*
X128524481Y-99001000D01*
X128456360Y-98980998D01*
X128450420Y-98976936D01*
X128362094Y-98912763D01*
X128362093Y-98912762D01*
X128356752Y-98908882D01*
X128350724Y-98906198D01*
X128350722Y-98906197D01*
X128188319Y-98833891D01*
X128188318Y-98833891D01*
X128182288Y-98831206D01*
X128088887Y-98811353D01*
X128001944Y-98792872D01*
X128001939Y-98792872D01*
X127995487Y-98791500D01*
X127804513Y-98791500D01*
X127798061Y-98792872D01*
X127798056Y-98792872D01*
X127711113Y-98811353D01*
X127617712Y-98831206D01*
X127611682Y-98833891D01*
X127611681Y-98833891D01*
X127449278Y-98906197D01*
X127449276Y-98906198D01*
X127443248Y-98908882D01*
X127288747Y-99021134D01*
X127284326Y-99026044D01*
X127284325Y-99026045D01*
X127165701Y-99157791D01*
X127160960Y-99163056D01*
X127065473Y-99328444D01*
X127006458Y-99510072D01*
X127005768Y-99516633D01*
X127005768Y-99516635D01*
X127004571Y-99528028D01*
X126986496Y-99700000D01*
X127006458Y-99889928D01*
X127065473Y-100071556D01*
X127160960Y-100236944D01*
X127165378Y-100241851D01*
X127165379Y-100241852D01*
X127250735Y-100336649D01*
X127288747Y-100378866D01*
X127320726Y-100402100D01*
X127410181Y-100467093D01*
X127443248Y-100491118D01*
X127449276Y-100493802D01*
X127449278Y-100493803D01*
X127611681Y-100566109D01*
X127617712Y-100568794D01*
X127711112Y-100588647D01*
X127798056Y-100607128D01*
X127798061Y-100607128D01*
X127804513Y-100608500D01*
X127995487Y-100608500D01*
X128001939Y-100607128D01*
X128001944Y-100607128D01*
X128088888Y-100588647D01*
X128182288Y-100568794D01*
X128188319Y-100566109D01*
X128350722Y-100493803D01*
X128350724Y-100493802D01*
X128356752Y-100491118D01*
X128389820Y-100467093D01*
X128450420Y-100423064D01*
X128517288Y-100399206D01*
X128524481Y-100399000D01*
X129965275Y-100399000D01*
X130033396Y-100419002D01*
X130054370Y-100435905D01*
X131892502Y-102274038D01*
X133597510Y-103979046D01*
X133603363Y-103985311D01*
X133640842Y-104028274D01*
X133692383Y-104064498D01*
X133697668Y-104068423D01*
X133747240Y-104107292D01*
X133754158Y-104110416D01*
X133757179Y-104112245D01*
X133769898Y-104119500D01*
X133773046Y-104121188D01*
X133779261Y-104125556D01*
X133837950Y-104148438D01*
X133843995Y-104150978D01*
X133901435Y-104176913D01*
X133908908Y-104178298D01*
X133912326Y-104179369D01*
X133926315Y-104183354D01*
X133929807Y-104184251D01*
X133936889Y-104187012D01*
X133944422Y-104188004D01*
X133944423Y-104188004D01*
X133999330Y-104195233D01*
X134005843Y-104196265D01*
X134060318Y-104206361D01*
X134060320Y-104206361D01*
X134067787Y-104207745D01*
X134075367Y-104207308D01*
X134075368Y-104207308D01*
X134129112Y-104204209D01*
X134136365Y-104204000D01*
X172586218Y-104204000D01*
X172654339Y-104224002D01*
X172675234Y-104240825D01*
X172766497Y-104331929D01*
X172772727Y-104335769D01*
X172772728Y-104335770D01*
X172904947Y-104417271D01*
X172914580Y-104423209D01*
X173079691Y-104477974D01*
X173086527Y-104478674D01*
X173086530Y-104478675D01*
X173133870Y-104483525D01*
X173182428Y-104488500D01*
X173781572Y-104488500D01*
X173784818Y-104488163D01*
X173784822Y-104488163D01*
X173878735Y-104478419D01*
X173878739Y-104478418D01*
X173885593Y-104477707D01*
X173892129Y-104475526D01*
X173892131Y-104475526D01*
X174039193Y-104426462D01*
X174050607Y-104422654D01*
X174198531Y-104331116D01*
X174305601Y-104223859D01*
X174367882Y-104189780D01*
X174438702Y-104194783D01*
X174483791Y-104223704D01*
X174586629Y-104326363D01*
X174598040Y-104335375D01*
X174733563Y-104418912D01*
X174746741Y-104425056D01*
X174898266Y-104475315D01*
X174911632Y-104478181D01*
X175004270Y-104487672D01*
X175010685Y-104488000D01*
X175034885Y-104488000D01*
X175050124Y-104483525D01*
X175051329Y-104482135D01*
X175053000Y-104474452D01*
X175053000Y-104469885D01*
X175561000Y-104469885D01*
X175565475Y-104485124D01*
X175566865Y-104486329D01*
X175574548Y-104488000D01*
X175603266Y-104488000D01*
X175609782Y-104487663D01*
X175703632Y-104477925D01*
X175717028Y-104475032D01*
X175868453Y-104424512D01*
X175881615Y-104418347D01*
X176016992Y-104334574D01*
X176028390Y-104325540D01*
X176140863Y-104212871D01*
X176149875Y-104201460D01*
X176233412Y-104065937D01*
X176239556Y-104052759D01*
X176289815Y-103901234D01*
X176292681Y-103887868D01*
X176302172Y-103795230D01*
X176302456Y-103789669D01*
X182444001Y-103789669D01*
X182444371Y-103796490D01*
X182449895Y-103847352D01*
X182453521Y-103862604D01*
X182498676Y-103983054D01*
X182507214Y-103998649D01*
X182583715Y-104100724D01*
X182596276Y-104113285D01*
X182698351Y-104189786D01*
X182713946Y-104198324D01*
X182834394Y-104243478D01*
X182849649Y-104247105D01*
X182900514Y-104252631D01*
X182907328Y-104253000D01*
X183458885Y-104253000D01*
X183474124Y-104248525D01*
X183475329Y-104247135D01*
X183477000Y-104239452D01*
X183477000Y-104234884D01*
X183927000Y-104234884D01*
X183931475Y-104250123D01*
X183932865Y-104251328D01*
X183940548Y-104252999D01*
X184496669Y-104252999D01*
X184503490Y-104252629D01*
X184554352Y-104247105D01*
X184569604Y-104243479D01*
X184690054Y-104198324D01*
X184705649Y-104189786D01*
X184807724Y-104113285D01*
X184820285Y-104100724D01*
X184896786Y-103998649D01*
X184905324Y-103983054D01*
X184950478Y-103862606D01*
X184954105Y-103847351D01*
X184959631Y-103796486D01*
X184960000Y-103789672D01*
X184960000Y-103763115D01*
X184955525Y-103747876D01*
X184954135Y-103746671D01*
X184946452Y-103745000D01*
X183945115Y-103745000D01*
X183929876Y-103749475D01*
X183928671Y-103750865D01*
X183927000Y-103758548D01*
X183927000Y-104234884D01*
X183477000Y-104234884D01*
X183477000Y-103763115D01*
X183472525Y-103747876D01*
X183471135Y-103746671D01*
X183463452Y-103745000D01*
X182462116Y-103745000D01*
X182446877Y-103749475D01*
X182445672Y-103750865D01*
X182444001Y-103758548D01*
X182444001Y-103789669D01*
X176302456Y-103789669D01*
X176302500Y-103788815D01*
X176302500Y-103777115D01*
X176298025Y-103761876D01*
X176296635Y-103760671D01*
X176288952Y-103759000D01*
X175579115Y-103759000D01*
X175563876Y-103763475D01*
X175562671Y-103764865D01*
X175561000Y-103772548D01*
X175561000Y-104469885D01*
X175053000Y-104469885D01*
X175053000Y-103377000D01*
X175073002Y-103308879D01*
X175126658Y-103262386D01*
X175179000Y-103251000D01*
X176284385Y-103251000D01*
X176299624Y-103246525D01*
X176300829Y-103245135D01*
X176302500Y-103237452D01*
X176302500Y-103221234D01*
X176302163Y-103214718D01*
X176292425Y-103120868D01*
X176289532Y-103107472D01*
X176239012Y-102956047D01*
X176232847Y-102942885D01*
X176149074Y-102807508D01*
X176140040Y-102796110D01*
X176060719Y-102716927D01*
X176026640Y-102654644D01*
X176031643Y-102583824D01*
X176074140Y-102526952D01*
X176137023Y-102504147D01*
X176136853Y-102503170D01*
X176142373Y-102502207D01*
X176142376Y-102502206D01*
X176144328Y-102501865D01*
X176144332Y-102501865D01*
X176198924Y-102492337D01*
X176205449Y-102491374D01*
X176260418Y-102484722D01*
X176260420Y-102484721D01*
X176267960Y-102483809D01*
X176275062Y-102481125D01*
X176278500Y-102480281D01*
X176292623Y-102476417D01*
X176296034Y-102475387D01*
X176303517Y-102474081D01*
X176361197Y-102448761D01*
X176367304Y-102446270D01*
X176419117Y-102426691D01*
X176419118Y-102426690D01*
X176426222Y-102424006D01*
X176432477Y-102419707D01*
X176435618Y-102418065D01*
X176448372Y-102410967D01*
X176451478Y-102409130D01*
X176458433Y-102406077D01*
X176464460Y-102401452D01*
X176464464Y-102401450D01*
X176508402Y-102367735D01*
X176513720Y-102363871D01*
X176565652Y-102328179D01*
X176606519Y-102282311D01*
X176611499Y-102277036D01*
X177124038Y-101764497D01*
X177130304Y-101758643D01*
X177167549Y-101726152D01*
X177173274Y-101721158D01*
X177209502Y-101669610D01*
X177213435Y-101664316D01*
X177252291Y-101614761D01*
X177255417Y-101607837D01*
X177257264Y-101604788D01*
X177264489Y-101592122D01*
X177266186Y-101588957D01*
X177270556Y-101582739D01*
X177293456Y-101524004D01*
X177295983Y-101517991D01*
X177321912Y-101460565D01*
X177323296Y-101453097D01*
X177324364Y-101449689D01*
X177328364Y-101435650D01*
X177329253Y-101432186D01*
X177332012Y-101425111D01*
X177340235Y-101362655D01*
X177341267Y-101356141D01*
X177351360Y-101301683D01*
X177351360Y-101301680D01*
X177352744Y-101294214D01*
X177349209Y-101232905D01*
X177349000Y-101225653D01*
X177349000Y-100363072D01*
X177923500Y-100363072D01*
X177923837Y-100366318D01*
X177923837Y-100366322D01*
X177929725Y-100423064D01*
X177934293Y-100467093D01*
X177936474Y-100473629D01*
X177936474Y-100473631D01*
X177942308Y-100491118D01*
X177989346Y-100632107D01*
X178080884Y-100780031D01*
X178086066Y-100785204D01*
X178198816Y-100897758D01*
X178198821Y-100897762D01*
X178203997Y-100902929D01*
X178210227Y-100906769D01*
X178210228Y-100906770D01*
X178324404Y-100977149D01*
X178352080Y-100994209D01*
X178517191Y-101048974D01*
X178524027Y-101049674D01*
X178524030Y-101049675D01*
X178575526Y-101054951D01*
X178619928Y-101059500D01*
X179219072Y-101059500D01*
X179222318Y-101059163D01*
X179222322Y-101059163D01*
X179316235Y-101049419D01*
X179316239Y-101049418D01*
X179323093Y-101048707D01*
X179329629Y-101046526D01*
X179329631Y-101046526D01*
X179462395Y-101002232D01*
X179488107Y-100993654D01*
X179636031Y-100902116D01*
X179658948Y-100879159D01*
X179742747Y-100795214D01*
X179805030Y-100761135D01*
X179875850Y-100766138D01*
X179920937Y-100795059D01*
X180023812Y-100897754D01*
X180023817Y-100897758D01*
X180028997Y-100902929D01*
X180035227Y-100906769D01*
X180035228Y-100906770D01*
X180149404Y-100977149D01*
X180177080Y-100994209D01*
X180244656Y-101016623D01*
X180256667Y-101020607D01*
X180315027Y-101061038D01*
X180342264Y-101126602D01*
X180343000Y-101140200D01*
X180343000Y-102012677D01*
X180322998Y-102080798D01*
X180269342Y-102127291D01*
X180230608Y-102137940D01*
X180215152Y-102139619D01*
X180181684Y-102143255D01*
X180045295Y-102194385D01*
X179928739Y-102281739D01*
X179841385Y-102398295D01*
X179790255Y-102534684D01*
X179783500Y-102596866D01*
X179783500Y-103143134D01*
X179790255Y-103205316D01*
X179841385Y-103341705D01*
X179928739Y-103458261D01*
X180045295Y-103545615D01*
X180181684Y-103596745D01*
X180243866Y-103603500D01*
X181840134Y-103603500D01*
X181902316Y-103596745D01*
X182038705Y-103545615D01*
X182155261Y-103458261D01*
X182242615Y-103341705D01*
X182245767Y-103333297D01*
X182250077Y-103325425D01*
X182252801Y-103326916D01*
X182286192Y-103282484D01*
X182352758Y-103257798D01*
X182422104Y-103273018D01*
X182444026Y-103288269D01*
X182449865Y-103293329D01*
X182457548Y-103295000D01*
X184941884Y-103295000D01*
X184957123Y-103290525D01*
X184958328Y-103289135D01*
X184959999Y-103281452D01*
X184959999Y-103250331D01*
X184959629Y-103243510D01*
X184954105Y-103192648D01*
X184950479Y-103177396D01*
X184905324Y-103056946D01*
X184896786Y-103041351D01*
X184825311Y-102945982D01*
X184800463Y-102879475D01*
X184815516Y-102810093D01*
X184825311Y-102794852D01*
X184897229Y-102698892D01*
X184897230Y-102698890D01*
X184902615Y-102691705D01*
X184953745Y-102555316D01*
X184960500Y-102493134D01*
X184960500Y-101946866D01*
X184953745Y-101884684D01*
X184902615Y-101748295D01*
X184815261Y-101631739D01*
X184698705Y-101544385D01*
X184562316Y-101493255D01*
X184528848Y-101489619D01*
X184513392Y-101487940D01*
X184447830Y-101460698D01*
X184407404Y-101402335D01*
X184401000Y-101362677D01*
X184401000Y-98490018D01*
X184421002Y-98421897D01*
X184474658Y-98375404D01*
X184487125Y-98370494D01*
X184491996Y-98368869D01*
X184491998Y-98368868D01*
X184498946Y-98366550D01*
X184649348Y-98273478D01*
X184774305Y-98148303D01*
X184867115Y-97997738D01*
X184886155Y-97940333D01*
X184926585Y-97881973D01*
X184992149Y-97854736D01*
X185005748Y-97854000D01*
X186378680Y-97854000D01*
X186446801Y-97874002D01*
X186478642Y-97903296D01*
X186561212Y-98010903D01*
X186565357Y-98014674D01*
X186565360Y-98014678D01*
X186652603Y-98094063D01*
X186727489Y-98162204D01*
X186917933Y-98281669D01*
X186923142Y-98283763D01*
X186923144Y-98283764D01*
X187019657Y-98322562D01*
X187126521Y-98365521D01*
X187132012Y-98366658D01*
X187132015Y-98366659D01*
X187271695Y-98395585D01*
X187346662Y-98411110D01*
X187351273Y-98411376D01*
X187351274Y-98411376D01*
X187401899Y-98414295D01*
X187401903Y-98414295D01*
X187403722Y-98414400D01*
X188765033Y-98414400D01*
X188767819Y-98414151D01*
X188767827Y-98414151D01*
X188849803Y-98406835D01*
X188931921Y-98399506D01*
X188937337Y-98398024D01*
X188937339Y-98398024D01*
X189041904Y-98369418D01*
X189148765Y-98340184D01*
X189153823Y-98337772D01*
X189153827Y-98337770D01*
X189267052Y-98283764D01*
X189351677Y-98243400D01*
X189534243Y-98112213D01*
X189690692Y-97950769D01*
X189780442Y-97817207D01*
X191341100Y-97817207D01*
X191341349Y-97822802D01*
X191355490Y-97981237D01*
X191357472Y-97992252D01*
X191413807Y-98198180D01*
X191417701Y-98208653D01*
X191509618Y-98401360D01*
X191515304Y-98410975D01*
X191639891Y-98584357D01*
X191647199Y-98592823D01*
X191800514Y-98741394D01*
X191809211Y-98748437D01*
X191986409Y-98867509D01*
X191996209Y-98872897D01*
X192191697Y-98958711D01*
X192202296Y-98962278D01*
X192328384Y-98992549D01*
X192342470Y-98991844D01*
X192346000Y-98982965D01*
X192346000Y-98982317D01*
X192854000Y-98982317D01*
X192858105Y-98996297D01*
X192867778Y-98997799D01*
X192868160Y-98997717D01*
X193072224Y-98934938D01*
X193082570Y-98930717D01*
X193272296Y-98832792D01*
X193281727Y-98826807D01*
X193451118Y-98696828D01*
X193459335Y-98689272D01*
X193603030Y-98531353D01*
X193609783Y-98522457D01*
X193723242Y-98341589D01*
X193728313Y-98331638D01*
X193807949Y-98133535D01*
X193811178Y-98122840D01*
X193854674Y-97912803D01*
X193855877Y-97903666D01*
X193858795Y-97853062D01*
X193858900Y-97849415D01*
X193858900Y-97427115D01*
X193854425Y-97411876D01*
X193853035Y-97410671D01*
X193845352Y-97409000D01*
X192872115Y-97409000D01*
X192856876Y-97413475D01*
X192855671Y-97414865D01*
X192854000Y-97422548D01*
X192854000Y-98982317D01*
X192346000Y-98982317D01*
X192346000Y-97427115D01*
X192341525Y-97411876D01*
X192340135Y-97410671D01*
X192332452Y-97409000D01*
X191359215Y-97409000D01*
X191343976Y-97413475D01*
X191342771Y-97414865D01*
X191341100Y-97422548D01*
X191341100Y-97817207D01*
X189780442Y-97817207D01*
X189816080Y-97764173D01*
X189906443Y-97558321D01*
X189941601Y-97411876D01*
X189957614Y-97345178D01*
X189957614Y-97345177D01*
X189958924Y-97339721D01*
X189967450Y-97191852D01*
X189971542Y-97120888D01*
X189971542Y-97120885D01*
X189971865Y-97115281D01*
X189944857Y-96892098D01*
X189942023Y-96882885D01*
X191341100Y-96882885D01*
X191345575Y-96898124D01*
X191346965Y-96899329D01*
X191354648Y-96901000D01*
X192327885Y-96901000D01*
X192343124Y-96896525D01*
X192344329Y-96895135D01*
X192346000Y-96887452D01*
X192346000Y-96882885D01*
X192854000Y-96882885D01*
X192858475Y-96898124D01*
X192859865Y-96899329D01*
X192867548Y-96901000D01*
X193840785Y-96901000D01*
X193856024Y-96896525D01*
X193857229Y-96895135D01*
X193858900Y-96887452D01*
X193858900Y-96492793D01*
X193858651Y-96487198D01*
X193844510Y-96328763D01*
X193842528Y-96317748D01*
X193786193Y-96111820D01*
X193782299Y-96101347D01*
X193690382Y-95908640D01*
X193684696Y-95899025D01*
X193560109Y-95725643D01*
X193552801Y-95717177D01*
X193399486Y-95568606D01*
X193390789Y-95561563D01*
X193213591Y-95442491D01*
X193203791Y-95437103D01*
X193008303Y-95351289D01*
X192997704Y-95347722D01*
X192871616Y-95317451D01*
X192857530Y-95318156D01*
X192854000Y-95327035D01*
X192854000Y-96882885D01*
X192346000Y-96882885D01*
X192346000Y-95327683D01*
X192341895Y-95313703D01*
X192332222Y-95312201D01*
X192331840Y-95312283D01*
X192127776Y-95375062D01*
X192117430Y-95379283D01*
X191927704Y-95477208D01*
X191918273Y-95483193D01*
X191748882Y-95613172D01*
X191740665Y-95620728D01*
X191596970Y-95778647D01*
X191590217Y-95787543D01*
X191476758Y-95968411D01*
X191471687Y-95978362D01*
X191392051Y-96176465D01*
X191388822Y-96187160D01*
X191345326Y-96397197D01*
X191344123Y-96406334D01*
X191341205Y-96456938D01*
X191341100Y-96460581D01*
X191341100Y-96882885D01*
X189942023Y-96882885D01*
X189878753Y-96677224D01*
X189875558Y-96671032D01*
X189778214Y-96482433D01*
X189778213Y-96482432D01*
X189775643Y-96477452D01*
X189638786Y-96299097D01*
X189634641Y-96295326D01*
X189634638Y-96295322D01*
X189488090Y-96161974D01*
X189472509Y-96147796D01*
X189282065Y-96028331D01*
X189073477Y-95944479D01*
X189067986Y-95943342D01*
X189067983Y-95943341D01*
X188916526Y-95911976D01*
X188853336Y-95898890D01*
X188848725Y-95898624D01*
X188848724Y-95898624D01*
X188798099Y-95895705D01*
X188798095Y-95895705D01*
X188796276Y-95895600D01*
X187434965Y-95895600D01*
X187432179Y-95895849D01*
X187432171Y-95895849D01*
X187350195Y-95903165D01*
X187268077Y-95910494D01*
X187262661Y-95911976D01*
X187262659Y-95911976D01*
X187201319Y-95928757D01*
X187051233Y-95969816D01*
X187046175Y-95972228D01*
X187046171Y-95972230D01*
X186949777Y-96018208D01*
X186848321Y-96066600D01*
X186665755Y-96197787D01*
X186509306Y-96359231D01*
X186482875Y-96398565D01*
X186481725Y-96400276D01*
X186427129Y-96445661D01*
X186377143Y-96456000D01*
X184755831Y-96456000D01*
X184687710Y-96435998D01*
X184666813Y-96419173D01*
X184653485Y-96405868D01*
X184648303Y-96400695D01*
X184643765Y-96397898D01*
X184603176Y-96340647D01*
X184599946Y-96269724D01*
X184635572Y-96208313D01*
X184644068Y-96200938D01*
X184654207Y-96192902D01*
X184768739Y-96078171D01*
X184777751Y-96066760D01*
X184862816Y-95928757D01*
X184868963Y-95915576D01*
X184920138Y-95761290D01*
X184923005Y-95747914D01*
X184932672Y-95653562D01*
X184933000Y-95647146D01*
X184933000Y-95534615D01*
X184928525Y-95519376D01*
X184927135Y-95518171D01*
X184919452Y-95516500D01*
X182485116Y-95516500D01*
X182469877Y-95520975D01*
X182468672Y-95522365D01*
X182467001Y-95530048D01*
X182467001Y-95647095D01*
X182467338Y-95653614D01*
X182477257Y-95749206D01*
X182480149Y-95762600D01*
X182531588Y-95916784D01*
X182537761Y-95929962D01*
X182623063Y-96067807D01*
X182632099Y-96079208D01*
X182746828Y-96193738D01*
X182755762Y-96200794D01*
X182796823Y-96258712D01*
X182800053Y-96329635D01*
X182764426Y-96391046D01*
X182756593Y-96397846D01*
X182750652Y-96401522D01*
X182625695Y-96526697D01*
X182621855Y-96532927D01*
X182621854Y-96532928D01*
X182565856Y-96623774D01*
X182532885Y-96677262D01*
X182530581Y-96684209D01*
X182495582Y-96789729D01*
X182477203Y-96845139D01*
X182476503Y-96851975D01*
X182476502Y-96851978D01*
X182472941Y-96886736D01*
X182466500Y-96949600D01*
X182466500Y-97725400D01*
X182466837Y-97728646D01*
X182466837Y-97728650D01*
X182476026Y-97817207D01*
X182477474Y-97831166D01*
X182479655Y-97837702D01*
X182479655Y-97837704D01*
X182501662Y-97903666D01*
X182533450Y-97998946D01*
X182626522Y-98149348D01*
X182751697Y-98274305D01*
X182757927Y-98278145D01*
X182757928Y-98278146D01*
X182895090Y-98362694D01*
X182902262Y-98367115D01*
X182916669Y-98371893D01*
X182975028Y-98412324D01*
X183002264Y-98477888D01*
X183003000Y-98491486D01*
X183003000Y-101362677D01*
X182982998Y-101430798D01*
X182929342Y-101477291D01*
X182890608Y-101487940D01*
X182875152Y-101489619D01*
X182841684Y-101493255D01*
X182705295Y-101544385D01*
X182588739Y-101631739D01*
X182501385Y-101748295D01*
X182450255Y-101884684D01*
X182443500Y-101946866D01*
X182443500Y-102288117D01*
X182423498Y-102356238D01*
X182369842Y-102402731D01*
X182299568Y-102412835D01*
X182234988Y-102383341D01*
X182216674Y-102363682D01*
X182160642Y-102288919D01*
X182155261Y-102281739D01*
X182038705Y-102194385D01*
X181902316Y-102143255D01*
X181868848Y-102139619D01*
X181853392Y-102137940D01*
X181787830Y-102110698D01*
X181747404Y-102052335D01*
X181741000Y-102012677D01*
X181741000Y-100402100D01*
X181741292Y-100393529D01*
X181742574Y-100374725D01*
X181745170Y-100336649D01*
X181742376Y-100320640D01*
X181740500Y-100298977D01*
X181740500Y-99788928D01*
X181740163Y-99785678D01*
X181730419Y-99691765D01*
X181730418Y-99691761D01*
X181729707Y-99684907D01*
X181674654Y-99519893D01*
X181583116Y-99371969D01*
X181568062Y-99356941D01*
X181465184Y-99254242D01*
X181465179Y-99254238D01*
X181460003Y-99249071D01*
X181453772Y-99245230D01*
X181318150Y-99161631D01*
X181318148Y-99161630D01*
X181311920Y-99157791D01*
X181146809Y-99103026D01*
X181139973Y-99102326D01*
X181139970Y-99102325D01*
X181088474Y-99097049D01*
X181044072Y-99092500D01*
X180444928Y-99092500D01*
X180441682Y-99092837D01*
X180441678Y-99092837D01*
X180347765Y-99102581D01*
X180347761Y-99102582D01*
X180340907Y-99103293D01*
X180334371Y-99105474D01*
X180334369Y-99105474D01*
X180221366Y-99143175D01*
X180175893Y-99158346D01*
X180027969Y-99249884D01*
X180022796Y-99255066D01*
X179921253Y-99356786D01*
X179858970Y-99390865D01*
X179788150Y-99385862D01*
X179743062Y-99356941D01*
X179655482Y-99269514D01*
X179621403Y-99207232D01*
X179618500Y-99180341D01*
X179618500Y-99044225D01*
X179638502Y-98976104D01*
X179655405Y-98955130D01*
X180516472Y-98094063D01*
X180579369Y-98059912D01*
X180749288Y-98023794D01*
X180791105Y-98005176D01*
X180917722Y-97948803D01*
X180917724Y-97948802D01*
X180923752Y-97946118D01*
X180931715Y-97940333D01*
X180982691Y-97903296D01*
X181078253Y-97833866D01*
X181206040Y-97691944D01*
X181280219Y-97563463D01*
X181298223Y-97532279D01*
X181298224Y-97532278D01*
X181301527Y-97526556D01*
X181360542Y-97344928D01*
X181361679Y-97334116D01*
X181379814Y-97161565D01*
X181380504Y-97155000D01*
X181371692Y-97071156D01*
X181361232Y-96971635D01*
X181361232Y-96971633D01*
X181360542Y-96965072D01*
X181301527Y-96783444D01*
X181206040Y-96618056D01*
X181129391Y-96532928D01*
X181082675Y-96481045D01*
X181082674Y-96481044D01*
X181078253Y-96476134D01*
X180923752Y-96363882D01*
X180917724Y-96361198D01*
X180917722Y-96361197D01*
X180755319Y-96288891D01*
X180755318Y-96288891D01*
X180749288Y-96286206D01*
X180655888Y-96266353D01*
X180568944Y-96247872D01*
X180568939Y-96247872D01*
X180562487Y-96246500D01*
X180371513Y-96246500D01*
X180365061Y-96247872D01*
X180365056Y-96247872D01*
X180278112Y-96266353D01*
X180184712Y-96286206D01*
X180178682Y-96288891D01*
X180178681Y-96288891D01*
X180016278Y-96361197D01*
X180016276Y-96361198D01*
X180010248Y-96363882D01*
X179855747Y-96476134D01*
X179851326Y-96481044D01*
X179851325Y-96481045D01*
X179804610Y-96532928D01*
X179727960Y-96618056D01*
X179632473Y-96783444D01*
X179573458Y-96965072D01*
X179572768Y-96971635D01*
X179572768Y-96971637D01*
X179566972Y-97026782D01*
X179539959Y-97092439D01*
X179530757Y-97102707D01*
X178445461Y-98188004D01*
X178439196Y-98193857D01*
X178396226Y-98231342D01*
X178391859Y-98237556D01*
X178360006Y-98282878D01*
X178356073Y-98288174D01*
X178321894Y-98331763D01*
X178321892Y-98331766D01*
X178317208Y-98337740D01*
X178314082Y-98344664D01*
X178312244Y-98347699D01*
X178305000Y-98360398D01*
X178303312Y-98363546D01*
X178298944Y-98369761D01*
X178278618Y-98421897D01*
X178276067Y-98428439D01*
X178273522Y-98434495D01*
X178247587Y-98491935D01*
X178246202Y-98499408D01*
X178245131Y-98502826D01*
X178241146Y-98516815D01*
X178240249Y-98520307D01*
X178237488Y-98527389D01*
X178236496Y-98534922D01*
X178236496Y-98534923D01*
X178229267Y-98589830D01*
X178228235Y-98596343D01*
X178223667Y-98620993D01*
X178216755Y-98658287D01*
X178217192Y-98665867D01*
X178217192Y-98665868D01*
X178220291Y-98719612D01*
X178220500Y-98726865D01*
X178220500Y-99180196D01*
X178200498Y-99248317D01*
X178183674Y-99269213D01*
X178080071Y-99372997D01*
X178076231Y-99379227D01*
X178076230Y-99379228D01*
X177993364Y-99513662D01*
X177988791Y-99521080D01*
X177934026Y-99686191D01*
X177933326Y-99693027D01*
X177933325Y-99693030D01*
X177928049Y-99744526D01*
X177923500Y-99788928D01*
X177923500Y-100363072D01*
X177349000Y-100363072D01*
X177349000Y-94990385D01*
X182467000Y-94990385D01*
X182471475Y-95005624D01*
X182472865Y-95006829D01*
X182480548Y-95008500D01*
X183427885Y-95008500D01*
X183443124Y-95004025D01*
X183444329Y-95002635D01*
X183446000Y-94994952D01*
X183446000Y-94990385D01*
X183954000Y-94990385D01*
X183958475Y-95005624D01*
X183959865Y-95006829D01*
X183967548Y-95008500D01*
X184914884Y-95008500D01*
X184930123Y-95004025D01*
X184931328Y-95002635D01*
X184932999Y-94994952D01*
X184932999Y-94877905D01*
X184932662Y-94871386D01*
X184922743Y-94775794D01*
X184919851Y-94762400D01*
X184868412Y-94608216D01*
X184862239Y-94595038D01*
X184776937Y-94457193D01*
X184767901Y-94445792D01*
X184653171Y-94331261D01*
X184641760Y-94322249D01*
X184503757Y-94237184D01*
X184490576Y-94231037D01*
X184336290Y-94179862D01*
X184322914Y-94176995D01*
X184228562Y-94167328D01*
X184222145Y-94167000D01*
X183972115Y-94167000D01*
X183956876Y-94171475D01*
X183955671Y-94172865D01*
X183954000Y-94180548D01*
X183954000Y-94990385D01*
X183446000Y-94990385D01*
X183446000Y-94185116D01*
X183441525Y-94169877D01*
X183440135Y-94168672D01*
X183432452Y-94167001D01*
X183177905Y-94167001D01*
X183171386Y-94167338D01*
X183075794Y-94177257D01*
X183062400Y-94180149D01*
X182908216Y-94231588D01*
X182895038Y-94237761D01*
X182757193Y-94323063D01*
X182745792Y-94332099D01*
X182631261Y-94446829D01*
X182622249Y-94458240D01*
X182537184Y-94596243D01*
X182531037Y-94609424D01*
X182479862Y-94763710D01*
X182476995Y-94777086D01*
X182467328Y-94871438D01*
X182467000Y-94877855D01*
X182467000Y-94990385D01*
X177349000Y-94990385D01*
X177349000Y-94691725D01*
X177369002Y-94623604D01*
X177385905Y-94602630D01*
X180449472Y-91539063D01*
X180512369Y-91504912D01*
X180682288Y-91468794D01*
X180710651Y-91456166D01*
X180850722Y-91393803D01*
X180850724Y-91393802D01*
X180856752Y-91391118D01*
X180916457Y-91347740D01*
X180950420Y-91323064D01*
X181017288Y-91299206D01*
X181024481Y-91299000D01*
X181509315Y-91299000D01*
X181577436Y-91319002D01*
X181623929Y-91372658D01*
X181628837Y-91385120D01*
X181633450Y-91398946D01*
X181726522Y-91549348D01*
X181851697Y-91674305D01*
X181857927Y-91678145D01*
X181857928Y-91678146D01*
X181995288Y-91762816D01*
X182002262Y-91767115D01*
X182082005Y-91793564D01*
X182163611Y-91820632D01*
X182163613Y-91820632D01*
X182170139Y-91822797D01*
X182176975Y-91823497D01*
X182176978Y-91823498D01*
X182220031Y-91827909D01*
X182274600Y-91833500D01*
X183050400Y-91833500D01*
X183053646Y-91833163D01*
X183053650Y-91833163D01*
X183149308Y-91823238D01*
X183149312Y-91823237D01*
X183156166Y-91822526D01*
X183162702Y-91820345D01*
X183162704Y-91820345D01*
X183294806Y-91776272D01*
X183323946Y-91766550D01*
X183474348Y-91673478D01*
X183599305Y-91548303D01*
X183602102Y-91543765D01*
X183659353Y-91503176D01*
X183730276Y-91499946D01*
X183791687Y-91535572D01*
X183799062Y-91544068D01*
X183807098Y-91554207D01*
X183921829Y-91668739D01*
X183933240Y-91677751D01*
X184071243Y-91762816D01*
X184084424Y-91768963D01*
X184238710Y-91820138D01*
X184252086Y-91823005D01*
X184346438Y-91832672D01*
X184352854Y-91833000D01*
X184465385Y-91833000D01*
X184480624Y-91828525D01*
X184481829Y-91827135D01*
X184483500Y-91819452D01*
X184483500Y-91814884D01*
X184991500Y-91814884D01*
X184995975Y-91830123D01*
X184997365Y-91831328D01*
X185005048Y-91832999D01*
X185122095Y-91832999D01*
X185128614Y-91832662D01*
X185224206Y-91822743D01*
X185237600Y-91819851D01*
X185391784Y-91768412D01*
X185404962Y-91762239D01*
X185542807Y-91676937D01*
X185554208Y-91667901D01*
X185668739Y-91553171D01*
X185677751Y-91541760D01*
X185762816Y-91403757D01*
X185768963Y-91390576D01*
X185820138Y-91236290D01*
X185823005Y-91222914D01*
X185832672Y-91128562D01*
X185833000Y-91122146D01*
X185833000Y-90872115D01*
X185828525Y-90856876D01*
X185827135Y-90855671D01*
X185819452Y-90854000D01*
X185009615Y-90854000D01*
X184994376Y-90858475D01*
X184993171Y-90859865D01*
X184991500Y-90867548D01*
X184991500Y-91814884D01*
X184483500Y-91814884D01*
X184483500Y-90327885D01*
X184991500Y-90327885D01*
X184995975Y-90343124D01*
X184997365Y-90344329D01*
X185005048Y-90346000D01*
X185814884Y-90346000D01*
X185830123Y-90341525D01*
X185831328Y-90340135D01*
X185832999Y-90332452D01*
X185832999Y-90077905D01*
X185832662Y-90071386D01*
X185822743Y-89975794D01*
X185819851Y-89962400D01*
X185768412Y-89808216D01*
X185762239Y-89795038D01*
X185676937Y-89657193D01*
X185667901Y-89645792D01*
X185553171Y-89531261D01*
X185541760Y-89522249D01*
X185403757Y-89437184D01*
X185390576Y-89431037D01*
X185236290Y-89379862D01*
X185222914Y-89376995D01*
X185128562Y-89367328D01*
X185122145Y-89367000D01*
X185009615Y-89367000D01*
X184994376Y-89371475D01*
X184993171Y-89372865D01*
X184991500Y-89380548D01*
X184991500Y-90327885D01*
X184483500Y-90327885D01*
X184483500Y-89385116D01*
X184479025Y-89369877D01*
X184477635Y-89368672D01*
X184469952Y-89367001D01*
X184352905Y-89367001D01*
X184346386Y-89367338D01*
X184250794Y-89377257D01*
X184237400Y-89380149D01*
X184083216Y-89431588D01*
X184070038Y-89437761D01*
X183932193Y-89523063D01*
X183920792Y-89532099D01*
X183806262Y-89646828D01*
X183799206Y-89655762D01*
X183741288Y-89696823D01*
X183670365Y-89700053D01*
X183608954Y-89664426D01*
X183602154Y-89656593D01*
X183598478Y-89650652D01*
X183473303Y-89525695D01*
X183467072Y-89521854D01*
X183328968Y-89436725D01*
X183328966Y-89436724D01*
X183322738Y-89432885D01*
X183242995Y-89406436D01*
X183161389Y-89379368D01*
X183161387Y-89379368D01*
X183154861Y-89377203D01*
X183148025Y-89376503D01*
X183148022Y-89376502D01*
X183104969Y-89372091D01*
X183050400Y-89366500D01*
X182274600Y-89366500D01*
X182271354Y-89366837D01*
X182271350Y-89366837D01*
X182175692Y-89376762D01*
X182175688Y-89376763D01*
X182168834Y-89377474D01*
X182162298Y-89379655D01*
X182162296Y-89379655D01*
X182145928Y-89385116D01*
X182001054Y-89433450D01*
X181850652Y-89526522D01*
X181725695Y-89651697D01*
X181721855Y-89657927D01*
X181721854Y-89657928D01*
X181675030Y-89733891D01*
X181632885Y-89802262D01*
X181630581Y-89809209D01*
X181628769Y-89814671D01*
X181588336Y-89873030D01*
X181522771Y-89900265D01*
X181509177Y-89901000D01*
X181024481Y-89901000D01*
X180956360Y-89880998D01*
X180950420Y-89876936D01*
X180862094Y-89812763D01*
X180862093Y-89812762D01*
X180856752Y-89808882D01*
X180850724Y-89806198D01*
X180850722Y-89806197D01*
X180688319Y-89733891D01*
X180688318Y-89733891D01*
X180682288Y-89731206D01*
X180588888Y-89711353D01*
X180501944Y-89692872D01*
X180501939Y-89692872D01*
X180495487Y-89691500D01*
X180304513Y-89691500D01*
X180298061Y-89692872D01*
X180298056Y-89692872D01*
X180211113Y-89711353D01*
X180117712Y-89731206D01*
X180111682Y-89733891D01*
X180111681Y-89733891D01*
X179949278Y-89806197D01*
X179949276Y-89806198D01*
X179943248Y-89808882D01*
X179788747Y-89921134D01*
X179660960Y-90063056D01*
X179657659Y-90068774D01*
X179577297Y-90207965D01*
X179565473Y-90228444D01*
X179549945Y-90276235D01*
X179533647Y-90326395D01*
X179506458Y-90410072D01*
X179505768Y-90416635D01*
X179505768Y-90416637D01*
X179499972Y-90471783D01*
X179472959Y-90537440D01*
X179463757Y-90547708D01*
X176175962Y-93835503D01*
X176169697Y-93841356D01*
X176126726Y-93878842D01*
X176122359Y-93885056D01*
X176090506Y-93930378D01*
X176086573Y-93935674D01*
X176052394Y-93979263D01*
X176052392Y-93979266D01*
X176047708Y-93985240D01*
X176044582Y-93992164D01*
X176042744Y-93995199D01*
X176035500Y-94007898D01*
X176033812Y-94011046D01*
X176029444Y-94017261D01*
X176015747Y-94052394D01*
X176006567Y-94075939D01*
X176004022Y-94081995D01*
X175978087Y-94139435D01*
X175976702Y-94146908D01*
X175975631Y-94150326D01*
X175971646Y-94164315D01*
X175970749Y-94167807D01*
X175967988Y-94174889D01*
X175966996Y-94182422D01*
X175966996Y-94182423D01*
X175959767Y-94237330D01*
X175958735Y-94243843D01*
X175949603Y-94293117D01*
X175947255Y-94305787D01*
X175947692Y-94313367D01*
X175947692Y-94313368D01*
X175950791Y-94367112D01*
X175951000Y-94374365D01*
X175951000Y-96156904D01*
X175930998Y-96225025D01*
X175877342Y-96271518D01*
X175807068Y-96281622D01*
X175798803Y-96280151D01*
X175646944Y-96247872D01*
X175646939Y-96247872D01*
X175640487Y-96246500D01*
X175449513Y-96246500D01*
X175443061Y-96247872D01*
X175443056Y-96247872D01*
X175356112Y-96266353D01*
X175262712Y-96286206D01*
X175256682Y-96288891D01*
X175256681Y-96288891D01*
X175094278Y-96361197D01*
X175094276Y-96361198D01*
X175088248Y-96363882D01*
X174933747Y-96476134D01*
X174929326Y-96481044D01*
X174929325Y-96481045D01*
X174882610Y-96532928D01*
X174805960Y-96618056D01*
X174710473Y-96783444D01*
X174651458Y-96965072D01*
X174650768Y-96971633D01*
X174650768Y-96971635D01*
X174640308Y-97071156D01*
X174631496Y-97155000D01*
X174632186Y-97161565D01*
X174650322Y-97334116D01*
X174651458Y-97344928D01*
X174710473Y-97526556D01*
X174713776Y-97532278D01*
X174713777Y-97532279D01*
X174731781Y-97563463D01*
X174805960Y-97691944D01*
X174813637Y-97700470D01*
X174844353Y-97764476D01*
X174846000Y-97784779D01*
X174846000Y-98496275D01*
X174825998Y-98564396D01*
X174772342Y-98610889D01*
X174702068Y-98620993D01*
X174637488Y-98591499D01*
X174630905Y-98585370D01*
X172947905Y-96902370D01*
X172913879Y-96840058D01*
X172911000Y-96813275D01*
X172911000Y-93373599D01*
X172911292Y-93365029D01*
X172914654Y-93315723D01*
X172914654Y-93315719D01*
X172915170Y-93308148D01*
X172913866Y-93300674D01*
X172913865Y-93300664D01*
X172912877Y-93295006D01*
X172911000Y-93273341D01*
X172911000Y-92329725D01*
X172931002Y-92261604D01*
X172947905Y-92240630D01*
X173852630Y-91335905D01*
X173914942Y-91301879D01*
X173941725Y-91299000D01*
X174975519Y-91299000D01*
X175043640Y-91319002D01*
X175049580Y-91323064D01*
X175083544Y-91347740D01*
X175143248Y-91391118D01*
X175149276Y-91393802D01*
X175149278Y-91393803D01*
X175289349Y-91456166D01*
X175317712Y-91468794D01*
X175411113Y-91488647D01*
X175498056Y-91507128D01*
X175498061Y-91507128D01*
X175504513Y-91508500D01*
X175695487Y-91508500D01*
X175701939Y-91507128D01*
X175701944Y-91507128D01*
X175788888Y-91488647D01*
X175882288Y-91468794D01*
X175910651Y-91456166D01*
X176050722Y-91393803D01*
X176050724Y-91393802D01*
X176056752Y-91391118D01*
X176211253Y-91278866D01*
X176339040Y-91136944D01*
X176434527Y-90971556D01*
X176493542Y-90789928D01*
X176513504Y-90600000D01*
X176493542Y-90410072D01*
X176434527Y-90228444D01*
X176422704Y-90207965D01*
X176342341Y-90068774D01*
X176339040Y-90063056D01*
X176211253Y-89921134D01*
X176056752Y-89808882D01*
X176050724Y-89806198D01*
X176050722Y-89806197D01*
X175888319Y-89733891D01*
X175888318Y-89733891D01*
X175882288Y-89731206D01*
X175788888Y-89711353D01*
X175701944Y-89692872D01*
X175701939Y-89692872D01*
X175695487Y-89691500D01*
X175504513Y-89691500D01*
X175498061Y-89692872D01*
X175498056Y-89692872D01*
X175411113Y-89711353D01*
X175317712Y-89731206D01*
X175311682Y-89733891D01*
X175311681Y-89733891D01*
X175149278Y-89806197D01*
X175149276Y-89806198D01*
X175143248Y-89808882D01*
X175137907Y-89812762D01*
X175137906Y-89812763D01*
X175049580Y-89876936D01*
X174982712Y-89900794D01*
X174975519Y-89901000D01*
X174707550Y-89901000D01*
X174639429Y-89880998D01*
X174592936Y-89827342D01*
X174582832Y-89757068D01*
X174612326Y-89692488D01*
X174631985Y-89674174D01*
X174706081Y-89618642D01*
X174713261Y-89613261D01*
X174800615Y-89496705D01*
X174851745Y-89360316D01*
X174858500Y-89298134D01*
X174858500Y-87701866D01*
X174851745Y-87639684D01*
X174800615Y-87503295D01*
X174713261Y-87386739D01*
X174596705Y-87299385D01*
X174460316Y-87248255D01*
X174398134Y-87241500D01*
X172801866Y-87241500D01*
X172739684Y-87248255D01*
X172603295Y-87299385D01*
X172486739Y-87386739D01*
X172399385Y-87503295D01*
X172348255Y-87639684D01*
X172341500Y-87701866D01*
X172341500Y-89298134D01*
X172348255Y-89360316D01*
X172399385Y-89496705D01*
X172486739Y-89613261D01*
X172603295Y-89700615D01*
X172739684Y-89751745D01*
X172773152Y-89755381D01*
X172788608Y-89757060D01*
X172854170Y-89784302D01*
X172894596Y-89842665D01*
X172901000Y-89882323D01*
X172901000Y-90258274D01*
X172880998Y-90326395D01*
X172864095Y-90347369D01*
X171737961Y-91473504D01*
X171731696Y-91479357D01*
X171688726Y-91516842D01*
X171663194Y-91553171D01*
X171652506Y-91568378D01*
X171648576Y-91573669D01*
X171639889Y-91584749D01*
X171582118Y-91626016D01*
X171511207Y-91629499D01*
X171451637Y-91596102D01*
X167646496Y-87790961D01*
X167640642Y-87784695D01*
X167603158Y-87741726D01*
X167551622Y-87705506D01*
X167546326Y-87701573D01*
X167502737Y-87667394D01*
X167502734Y-87667392D01*
X167496760Y-87662708D01*
X167489836Y-87659582D01*
X167486801Y-87657744D01*
X167474102Y-87650500D01*
X167470954Y-87648812D01*
X167464739Y-87644444D01*
X167406050Y-87621562D01*
X167400005Y-87619022D01*
X167342565Y-87593087D01*
X167335092Y-87591702D01*
X167331674Y-87590631D01*
X167317685Y-87586646D01*
X167314193Y-87585749D01*
X167307111Y-87582988D01*
X167299578Y-87581996D01*
X167299577Y-87581996D01*
X167244670Y-87574767D01*
X167238157Y-87573735D01*
X167183682Y-87563639D01*
X167183680Y-87563639D01*
X167176213Y-87562255D01*
X167168633Y-87562692D01*
X167168632Y-87562692D01*
X167114888Y-87565791D01*
X167107635Y-87566000D01*
X125885589Y-87566000D01*
X125877019Y-87565708D01*
X125827724Y-87562347D01*
X125827720Y-87562347D01*
X125820148Y-87561831D01*
X125812671Y-87563136D01*
X125812670Y-87563136D01*
X125785380Y-87567899D01*
X125758085Y-87572663D01*
X125751568Y-87573624D01*
X125742126Y-87574767D01*
X125696582Y-87580278D01*
X125696579Y-87580279D01*
X125689040Y-87581191D01*
X125681931Y-87583877D01*
X125678488Y-87584723D01*
X125664363Y-87588586D01*
X125660958Y-87589614D01*
X125653482Y-87590919D01*
X125595810Y-87616235D01*
X125589715Y-87618723D01*
X125537880Y-87638310D01*
X125537878Y-87638311D01*
X125530778Y-87640994D01*
X125524526Y-87645291D01*
X125521383Y-87646934D01*
X125508635Y-87654029D01*
X125505523Y-87655870D01*
X125498567Y-87658923D01*
X125492539Y-87663549D01*
X125492538Y-87663549D01*
X125448602Y-87697262D01*
X125443275Y-87701133D01*
X125391348Y-87736821D01*
X125386296Y-87742491D01*
X125386295Y-87742492D01*
X125350490Y-87782679D01*
X125345509Y-87787955D01*
X119699312Y-93434153D01*
X119673081Y-93460384D01*
X119672614Y-93460850D01*
X119609175Y-93523628D01*
X119608370Y-93524942D01*
X119607115Y-93526350D01*
X115097962Y-98035503D01*
X115091697Y-98041356D01*
X115048726Y-98078842D01*
X115044359Y-98085056D01*
X115012506Y-98130378D01*
X115008573Y-98135674D01*
X114974394Y-98179263D01*
X114974392Y-98179266D01*
X114969708Y-98185240D01*
X114966582Y-98192164D01*
X114964744Y-98195199D01*
X114957500Y-98207898D01*
X114955812Y-98211046D01*
X114951444Y-98217261D01*
X114948684Y-98224340D01*
X114928567Y-98275939D01*
X114926022Y-98281995D01*
X114900087Y-98339435D01*
X114898702Y-98346908D01*
X114897631Y-98350326D01*
X114893646Y-98364315D01*
X114892749Y-98367807D01*
X114889988Y-98374889D01*
X114888996Y-98382422D01*
X114888996Y-98382423D01*
X114881767Y-98437330D01*
X114880735Y-98443843D01*
X114871822Y-98491935D01*
X114869255Y-98505787D01*
X114869692Y-98513367D01*
X114869692Y-98513368D01*
X114872791Y-98567112D01*
X114873000Y-98574365D01*
X114873000Y-102523591D01*
X114852998Y-102591712D01*
X114822654Y-102624350D01*
X114750022Y-102678884D01*
X114686846Y-102726318D01*
X114648645Y-102755000D01*
X114491184Y-102919773D01*
X114488270Y-102924045D01*
X114488269Y-102924046D01*
X114408249Y-103041351D01*
X114362750Y-103108050D01*
X114317601Y-103205316D01*
X114269529Y-103308879D01*
X114266791Y-103314777D01*
X114205884Y-103534399D01*
X114181665Y-103761021D01*
X103500678Y-103761021D01*
X103504994Y-91349957D01*
X114791873Y-91349957D01*
X114797154Y-91357011D01*
X114966836Y-91456166D01*
X114976119Y-91460613D01*
X115179302Y-91538201D01*
X115189200Y-91541077D01*
X115402328Y-91584438D01*
X115412556Y-91585657D01*
X115629902Y-91593628D01*
X115640188Y-91593161D01*
X115855921Y-91565525D01*
X115865999Y-91563383D01*
X116074316Y-91500884D01*
X116083914Y-91497122D01*
X116279229Y-91401439D01*
X116288074Y-91396166D01*
X116340964Y-91358440D01*
X116349365Y-91347740D01*
X116342377Y-91334587D01*
X115584812Y-90577022D01*
X115570868Y-90569408D01*
X115569035Y-90569539D01*
X115562420Y-90573790D01*
X114798633Y-91337577D01*
X114791873Y-91349957D01*
X103504994Y-91349957D01*
X103505402Y-90176189D01*
X114182464Y-90176189D01*
X114194985Y-90393326D01*
X114196418Y-90403528D01*
X114244231Y-90615692D01*
X114247314Y-90625532D01*
X114329140Y-90827045D01*
X114333783Y-90836236D01*
X114418461Y-90974419D01*
X114428917Y-90983879D01*
X114437695Y-90980095D01*
X115199978Y-90217812D01*
X115206356Y-90206132D01*
X115936408Y-90206132D01*
X115936539Y-90207965D01*
X115940790Y-90214580D01*
X116702179Y-90975969D01*
X116714190Y-90982528D01*
X116725929Y-90973560D01*
X116760655Y-90925234D01*
X116765969Y-90916389D01*
X116862326Y-90721426D01*
X116866124Y-90711833D01*
X116929348Y-90503738D01*
X116931525Y-90493668D01*
X116960151Y-90276235D01*
X116960670Y-90269560D01*
X116962166Y-90208364D01*
X116961972Y-90201646D01*
X116944004Y-89983097D01*
X116942319Y-89972917D01*
X116889336Y-89761983D01*
X116886016Y-89752232D01*
X116799290Y-89552774D01*
X116794424Y-89543699D01*
X116724951Y-89436312D01*
X116714264Y-89427108D01*
X116704699Y-89431511D01*
X115944022Y-90192188D01*
X115936408Y-90206132D01*
X115206356Y-90206132D01*
X115207592Y-90203868D01*
X115207461Y-90202035D01*
X115203210Y-90195420D01*
X114442059Y-89434269D01*
X114430523Y-89427969D01*
X114418240Y-89437592D01*
X114366098Y-89514029D01*
X114361010Y-89522985D01*
X114269441Y-89720255D01*
X114265878Y-89729942D01*
X114207759Y-89939511D01*
X114205828Y-89949631D01*
X114182716Y-90165900D01*
X114182464Y-90176189D01*
X103505402Y-90176189D01*
X103505789Y-89061784D01*
X114793580Y-89061784D01*
X114800325Y-89074115D01*
X115559188Y-89832978D01*
X115573132Y-89840592D01*
X115574965Y-89840461D01*
X115581580Y-89836210D01*
X116344969Y-89072821D01*
X116351990Y-89059964D01*
X116344429Y-89049587D01*
X116336820Y-89044532D01*
X116146429Y-88939430D01*
X116137017Y-88935200D01*
X115932008Y-88862602D01*
X115922037Y-88859968D01*
X115707923Y-88821828D01*
X115697671Y-88820859D01*
X115480191Y-88818202D01*
X115469907Y-88818922D01*
X115254922Y-88851818D01*
X115244903Y-88854205D01*
X115038170Y-88921776D01*
X115028668Y-88925771D01*
X114835759Y-89026193D01*
X114827034Y-89031687D01*
X114802033Y-89050459D01*
X114793580Y-89061784D01*
X103505789Y-89061784D01*
X103506786Y-86194669D01*
X172242001Y-86194669D01*
X172242371Y-86201490D01*
X172247895Y-86252352D01*
X172251521Y-86267604D01*
X172296676Y-86388054D01*
X172305214Y-86403649D01*
X172381715Y-86505724D01*
X172394276Y-86518285D01*
X172496351Y-86594786D01*
X172511946Y-86603324D01*
X172632394Y-86648478D01*
X172647649Y-86652105D01*
X172698514Y-86657631D01*
X172705328Y-86658000D01*
X173227885Y-86658000D01*
X173243124Y-86653525D01*
X173244329Y-86652135D01*
X173246000Y-86644452D01*
X173246000Y-86639884D01*
X173754000Y-86639884D01*
X173758475Y-86655123D01*
X173759865Y-86656328D01*
X173767548Y-86657999D01*
X174294669Y-86657999D01*
X174301490Y-86657629D01*
X174352352Y-86652105D01*
X174367604Y-86648479D01*
X174488054Y-86603324D01*
X174503649Y-86594786D01*
X174605724Y-86518285D01*
X174618285Y-86505724D01*
X174694786Y-86403649D01*
X174703324Y-86388054D01*
X174748478Y-86267606D01*
X174752105Y-86252351D01*
X174757631Y-86201486D01*
X174758000Y-86194672D01*
X174758000Y-85672115D01*
X174753525Y-85656876D01*
X174752135Y-85655671D01*
X174744452Y-85654000D01*
X173772115Y-85654000D01*
X173756876Y-85658475D01*
X173755671Y-85659865D01*
X173754000Y-85667548D01*
X173754000Y-86639884D01*
X173246000Y-86639884D01*
X173246000Y-85672115D01*
X173241525Y-85656876D01*
X173240135Y-85655671D01*
X173232452Y-85654000D01*
X172260116Y-85654000D01*
X172244877Y-85658475D01*
X172243672Y-85659865D01*
X172242001Y-85667548D01*
X172242001Y-86194669D01*
X103506786Y-86194669D01*
X103507157Y-85127885D01*
X172242000Y-85127885D01*
X172246475Y-85143124D01*
X172247865Y-85144329D01*
X172255548Y-85146000D01*
X173227885Y-85146000D01*
X173243124Y-85141525D01*
X173244329Y-85140135D01*
X173246000Y-85132452D01*
X173246000Y-85127885D01*
X173754000Y-85127885D01*
X173758475Y-85143124D01*
X173759865Y-85144329D01*
X173767548Y-85146000D01*
X174739884Y-85146000D01*
X174755123Y-85141525D01*
X174756328Y-85140135D01*
X174757999Y-85132452D01*
X174757999Y-84605331D01*
X174757629Y-84598510D01*
X174752105Y-84547648D01*
X174748479Y-84532396D01*
X174703324Y-84411946D01*
X174694786Y-84396351D01*
X174618285Y-84294276D01*
X174605724Y-84281715D01*
X174503649Y-84205214D01*
X174488054Y-84196676D01*
X174367606Y-84151522D01*
X174352351Y-84147895D01*
X174301486Y-84142369D01*
X174294672Y-84142000D01*
X173772115Y-84142000D01*
X173756876Y-84146475D01*
X173755671Y-84147865D01*
X173754000Y-84155548D01*
X173754000Y-85127885D01*
X173246000Y-85127885D01*
X173246000Y-84160116D01*
X173241525Y-84144877D01*
X173240135Y-84143672D01*
X173232452Y-84142001D01*
X172705331Y-84142001D01*
X172698510Y-84142371D01*
X172647648Y-84147895D01*
X172632396Y-84151521D01*
X172511946Y-84196676D01*
X172496351Y-84205214D01*
X172394276Y-84281715D01*
X172381715Y-84294276D01*
X172305214Y-84396351D01*
X172296676Y-84411946D01*
X172251522Y-84532394D01*
X172247895Y-84547649D01*
X172242369Y-84598514D01*
X172242000Y-84605328D01*
X172242000Y-85127885D01*
X103507157Y-85127885D01*
X103507984Y-82749391D01*
X103509483Y-82730054D01*
X103511805Y-82715141D01*
X103513186Y-82706271D01*
X103511748Y-82695273D01*
X103511291Y-82666588D01*
X103523924Y-82538329D01*
X103528742Y-82514105D01*
X103572299Y-82370517D01*
X103581749Y-82347704D01*
X103652480Y-82215377D01*
X103666203Y-82194840D01*
X103761389Y-82078855D01*
X103778855Y-82061389D01*
X103894840Y-81966203D01*
X103915377Y-81952480D01*
X104047704Y-81881749D01*
X104070517Y-81872299D01*
X104214107Y-81828742D01*
X104238329Y-81823924D01*
X104289101Y-81818923D01*
X104359838Y-81811956D01*
X104375877Y-81812409D01*
X104375886Y-81811695D01*
X104384859Y-81811805D01*
X104393731Y-81813186D01*
X104402633Y-81812022D01*
X104402636Y-81812022D01*
X104425252Y-81809064D01*
X104441590Y-81808000D01*
X194250672Y-81808000D01*
X194270057Y-81809500D01*
G37*
%TD.AperFunction*%
%TD*%
M02*
