%TF.GenerationSoftware,KiCad,Pcbnew,(6.0.2)*%
%TF.CreationDate,2022-04-20T19:36:53-07:00*%
%TF.ProjectId,TxBoard,5478426f-6172-4642-9e6b-696361645f70,3*%
%TF.SameCoordinates,Original*%
%TF.FileFunction,Copper,L1,Top*%
%TF.FilePolarity,Positive*%
%FSLAX46Y46*%
G04 Gerber Fmt 4.6, Leading zero omitted, Abs format (unit mm)*
G04 Created by KiCad (PCBNEW (6.0.2)) date 2022-04-20 19:36:53*
%MOMM*%
%LPD*%
G01*
G04 APERTURE LIST*
G04 Aperture macros list*
%AMRoundRect*
0 Rectangle with rounded corners*
0 $1 Rounding radius*
0 $2 $3 $4 $5 $6 $7 $8 $9 X,Y pos of 4 corners*
0 Add a 4 corners polygon primitive as box body*
4,1,4,$2,$3,$4,$5,$6,$7,$8,$9,$2,$3,0*
0 Add four circle primitives for the rounded corners*
1,1,$1+$1,$2,$3*
1,1,$1+$1,$4,$5*
1,1,$1+$1,$6,$7*
1,1,$1+$1,$8,$9*
0 Add four rect primitives between the rounded corners*
20,1,$1+$1,$2,$3,$4,$5,0*
20,1,$1+$1,$4,$5,$6,$7,0*
20,1,$1+$1,$6,$7,$8,$9,0*
20,1,$1+$1,$8,$9,$2,$3,0*%
G04 Aperture macros list end*
%TA.AperFunction,ComponentPad*%
%ADD10C,7.000000*%
%TD*%
%TA.AperFunction,ComponentPad*%
%ADD11C,1.676400*%
%TD*%
%TA.AperFunction,SMDPad,CuDef*%
%ADD12RoundRect,0.237500X0.287500X0.237500X-0.287500X0.237500X-0.287500X-0.237500X0.287500X-0.237500X0*%
%TD*%
%TA.AperFunction,ComponentPad*%
%ADD13O,2.717800X1.501800*%
%TD*%
%TA.AperFunction,ComponentPad*%
%ADD14O,1.501800X2.717800*%
%TD*%
%TA.AperFunction,ComponentPad*%
%ADD15C,1.100000*%
%TD*%
%TA.AperFunction,ComponentPad*%
%ADD16C,1.755000*%
%TD*%
%TA.AperFunction,ViaPad*%
%ADD17C,0.800000*%
%TD*%
%TA.AperFunction,ViaPad*%
%ADD18C,1.200000*%
%TD*%
%TA.AperFunction,Conductor*%
%ADD19C,0.381000*%
%TD*%
%TA.AperFunction,Conductor*%
%ADD20C,0.250000*%
%TD*%
G04 APERTURE END LIST*
D10*
X108077000Y-86360000D03*
D11*
X149352000Y-94615000D03*
X149352000Y-97155000D03*
X149352000Y-99695000D03*
D12*
X178929000Y-97155000D03*
X177179000Y-97155000D03*
D10*
X191897000Y-86360000D03*
D11*
X167767000Y-94615000D03*
X167767000Y-97155000D03*
X167767000Y-99695000D03*
X130302000Y-94615000D03*
X130302000Y-97155000D03*
X130302000Y-99695000D03*
D10*
X191897000Y-107950000D03*
X108077000Y-107950000D03*
D13*
X189936999Y-97155000D03*
D14*
X194437000Y-97155000D03*
D15*
X177967000Y-88265000D03*
X182967000Y-88265000D03*
D16*
X115572000Y-103795000D03*
X115572000Y-90205000D03*
D17*
X180467000Y-97155000D03*
D18*
X172212000Y-97155000D03*
D17*
X176657000Y-101600000D03*
X176657000Y-105410000D03*
D19*
X167767000Y-97155000D02*
X170307000Y-99695000D01*
X167767000Y-97155000D02*
X149352000Y-97155000D01*
X186182000Y-97155000D02*
X189936999Y-97155000D01*
X170307000Y-99695000D02*
X183642000Y-99695000D01*
X183642000Y-99695000D02*
X186182000Y-97155000D01*
D20*
X178929000Y-97155000D02*
X180467000Y-97155000D01*
D19*
X172212000Y-97155000D02*
X177179000Y-97155000D01*
X176657000Y-101600000D02*
X176657000Y-105410000D01*
X149352000Y-94615000D02*
X148082000Y-95885000D01*
X148082000Y-95885000D02*
X148082000Y-97155000D01*
X148082000Y-97155000D02*
X130302000Y-97155000D01*
%TA.AperFunction,Conductor*%
G36*
X196411121Y-81808002D02*
G01*
X196457614Y-81861658D01*
X196469000Y-81914000D01*
X196469000Y-112396000D01*
X196448998Y-112464121D01*
X196395342Y-112510614D01*
X196343000Y-112522000D01*
X103631000Y-112522000D01*
X103562879Y-112501998D01*
X103516386Y-112448342D01*
X103505000Y-112396000D01*
X103505000Y-107893965D01*
X104064057Y-107893965D01*
X104077741Y-108285827D01*
X104129599Y-108674484D01*
X104219136Y-109056225D01*
X104345496Y-109427407D01*
X104507475Y-109784487D01*
X104703525Y-110124056D01*
X104705314Y-110126554D01*
X104705316Y-110126558D01*
X104805047Y-110265860D01*
X104931776Y-110442874D01*
X105190049Y-110737896D01*
X105475878Y-111006308D01*
X105786536Y-111245546D01*
X105789139Y-111247173D01*
X105789144Y-111247176D01*
X105908576Y-111321805D01*
X106119056Y-111453328D01*
X106470266Y-111627670D01*
X106836812Y-111766907D01*
X107215195Y-111869712D01*
X107513419Y-111920153D01*
X107598783Y-111934591D01*
X107598786Y-111934591D01*
X107601805Y-111935102D01*
X107756444Y-111945916D01*
X107989885Y-111962240D01*
X107989893Y-111962240D01*
X107992951Y-111962454D01*
X108245037Y-111955413D01*
X108381825Y-111951592D01*
X108381828Y-111951592D01*
X108384899Y-111951506D01*
X108387952Y-111951120D01*
X108387956Y-111951120D01*
X108529576Y-111933229D01*
X108773908Y-111902362D01*
X108776912Y-111901680D01*
X108776915Y-111901679D01*
X109153269Y-111816174D01*
X109153275Y-111816172D01*
X109156265Y-111815493D01*
X109159184Y-111814522D01*
X109525396Y-111692700D01*
X109525402Y-111692698D01*
X109528320Y-111691727D01*
X109669735Y-111628765D01*
X109883722Y-111533492D01*
X109883728Y-111533489D01*
X109886522Y-111532245D01*
X109889191Y-111530729D01*
X110224784Y-111340086D01*
X110224790Y-111340083D01*
X110227452Y-111338570D01*
X110547855Y-111112550D01*
X110844674Y-110856344D01*
X111115074Y-110572395D01*
X111356475Y-110263415D01*
X111566574Y-109932354D01*
X111743363Y-109582370D01*
X111803469Y-109427407D01*
X111884041Y-109219681D01*
X111884044Y-109219672D01*
X111885156Y-109216805D01*
X111990600Y-108839148D01*
X112058688Y-108453004D01*
X112088769Y-108062059D01*
X112090334Y-107950000D01*
X112087594Y-107893965D01*
X187884057Y-107893965D01*
X187897741Y-108285827D01*
X187949599Y-108674484D01*
X188039136Y-109056225D01*
X188165496Y-109427407D01*
X188327475Y-109784487D01*
X188523525Y-110124056D01*
X188525314Y-110126554D01*
X188525316Y-110126558D01*
X188625047Y-110265860D01*
X188751776Y-110442874D01*
X189010049Y-110737896D01*
X189295878Y-111006308D01*
X189606536Y-111245546D01*
X189609139Y-111247173D01*
X189609144Y-111247176D01*
X189728576Y-111321805D01*
X189939056Y-111453328D01*
X190290266Y-111627670D01*
X190656812Y-111766907D01*
X191035195Y-111869712D01*
X191333419Y-111920153D01*
X191418783Y-111934591D01*
X191418786Y-111934591D01*
X191421805Y-111935102D01*
X191576444Y-111945916D01*
X191809885Y-111962240D01*
X191809893Y-111962240D01*
X191812951Y-111962454D01*
X192065037Y-111955413D01*
X192201825Y-111951592D01*
X192201828Y-111951592D01*
X192204899Y-111951506D01*
X192207952Y-111951120D01*
X192207956Y-111951120D01*
X192349576Y-111933229D01*
X192593908Y-111902362D01*
X192596912Y-111901680D01*
X192596915Y-111901679D01*
X192973269Y-111816174D01*
X192973275Y-111816172D01*
X192976265Y-111815493D01*
X192979184Y-111814522D01*
X193345396Y-111692700D01*
X193345402Y-111692698D01*
X193348320Y-111691727D01*
X193489735Y-111628765D01*
X193703722Y-111533492D01*
X193703728Y-111533489D01*
X193706522Y-111532245D01*
X193709191Y-111530729D01*
X194044784Y-111340086D01*
X194044790Y-111340083D01*
X194047452Y-111338570D01*
X194367855Y-111112550D01*
X194664674Y-110856344D01*
X194935074Y-110572395D01*
X195176475Y-110263415D01*
X195386574Y-109932354D01*
X195563363Y-109582370D01*
X195623469Y-109427407D01*
X195704041Y-109219681D01*
X195704044Y-109219672D01*
X195705156Y-109216805D01*
X195810600Y-108839148D01*
X195878688Y-108453004D01*
X195908769Y-108062059D01*
X195910334Y-107950000D01*
X195907594Y-107893965D01*
X195891330Y-107561440D01*
X195891180Y-107558367D01*
X195833901Y-107170473D01*
X195739043Y-106790019D01*
X195607512Y-106420637D01*
X195440564Y-106065854D01*
X195438997Y-106063225D01*
X195438992Y-106063216D01*
X195289559Y-105812541D01*
X195239791Y-105729055D01*
X195237977Y-105726595D01*
X195237972Y-105726587D01*
X195008933Y-105415926D01*
X195008931Y-105415923D01*
X195007111Y-105413455D01*
X194744744Y-105122068D01*
X194455195Y-104857673D01*
X194141228Y-104622795D01*
X194093015Y-104593596D01*
X193808467Y-104421267D01*
X193808458Y-104421262D01*
X193805839Y-104419676D01*
X193452229Y-104250255D01*
X193449339Y-104249203D01*
X193449334Y-104249201D01*
X193086674Y-104117204D01*
X193086671Y-104117203D01*
X193083775Y-104116149D01*
X192807563Y-104045229D01*
X192706977Y-104019403D01*
X192706974Y-104019402D01*
X192703993Y-104018637D01*
X192316508Y-103958651D01*
X191925018Y-103936764D01*
X191921939Y-103936893D01*
X191921936Y-103936893D01*
X191666188Y-103947612D01*
X191533261Y-103953183D01*
X191530217Y-103953611D01*
X191530215Y-103953611D01*
X191319778Y-103983186D01*
X191144976Y-104007753D01*
X190763869Y-104099953D01*
X190393579Y-104228902D01*
X190037638Y-104393369D01*
X189699446Y-104591785D01*
X189561270Y-104692176D01*
X189384711Y-104820453D01*
X189384705Y-104820458D01*
X189382230Y-104822256D01*
X189379944Y-104824285D01*
X189379941Y-104824288D01*
X189339432Y-104860254D01*
X189089017Y-105082583D01*
X189086938Y-105084828D01*
X189086931Y-105084835D01*
X188824694Y-105368026D01*
X188822608Y-105370279D01*
X188585544Y-105682599D01*
X188380089Y-106016562D01*
X188208203Y-106368980D01*
X188071527Y-106736489D01*
X187971367Y-107115581D01*
X187908677Y-107502638D01*
X187908483Y-107505718D01*
X187908483Y-107505720D01*
X187904978Y-107561440D01*
X187884057Y-107893965D01*
X112087594Y-107893965D01*
X112071330Y-107561440D01*
X112071180Y-107558367D01*
X112013901Y-107170473D01*
X111919043Y-106790019D01*
X111787512Y-106420637D01*
X111620564Y-106065854D01*
X111618997Y-106063225D01*
X111618992Y-106063216D01*
X111469559Y-105812541D01*
X111419791Y-105729055D01*
X111417977Y-105726595D01*
X111417972Y-105726587D01*
X111188933Y-105415926D01*
X111188931Y-105415923D01*
X111187111Y-105413455D01*
X111184000Y-105410000D01*
X175743496Y-105410000D01*
X175763458Y-105599928D01*
X175822473Y-105781556D01*
X175917960Y-105946944D01*
X175922378Y-105951851D01*
X175922379Y-105951852D01*
X175980644Y-106016562D01*
X176045747Y-106088866D01*
X176200248Y-106201118D01*
X176206276Y-106203802D01*
X176206278Y-106203803D01*
X176368681Y-106276109D01*
X176374712Y-106278794D01*
X176468112Y-106298647D01*
X176555056Y-106317128D01*
X176555061Y-106317128D01*
X176561513Y-106318500D01*
X176752487Y-106318500D01*
X176758939Y-106317128D01*
X176758944Y-106317128D01*
X176845887Y-106298647D01*
X176939288Y-106278794D01*
X176945319Y-106276109D01*
X177107722Y-106203803D01*
X177107724Y-106203802D01*
X177113752Y-106201118D01*
X177268253Y-106088866D01*
X177333356Y-106016562D01*
X177391621Y-105951852D01*
X177391622Y-105951851D01*
X177396040Y-105946944D01*
X177491527Y-105781556D01*
X177550542Y-105599928D01*
X177570504Y-105410000D01*
X177550542Y-105220072D01*
X177491527Y-105038444D01*
X177464642Y-104991877D01*
X177399341Y-104878774D01*
X177396040Y-104873056D01*
X177388363Y-104864530D01*
X177357647Y-104800524D01*
X177356000Y-104780221D01*
X177356000Y-102229779D01*
X177376002Y-102161658D01*
X177388359Y-102145475D01*
X177396040Y-102136944D01*
X177491527Y-101971556D01*
X177550542Y-101789928D01*
X177570504Y-101600000D01*
X177550542Y-101410072D01*
X177491527Y-101228444D01*
X177396040Y-101063056D01*
X177381012Y-101046365D01*
X177272675Y-100926045D01*
X177272674Y-100926044D01*
X177268253Y-100921134D01*
X177113752Y-100808882D01*
X177107724Y-100806198D01*
X177107722Y-100806197D01*
X176945319Y-100733891D01*
X176945318Y-100733891D01*
X176939288Y-100731206D01*
X176845888Y-100711353D01*
X176758944Y-100692872D01*
X176758939Y-100692872D01*
X176752487Y-100691500D01*
X176561513Y-100691500D01*
X176555061Y-100692872D01*
X176555056Y-100692872D01*
X176468112Y-100711353D01*
X176374712Y-100731206D01*
X176368682Y-100733891D01*
X176368681Y-100733891D01*
X176206278Y-100806197D01*
X176206276Y-100806198D01*
X176200248Y-100808882D01*
X176045747Y-100921134D01*
X176041326Y-100926044D01*
X176041325Y-100926045D01*
X175932989Y-101046365D01*
X175917960Y-101063056D01*
X175822473Y-101228444D01*
X175763458Y-101410072D01*
X175743496Y-101600000D01*
X175763458Y-101789928D01*
X175822473Y-101971556D01*
X175917960Y-102136944D01*
X175925637Y-102145470D01*
X175956353Y-102209476D01*
X175958000Y-102229779D01*
X175958000Y-104780221D01*
X175937998Y-104848342D01*
X175925641Y-104864525D01*
X175917960Y-104873056D01*
X175914659Y-104878774D01*
X175849359Y-104991877D01*
X175822473Y-105038444D01*
X175763458Y-105220072D01*
X175743496Y-105410000D01*
X111184000Y-105410000D01*
X110924744Y-105122068D01*
X110635195Y-104857673D01*
X110321228Y-104622795D01*
X110273015Y-104593596D01*
X109988467Y-104421267D01*
X109988458Y-104421262D01*
X109985839Y-104419676D01*
X109632229Y-104250255D01*
X109629339Y-104249203D01*
X109629334Y-104249201D01*
X109266674Y-104117204D01*
X109266671Y-104117203D01*
X109263775Y-104116149D01*
X108987563Y-104045229D01*
X108886977Y-104019403D01*
X108886974Y-104019402D01*
X108883993Y-104018637D01*
X108496508Y-103958651D01*
X108105018Y-103936764D01*
X108101939Y-103936893D01*
X108101936Y-103936893D01*
X107846188Y-103947612D01*
X107713261Y-103953183D01*
X107710217Y-103953611D01*
X107710215Y-103953611D01*
X107499778Y-103983186D01*
X107324976Y-104007753D01*
X106943869Y-104099953D01*
X106573579Y-104228902D01*
X106217638Y-104393369D01*
X105879446Y-104591785D01*
X105741270Y-104692176D01*
X105564711Y-104820453D01*
X105564705Y-104820458D01*
X105562230Y-104822256D01*
X105559944Y-104824285D01*
X105559941Y-104824288D01*
X105519432Y-104860254D01*
X105269017Y-105082583D01*
X105266938Y-105084828D01*
X105266931Y-105084835D01*
X105004694Y-105368026D01*
X105002608Y-105370279D01*
X104765544Y-105682599D01*
X104560089Y-106016562D01*
X104388203Y-106368980D01*
X104251527Y-106736489D01*
X104151367Y-107115581D01*
X104088677Y-107502638D01*
X104088483Y-107505718D01*
X104088483Y-107505720D01*
X104084978Y-107561440D01*
X104064057Y-107893965D01*
X103505000Y-107893965D01*
X103505000Y-103761021D01*
X114181665Y-103761021D01*
X114194785Y-103988555D01*
X114195920Y-103993592D01*
X114195921Y-103993598D01*
X114223366Y-104115382D01*
X114244890Y-104210891D01*
X114246834Y-104215677D01*
X114246835Y-104215682D01*
X114328692Y-104417271D01*
X114330636Y-104422058D01*
X114449720Y-104616385D01*
X114598943Y-104788653D01*
X114774299Y-104934236D01*
X114778751Y-104936838D01*
X114778756Y-104936841D01*
X114952629Y-105038444D01*
X114971077Y-105049224D01*
X115183993Y-105130528D01*
X115189061Y-105131559D01*
X115189064Y-105131560D01*
X115298741Y-105153874D01*
X115407330Y-105175967D01*
X115412503Y-105176157D01*
X115412506Y-105176157D01*
X115629925Y-105184129D01*
X115629929Y-105184129D01*
X115635089Y-105184318D01*
X115640209Y-105183662D01*
X115640211Y-105183662D01*
X115856025Y-105156016D01*
X115856026Y-105156016D01*
X115861153Y-105155359D01*
X115866103Y-105153874D01*
X116074497Y-105091353D01*
X116074502Y-105091351D01*
X116079452Y-105089866D01*
X116098474Y-105080547D01*
X116279473Y-104991877D01*
X116279478Y-104991874D01*
X116284124Y-104989598D01*
X116288334Y-104986595D01*
X116288339Y-104986592D01*
X116465458Y-104860254D01*
X116465463Y-104860250D01*
X116469670Y-104857249D01*
X116631109Y-104696373D01*
X116685782Y-104620288D01*
X116761087Y-104515489D01*
X116764105Y-104511289D01*
X116806030Y-104426462D01*
X116862793Y-104311611D01*
X116862794Y-104311609D01*
X116865087Y-104306969D01*
X116931341Y-104088900D01*
X116961090Y-103862938D01*
X116962750Y-103795000D01*
X116944075Y-103567854D01*
X116888552Y-103346809D01*
X116797673Y-103137800D01*
X116673877Y-102946441D01*
X116520489Y-102777870D01*
X116516438Y-102774671D01*
X116516434Y-102774667D01*
X116345683Y-102639816D01*
X116345678Y-102639813D01*
X116341629Y-102636615D01*
X116337113Y-102634122D01*
X116337110Y-102634120D01*
X116146624Y-102528966D01*
X116146620Y-102528964D01*
X116142100Y-102526469D01*
X116137231Y-102524745D01*
X116137227Y-102524743D01*
X115932136Y-102452116D01*
X115932132Y-102452115D01*
X115927261Y-102450390D01*
X115922168Y-102449483D01*
X115922165Y-102449482D01*
X115707970Y-102411328D01*
X115707964Y-102411327D01*
X115702881Y-102410422D01*
X115629469Y-102409525D01*
X115480156Y-102407701D01*
X115480154Y-102407701D01*
X115474986Y-102407638D01*
X115249697Y-102442112D01*
X115033063Y-102512919D01*
X115028475Y-102515307D01*
X115028471Y-102515309D01*
X114835491Y-102615768D01*
X114830902Y-102618157D01*
X114826769Y-102621260D01*
X114826766Y-102621262D01*
X114809641Y-102634120D01*
X114648645Y-102755000D01*
X114491184Y-102919773D01*
X114362750Y-103108050D01*
X114266791Y-103314777D01*
X114205884Y-103534399D01*
X114181665Y-103761021D01*
X103505000Y-103761021D01*
X103505000Y-99695000D01*
X128950156Y-99695000D01*
X128970694Y-99929745D01*
X129031682Y-100157358D01*
X129034004Y-100162338D01*
X129034005Y-100162340D01*
X129118604Y-100343761D01*
X129131269Y-100370922D01*
X129266427Y-100563949D01*
X129433051Y-100730573D01*
X129626078Y-100865731D01*
X129631056Y-100868052D01*
X129631059Y-100868054D01*
X129755421Y-100926045D01*
X129839642Y-100965318D01*
X129844950Y-100966740D01*
X129844952Y-100966741D01*
X130061940Y-101024882D01*
X130067255Y-101026306D01*
X130302000Y-101046844D01*
X130536745Y-101026306D01*
X130542060Y-101024882D01*
X130759048Y-100966741D01*
X130759050Y-100966740D01*
X130764358Y-100965318D01*
X130848579Y-100926045D01*
X130972941Y-100868054D01*
X130972944Y-100868052D01*
X130977922Y-100865731D01*
X131170949Y-100730573D01*
X131337573Y-100563949D01*
X131472731Y-100370922D01*
X131485397Y-100343761D01*
X131569995Y-100162340D01*
X131569996Y-100162338D01*
X131572318Y-100157358D01*
X131633306Y-99929745D01*
X131653844Y-99695000D01*
X131633306Y-99460255D01*
X131572318Y-99232642D01*
X131472731Y-99019078D01*
X131337573Y-98826051D01*
X131170949Y-98659427D01*
X130983555Y-98528213D01*
X130939226Y-98472756D01*
X130931917Y-98402137D01*
X130963947Y-98338776D01*
X130983555Y-98321787D01*
X131095504Y-98243400D01*
X131170949Y-98190573D01*
X131337573Y-98023949D01*
X131418950Y-97907730D01*
X131474407Y-97863401D01*
X131522163Y-97854000D01*
X148073288Y-97854000D01*
X148073948Y-97854002D01*
X148132713Y-97854310D01*
X148200728Y-97874669D01*
X148235266Y-97908038D01*
X148316427Y-98023949D01*
X148483051Y-98190573D01*
X148558496Y-98243400D01*
X148670445Y-98321787D01*
X148714774Y-98377244D01*
X148722083Y-98447863D01*
X148690053Y-98511224D01*
X148670445Y-98528213D01*
X148483051Y-98659427D01*
X148316427Y-98826051D01*
X148181269Y-99019078D01*
X148081682Y-99232642D01*
X148020694Y-99460255D01*
X148000156Y-99695000D01*
X148020694Y-99929745D01*
X148081682Y-100157358D01*
X148084004Y-100162338D01*
X148084005Y-100162340D01*
X148168604Y-100343761D01*
X148181269Y-100370922D01*
X148316427Y-100563949D01*
X148483051Y-100730573D01*
X148676078Y-100865731D01*
X148681056Y-100868052D01*
X148681059Y-100868054D01*
X148805421Y-100926045D01*
X148889642Y-100965318D01*
X148894950Y-100966740D01*
X148894952Y-100966741D01*
X149111940Y-101024882D01*
X149117255Y-101026306D01*
X149352000Y-101046844D01*
X149586745Y-101026306D01*
X149592060Y-101024882D01*
X149809048Y-100966741D01*
X149809050Y-100966740D01*
X149814358Y-100965318D01*
X149898579Y-100926045D01*
X150022941Y-100868054D01*
X150022944Y-100868052D01*
X150027922Y-100865731D01*
X150220949Y-100730573D01*
X150387573Y-100563949D01*
X150522731Y-100370922D01*
X150535397Y-100343761D01*
X150619995Y-100162340D01*
X150619996Y-100162338D01*
X150622318Y-100157358D01*
X150683306Y-99929745D01*
X150703844Y-99695000D01*
X150683306Y-99460255D01*
X150622318Y-99232642D01*
X150522731Y-99019078D01*
X150387573Y-98826051D01*
X150220949Y-98659427D01*
X150033555Y-98528213D01*
X149989226Y-98472756D01*
X149981917Y-98402137D01*
X150013947Y-98338776D01*
X150033555Y-98321787D01*
X150145504Y-98243400D01*
X150220949Y-98190573D01*
X150387573Y-98023949D01*
X150468950Y-97907730D01*
X150524407Y-97863401D01*
X150572163Y-97854000D01*
X166546837Y-97854000D01*
X166614958Y-97874002D01*
X166650050Y-97907730D01*
X166731427Y-98023949D01*
X166898051Y-98190573D01*
X166973496Y-98243400D01*
X167085445Y-98321787D01*
X167129774Y-98377244D01*
X167137083Y-98447863D01*
X167105053Y-98511224D01*
X167085445Y-98528213D01*
X166898051Y-98659427D01*
X166731427Y-98826051D01*
X166596269Y-99019078D01*
X166496682Y-99232642D01*
X166435694Y-99460255D01*
X166415156Y-99695000D01*
X166435694Y-99929745D01*
X166496682Y-100157358D01*
X166499004Y-100162338D01*
X166499005Y-100162340D01*
X166583604Y-100343761D01*
X166596269Y-100370922D01*
X166731427Y-100563949D01*
X166898051Y-100730573D01*
X167091078Y-100865731D01*
X167096056Y-100868052D01*
X167096059Y-100868054D01*
X167220421Y-100926045D01*
X167304642Y-100965318D01*
X167309950Y-100966740D01*
X167309952Y-100966741D01*
X167526940Y-101024882D01*
X167532255Y-101026306D01*
X167767000Y-101046844D01*
X168001745Y-101026306D01*
X168007060Y-101024882D01*
X168224048Y-100966741D01*
X168224050Y-100966740D01*
X168229358Y-100965318D01*
X168313579Y-100926045D01*
X168437941Y-100868054D01*
X168437944Y-100868052D01*
X168442922Y-100865731D01*
X168635949Y-100730573D01*
X168802573Y-100563949D01*
X168937731Y-100370922D01*
X168950397Y-100343761D01*
X169034995Y-100162340D01*
X169034996Y-100162338D01*
X169037318Y-100157358D01*
X169098306Y-99929745D01*
X169111353Y-99780616D01*
X169137217Y-99714499D01*
X169194720Y-99672860D01*
X169265607Y-99668919D01*
X169325969Y-99702504D01*
X169792503Y-100169038D01*
X169798356Y-100175303D01*
X169835842Y-100218274D01*
X169887389Y-100254502D01*
X169892684Y-100258435D01*
X169942239Y-100297291D01*
X169949163Y-100300417D01*
X169952212Y-100302264D01*
X169964878Y-100309489D01*
X169968043Y-100311186D01*
X169974261Y-100315556D01*
X170032996Y-100338456D01*
X170039009Y-100340983D01*
X170096435Y-100366912D01*
X170103903Y-100368296D01*
X170107311Y-100369364D01*
X170121350Y-100373364D01*
X170124814Y-100374253D01*
X170131889Y-100377012D01*
X170139418Y-100378003D01*
X170139421Y-100378004D01*
X170194345Y-100385235D01*
X170200859Y-100386267D01*
X170255317Y-100396360D01*
X170255320Y-100396360D01*
X170262786Y-100397744D01*
X170270366Y-100397307D01*
X170270367Y-100397307D01*
X170324094Y-100394209D01*
X170331347Y-100394000D01*
X183613401Y-100394000D01*
X183621971Y-100394292D01*
X183671277Y-100397654D01*
X183671281Y-100397654D01*
X183678852Y-100398170D01*
X183686328Y-100396865D01*
X183686332Y-100396865D01*
X183740924Y-100387337D01*
X183747449Y-100386374D01*
X183802418Y-100379722D01*
X183802420Y-100379721D01*
X183809960Y-100378809D01*
X183817062Y-100376125D01*
X183820500Y-100375281D01*
X183834623Y-100371417D01*
X183838034Y-100370387D01*
X183845517Y-100369081D01*
X183903197Y-100343761D01*
X183909304Y-100341270D01*
X183961117Y-100321691D01*
X183961118Y-100321690D01*
X183968222Y-100319006D01*
X183974477Y-100314707D01*
X183977618Y-100313065D01*
X183990372Y-100305967D01*
X183993478Y-100304130D01*
X184000433Y-100301077D01*
X184006460Y-100296452D01*
X184006464Y-100296450D01*
X184050402Y-100262735D01*
X184055720Y-100258871D01*
X184107652Y-100223179D01*
X184148519Y-100177311D01*
X184153499Y-100172036D01*
X186434630Y-97890905D01*
X186496942Y-97856879D01*
X186523725Y-97854000D01*
X188215680Y-97854000D01*
X188283801Y-97874002D01*
X188315642Y-97903296D01*
X188319281Y-97908038D01*
X188398212Y-98010903D01*
X188402357Y-98014674D01*
X188402360Y-98014678D01*
X188526577Y-98127707D01*
X188564489Y-98162204D01*
X188754933Y-98281669D01*
X188963521Y-98365521D01*
X188969012Y-98366658D01*
X188969015Y-98366659D01*
X189108695Y-98395585D01*
X189183662Y-98411110D01*
X189188273Y-98411376D01*
X189188274Y-98411376D01*
X189238899Y-98414295D01*
X189238903Y-98414295D01*
X189240722Y-98414400D01*
X190602033Y-98414400D01*
X190604819Y-98414151D01*
X190604827Y-98414151D01*
X190686803Y-98406835D01*
X190768921Y-98399506D01*
X190774337Y-98398024D01*
X190774339Y-98398024D01*
X190893149Y-98365521D01*
X190985765Y-98340184D01*
X190990823Y-98337772D01*
X190990827Y-98337770D01*
X191108444Y-98281669D01*
X191188677Y-98243400D01*
X191371243Y-98112213D01*
X191527692Y-97950769D01*
X191617442Y-97817207D01*
X193178100Y-97817207D01*
X193178349Y-97822802D01*
X193192490Y-97981237D01*
X193194472Y-97992252D01*
X193250807Y-98198180D01*
X193254701Y-98208653D01*
X193346618Y-98401360D01*
X193352304Y-98410975D01*
X193476891Y-98584357D01*
X193484199Y-98592823D01*
X193637514Y-98741394D01*
X193646211Y-98748437D01*
X193823409Y-98867509D01*
X193833209Y-98872897D01*
X194028697Y-98958711D01*
X194039296Y-98962278D01*
X194165384Y-98992549D01*
X194179470Y-98991844D01*
X194183000Y-98982965D01*
X194183000Y-98982317D01*
X194691000Y-98982317D01*
X194695105Y-98996297D01*
X194704778Y-98997799D01*
X194705160Y-98997717D01*
X194909224Y-98934938D01*
X194919570Y-98930717D01*
X195109296Y-98832792D01*
X195118727Y-98826807D01*
X195288118Y-98696828D01*
X195296335Y-98689272D01*
X195440030Y-98531353D01*
X195446783Y-98522457D01*
X195560242Y-98341589D01*
X195565313Y-98331638D01*
X195644949Y-98133535D01*
X195648178Y-98122840D01*
X195691674Y-97912803D01*
X195692877Y-97903666D01*
X195695795Y-97853062D01*
X195695900Y-97849415D01*
X195695900Y-97427115D01*
X195691425Y-97411876D01*
X195690035Y-97410671D01*
X195682352Y-97409000D01*
X194709115Y-97409000D01*
X194693876Y-97413475D01*
X194692671Y-97414865D01*
X194691000Y-97422548D01*
X194691000Y-98982317D01*
X194183000Y-98982317D01*
X194183000Y-97427115D01*
X194178525Y-97411876D01*
X194177135Y-97410671D01*
X194169452Y-97409000D01*
X193196215Y-97409000D01*
X193180976Y-97413475D01*
X193179771Y-97414865D01*
X193178100Y-97422548D01*
X193178100Y-97817207D01*
X191617442Y-97817207D01*
X191653080Y-97764173D01*
X191715341Y-97622340D01*
X191741186Y-97563463D01*
X191741187Y-97563461D01*
X191743443Y-97558321D01*
X191778601Y-97411876D01*
X191794614Y-97345178D01*
X191794614Y-97345177D01*
X191795924Y-97339721D01*
X191800897Y-97253472D01*
X191808542Y-97120888D01*
X191808542Y-97120885D01*
X191808865Y-97115281D01*
X191781857Y-96892098D01*
X191779023Y-96882885D01*
X193178100Y-96882885D01*
X193182575Y-96898124D01*
X193183965Y-96899329D01*
X193191648Y-96901000D01*
X194164885Y-96901000D01*
X194180124Y-96896525D01*
X194181329Y-96895135D01*
X194183000Y-96887452D01*
X194183000Y-96882885D01*
X194691000Y-96882885D01*
X194695475Y-96898124D01*
X194696865Y-96899329D01*
X194704548Y-96901000D01*
X195677785Y-96901000D01*
X195693024Y-96896525D01*
X195694229Y-96895135D01*
X195695900Y-96887452D01*
X195695900Y-96492793D01*
X195695651Y-96487198D01*
X195681510Y-96328763D01*
X195679528Y-96317748D01*
X195623193Y-96111820D01*
X195619299Y-96101347D01*
X195527382Y-95908640D01*
X195521696Y-95899025D01*
X195397109Y-95725643D01*
X195389801Y-95717177D01*
X195236486Y-95568606D01*
X195227789Y-95561563D01*
X195050591Y-95442491D01*
X195040791Y-95437103D01*
X194845303Y-95351289D01*
X194834704Y-95347722D01*
X194708616Y-95317451D01*
X194694530Y-95318156D01*
X194691000Y-95327035D01*
X194691000Y-96882885D01*
X194183000Y-96882885D01*
X194183000Y-95327683D01*
X194178895Y-95313703D01*
X194169222Y-95312201D01*
X194168840Y-95312283D01*
X193964776Y-95375062D01*
X193954430Y-95379283D01*
X193764704Y-95477208D01*
X193755273Y-95483193D01*
X193585882Y-95613172D01*
X193577665Y-95620728D01*
X193433970Y-95778647D01*
X193427217Y-95787543D01*
X193313758Y-95968411D01*
X193308687Y-95978362D01*
X193229051Y-96176465D01*
X193225822Y-96187160D01*
X193182326Y-96397197D01*
X193181123Y-96406334D01*
X193178205Y-96456938D01*
X193178100Y-96460585D01*
X193178100Y-96882885D01*
X191779023Y-96882885D01*
X191715753Y-96677224D01*
X191688166Y-96623774D01*
X191615214Y-96482433D01*
X191615213Y-96482432D01*
X191612643Y-96477452D01*
X191475786Y-96299097D01*
X191471641Y-96295326D01*
X191471638Y-96295322D01*
X191313662Y-96151575D01*
X191309509Y-96147796D01*
X191119065Y-96028331D01*
X190910477Y-95944479D01*
X190904986Y-95943342D01*
X190904983Y-95943341D01*
X190753526Y-95911976D01*
X190690336Y-95898890D01*
X190685725Y-95898624D01*
X190685724Y-95898624D01*
X190635099Y-95895705D01*
X190635095Y-95895705D01*
X190633276Y-95895600D01*
X189271965Y-95895600D01*
X189269179Y-95895849D01*
X189269171Y-95895849D01*
X189187195Y-95903165D01*
X189105077Y-95910494D01*
X189099661Y-95911976D01*
X189099659Y-95911976D01*
X189023701Y-95932756D01*
X188888233Y-95969816D01*
X188883175Y-95972228D01*
X188883171Y-95972230D01*
X188786777Y-96018208D01*
X188685321Y-96066600D01*
X188502755Y-96197787D01*
X188346306Y-96359231D01*
X188325722Y-96389863D01*
X188318725Y-96400276D01*
X188264129Y-96445661D01*
X188214143Y-96456000D01*
X186210589Y-96456000D01*
X186202019Y-96455708D01*
X186152724Y-96452347D01*
X186152720Y-96452347D01*
X186145148Y-96451831D01*
X186137671Y-96453136D01*
X186137670Y-96453136D01*
X186115886Y-96456938D01*
X186083085Y-96462663D01*
X186076568Y-96463624D01*
X186062461Y-96465331D01*
X186021582Y-96470278D01*
X186021579Y-96470279D01*
X186014040Y-96471191D01*
X186006931Y-96473877D01*
X186003488Y-96474723D01*
X185989363Y-96478586D01*
X185985958Y-96479614D01*
X185978482Y-96480919D01*
X185920810Y-96506235D01*
X185914715Y-96508723D01*
X185862880Y-96528310D01*
X185862878Y-96528311D01*
X185855778Y-96530994D01*
X185849526Y-96535291D01*
X185846383Y-96536934D01*
X185833635Y-96544029D01*
X185830523Y-96545870D01*
X185823567Y-96548923D01*
X185817539Y-96553549D01*
X185817538Y-96553549D01*
X185773602Y-96587262D01*
X185768275Y-96591133D01*
X185716348Y-96626821D01*
X185711296Y-96632491D01*
X185711295Y-96632492D01*
X185675490Y-96672679D01*
X185670509Y-96677955D01*
X184513038Y-97835427D01*
X183389370Y-98959095D01*
X183327058Y-98993120D01*
X183300275Y-98996000D01*
X170648726Y-98996000D01*
X170580605Y-98975998D01*
X170559631Y-98959095D01*
X169126917Y-97526381D01*
X169092891Y-97464069D01*
X169094306Y-97404674D01*
X169098306Y-97389745D01*
X169118844Y-97155000D01*
X169116294Y-97125859D01*
X171099132Y-97125859D01*
X171112457Y-97329151D01*
X171162605Y-97526610D01*
X171247898Y-97711624D01*
X171365479Y-97877997D01*
X171387308Y-97899262D01*
X171505786Y-98014678D01*
X171511410Y-98020157D01*
X171516206Y-98023362D01*
X171516209Y-98023364D01*
X171593446Y-98074972D01*
X171680803Y-98133342D01*
X171686106Y-98135620D01*
X171686109Y-98135622D01*
X171856093Y-98208653D01*
X171867987Y-98213763D01*
X171940817Y-98230243D01*
X172061055Y-98257450D01*
X172061060Y-98257451D01*
X172066692Y-98258725D01*
X172072463Y-98258952D01*
X172072465Y-98258952D01*
X172135470Y-98261427D01*
X172270263Y-98266723D01*
X172471883Y-98237490D01*
X172477347Y-98235635D01*
X172477352Y-98235634D01*
X172659327Y-98173862D01*
X172659332Y-98173860D01*
X172664799Y-98172004D01*
X172842551Y-98072458D01*
X172999186Y-97942186D01*
X173034746Y-97899430D01*
X173093684Y-97859847D01*
X173131620Y-97854000D01*
X176245718Y-97854000D01*
X176313839Y-97874002D01*
X176334734Y-97890825D01*
X176425997Y-97981929D01*
X176432227Y-97985769D01*
X176432228Y-97985770D01*
X176500485Y-98027844D01*
X176574080Y-98073209D01*
X176739191Y-98127974D01*
X176746027Y-98128674D01*
X176746030Y-98128675D01*
X176791584Y-98133342D01*
X176841928Y-98138500D01*
X177516072Y-98138500D01*
X177519318Y-98138163D01*
X177519322Y-98138163D01*
X177613235Y-98128419D01*
X177613239Y-98128418D01*
X177620093Y-98127707D01*
X177626629Y-98125526D01*
X177626631Y-98125526D01*
X177759395Y-98081232D01*
X177785107Y-98072654D01*
X177884896Y-98010903D01*
X177926805Y-97984969D01*
X177926806Y-97984968D01*
X177933031Y-97981116D01*
X177964879Y-97949213D01*
X178027159Y-97915134D01*
X178097979Y-97920137D01*
X178143067Y-97949057D01*
X178169041Y-97974985D01*
X178175997Y-97981929D01*
X178182227Y-97985769D01*
X178182228Y-97985770D01*
X178250485Y-98027844D01*
X178324080Y-98073209D01*
X178489191Y-98127974D01*
X178496027Y-98128674D01*
X178496030Y-98128675D01*
X178541584Y-98133342D01*
X178591928Y-98138500D01*
X179266072Y-98138500D01*
X179269318Y-98138163D01*
X179269322Y-98138163D01*
X179363235Y-98128419D01*
X179363239Y-98128418D01*
X179370093Y-98127707D01*
X179376629Y-98125526D01*
X179376631Y-98125526D01*
X179509395Y-98081232D01*
X179535107Y-98072654D01*
X179683031Y-97981116D01*
X179764742Y-97899262D01*
X179827024Y-97865183D01*
X179897844Y-97870186D01*
X179927976Y-97886344D01*
X179964394Y-97912803D01*
X180010248Y-97946118D01*
X180016276Y-97948802D01*
X180016278Y-97948803D01*
X180090681Y-97981929D01*
X180184712Y-98023794D01*
X180278112Y-98043647D01*
X180365056Y-98062128D01*
X180365061Y-98062128D01*
X180371513Y-98063500D01*
X180562487Y-98063500D01*
X180568939Y-98062128D01*
X180568944Y-98062128D01*
X180655887Y-98043647D01*
X180749288Y-98023794D01*
X180843319Y-97981929D01*
X180917722Y-97948803D01*
X180917724Y-97948802D01*
X180923752Y-97946118D01*
X181078253Y-97833866D01*
X181206040Y-97691944D01*
X181280219Y-97563463D01*
X181298223Y-97532279D01*
X181298224Y-97532278D01*
X181301527Y-97526556D01*
X181360542Y-97344928D01*
X181361612Y-97334753D01*
X181379814Y-97161565D01*
X181380504Y-97155000D01*
X181360542Y-96965072D01*
X181301527Y-96783444D01*
X181206040Y-96618056D01*
X181143793Y-96548923D01*
X181082675Y-96481045D01*
X181082674Y-96481044D01*
X181078253Y-96476134D01*
X180923752Y-96363882D01*
X180917724Y-96361198D01*
X180917722Y-96361197D01*
X180755319Y-96288891D01*
X180755318Y-96288891D01*
X180749288Y-96286206D01*
X180655888Y-96266353D01*
X180568944Y-96247872D01*
X180568939Y-96247872D01*
X180562487Y-96246500D01*
X180371513Y-96246500D01*
X180365061Y-96247872D01*
X180365056Y-96247872D01*
X180278112Y-96266353D01*
X180184712Y-96286206D01*
X180178682Y-96288891D01*
X180178681Y-96288891D01*
X180016278Y-96361197D01*
X180016276Y-96361198D01*
X180010248Y-96363882D01*
X179945585Y-96410863D01*
X179928018Y-96423626D01*
X179861151Y-96447484D01*
X179791999Y-96431404D01*
X179764942Y-96410866D01*
X179682003Y-96328071D01*
X179665256Y-96317748D01*
X179540150Y-96240631D01*
X179540148Y-96240630D01*
X179533920Y-96236791D01*
X179368809Y-96182026D01*
X179361973Y-96181326D01*
X179361970Y-96181325D01*
X179310474Y-96176049D01*
X179266072Y-96171500D01*
X178591928Y-96171500D01*
X178588682Y-96171837D01*
X178588678Y-96171837D01*
X178494765Y-96181581D01*
X178494761Y-96181582D01*
X178487907Y-96182293D01*
X178481371Y-96184474D01*
X178481369Y-96184474D01*
X178429380Y-96201819D01*
X178322893Y-96237346D01*
X178295394Y-96254363D01*
X178182490Y-96324230D01*
X178174969Y-96328884D01*
X178143121Y-96360787D01*
X178080841Y-96394866D01*
X178010021Y-96389863D01*
X177964933Y-96360943D01*
X177937184Y-96333243D01*
X177937183Y-96333242D01*
X177932003Y-96328071D01*
X177915256Y-96317748D01*
X177790150Y-96240631D01*
X177790148Y-96240630D01*
X177783920Y-96236791D01*
X177618809Y-96182026D01*
X177611973Y-96181326D01*
X177611970Y-96181325D01*
X177560474Y-96176049D01*
X177516072Y-96171500D01*
X176841928Y-96171500D01*
X176838682Y-96171837D01*
X176838678Y-96171837D01*
X176744765Y-96181581D01*
X176744761Y-96181582D01*
X176737907Y-96182293D01*
X176731371Y-96184474D01*
X176731369Y-96184474D01*
X176679380Y-96201819D01*
X176572893Y-96237346D01*
X176424969Y-96328884D01*
X176419796Y-96334066D01*
X176334992Y-96419018D01*
X176272710Y-96453097D01*
X176245819Y-96456000D01*
X173136029Y-96456000D01*
X173067908Y-96435998D01*
X173042565Y-96414457D01*
X173039305Y-96410091D01*
X172956172Y-96333243D01*
X172893943Y-96275719D01*
X172893940Y-96275717D01*
X172889703Y-96271800D01*
X172830565Y-96234487D01*
X172722288Y-96166169D01*
X172722283Y-96166167D01*
X172717404Y-96163088D01*
X172528180Y-96087595D01*
X172328366Y-96047849D01*
X172322592Y-96047773D01*
X172322588Y-96047773D01*
X172219452Y-96046424D01*
X172124655Y-96045183D01*
X172118958Y-96046162D01*
X172118957Y-96046162D01*
X171929567Y-96078705D01*
X171923870Y-96079684D01*
X171732734Y-96150198D01*
X171727773Y-96153150D01*
X171727772Y-96153150D01*
X171579771Y-96241202D01*
X171557649Y-96254363D01*
X171404478Y-96388690D01*
X171400911Y-96393215D01*
X171400906Y-96393220D01*
X171333222Y-96479078D01*
X171278351Y-96548681D01*
X171275662Y-96553792D01*
X171275660Y-96553795D01*
X171244433Y-96613148D01*
X171183492Y-96728978D01*
X171123078Y-96923543D01*
X171099132Y-97125859D01*
X169116294Y-97125859D01*
X169098306Y-96920255D01*
X169092376Y-96898124D01*
X169038741Y-96697952D01*
X169038740Y-96697950D01*
X169037318Y-96692642D01*
X169030469Y-96677955D01*
X168940054Y-96484059D01*
X168940052Y-96484056D01*
X168937731Y-96479078D01*
X168802573Y-96286051D01*
X168635949Y-96119427D01*
X168448555Y-95988213D01*
X168404226Y-95932756D01*
X168396917Y-95862137D01*
X168428947Y-95798776D01*
X168448555Y-95781787D01*
X168631437Y-95653732D01*
X168635949Y-95650573D01*
X168802573Y-95483949D01*
X168937731Y-95290922D01*
X169037318Y-95077358D01*
X169098306Y-94849745D01*
X169118844Y-94615000D01*
X169098306Y-94380255D01*
X169037318Y-94152642D01*
X168937731Y-93939078D01*
X168802573Y-93746051D01*
X168635949Y-93579427D01*
X168442922Y-93444269D01*
X168437944Y-93441948D01*
X168437941Y-93441946D01*
X168234340Y-93347005D01*
X168234338Y-93347004D01*
X168229358Y-93344682D01*
X168224050Y-93343260D01*
X168224048Y-93343259D01*
X168007060Y-93285118D01*
X168007059Y-93285118D01*
X168001745Y-93283694D01*
X167767000Y-93263156D01*
X167532255Y-93283694D01*
X167526941Y-93285118D01*
X167526940Y-93285118D01*
X167309952Y-93343259D01*
X167309950Y-93343260D01*
X167304642Y-93344682D01*
X167299662Y-93347004D01*
X167299660Y-93347005D01*
X167096059Y-93441946D01*
X167096056Y-93441948D01*
X167091078Y-93444269D01*
X166898051Y-93579427D01*
X166731427Y-93746051D01*
X166596269Y-93939078D01*
X166496682Y-94152642D01*
X166435694Y-94380255D01*
X166415156Y-94615000D01*
X166435694Y-94849745D01*
X166496682Y-95077358D01*
X166596269Y-95290922D01*
X166731427Y-95483949D01*
X166898051Y-95650573D01*
X166902563Y-95653732D01*
X167085445Y-95781787D01*
X167129774Y-95837244D01*
X167137083Y-95907863D01*
X167105053Y-95971224D01*
X167085445Y-95988213D01*
X166898051Y-96119427D01*
X166731427Y-96286051D01*
X166674212Y-96367763D01*
X166650050Y-96402270D01*
X166594593Y-96446599D01*
X166546837Y-96456000D01*
X150572163Y-96456000D01*
X150504042Y-96435998D01*
X150468950Y-96402270D01*
X150444788Y-96367763D01*
X150387573Y-96286051D01*
X150220949Y-96119427D01*
X150033555Y-95988213D01*
X149989226Y-95932756D01*
X149981917Y-95862137D01*
X150013947Y-95798776D01*
X150033555Y-95781787D01*
X150216437Y-95653732D01*
X150220949Y-95650573D01*
X150387573Y-95483949D01*
X150522731Y-95290922D01*
X150622318Y-95077358D01*
X150683306Y-94849745D01*
X150703844Y-94615000D01*
X150683306Y-94380255D01*
X150622318Y-94152642D01*
X150522731Y-93939078D01*
X150387573Y-93746051D01*
X150220949Y-93579427D01*
X150027922Y-93444269D01*
X150022944Y-93441948D01*
X150022941Y-93441946D01*
X149819340Y-93347005D01*
X149819338Y-93347004D01*
X149814358Y-93344682D01*
X149809050Y-93343260D01*
X149809048Y-93343259D01*
X149592060Y-93285118D01*
X149592059Y-93285118D01*
X149586745Y-93283694D01*
X149352000Y-93263156D01*
X149117255Y-93283694D01*
X149111941Y-93285118D01*
X149111940Y-93285118D01*
X148894952Y-93343259D01*
X148894950Y-93343260D01*
X148889642Y-93344682D01*
X148884662Y-93347004D01*
X148884660Y-93347005D01*
X148681059Y-93441946D01*
X148681056Y-93441948D01*
X148676078Y-93444269D01*
X148483051Y-93579427D01*
X148316427Y-93746051D01*
X148181269Y-93939078D01*
X148081682Y-94152642D01*
X148020694Y-94380255D01*
X148000156Y-94615000D01*
X148020694Y-94849745D01*
X148022118Y-94855059D01*
X148022118Y-94855060D01*
X148024695Y-94864678D01*
X148023003Y-94935655D01*
X147992083Y-94986381D01*
X147607955Y-95370510D01*
X147601688Y-95376364D01*
X147558726Y-95413842D01*
X147554359Y-95420056D01*
X147522506Y-95465378D01*
X147518573Y-95470674D01*
X147484394Y-95514263D01*
X147484392Y-95514266D01*
X147479708Y-95520240D01*
X147476582Y-95527164D01*
X147474744Y-95530199D01*
X147467500Y-95542898D01*
X147465812Y-95546046D01*
X147461444Y-95552261D01*
X147458684Y-95559340D01*
X147438567Y-95610939D01*
X147436022Y-95616995D01*
X147410087Y-95674435D01*
X147408702Y-95681908D01*
X147407631Y-95685326D01*
X147403646Y-95699315D01*
X147402749Y-95702807D01*
X147399988Y-95709889D01*
X147398996Y-95717422D01*
X147398996Y-95717423D01*
X147391767Y-95772330D01*
X147390735Y-95778843D01*
X147389123Y-95787543D01*
X147379255Y-95840787D01*
X147379692Y-95848367D01*
X147379692Y-95848368D01*
X147382791Y-95902112D01*
X147383000Y-95909365D01*
X147383000Y-96330000D01*
X147362998Y-96398121D01*
X147309342Y-96444614D01*
X147257000Y-96456000D01*
X131522163Y-96456000D01*
X131454042Y-96435998D01*
X131418950Y-96402270D01*
X131394788Y-96367763D01*
X131337573Y-96286051D01*
X131170949Y-96119427D01*
X130983555Y-95988213D01*
X130939226Y-95932756D01*
X130931917Y-95862137D01*
X130963947Y-95798776D01*
X130983555Y-95781787D01*
X131166437Y-95653732D01*
X131170949Y-95650573D01*
X131337573Y-95483949D01*
X131472731Y-95290922D01*
X131572318Y-95077358D01*
X131633306Y-94849745D01*
X131653844Y-94615000D01*
X131633306Y-94380255D01*
X131572318Y-94152642D01*
X131472731Y-93939078D01*
X131337573Y-93746051D01*
X131170949Y-93579427D01*
X130977922Y-93444269D01*
X130972944Y-93441948D01*
X130972941Y-93441946D01*
X130769340Y-93347005D01*
X130769338Y-93347004D01*
X130764358Y-93344682D01*
X130759050Y-93343260D01*
X130759048Y-93343259D01*
X130542060Y-93285118D01*
X130542059Y-93285118D01*
X130536745Y-93283694D01*
X130302000Y-93263156D01*
X130067255Y-93283694D01*
X130061941Y-93285118D01*
X130061940Y-93285118D01*
X129844952Y-93343259D01*
X129844950Y-93343260D01*
X129839642Y-93344682D01*
X129834662Y-93347004D01*
X129834660Y-93347005D01*
X129631059Y-93441946D01*
X129631056Y-93441948D01*
X129626078Y-93444269D01*
X129433051Y-93579427D01*
X129266427Y-93746051D01*
X129131269Y-93939078D01*
X129031682Y-94152642D01*
X128970694Y-94380255D01*
X128950156Y-94615000D01*
X128970694Y-94849745D01*
X129031682Y-95077358D01*
X129131269Y-95290922D01*
X129266427Y-95483949D01*
X129433051Y-95650573D01*
X129437563Y-95653732D01*
X129620445Y-95781787D01*
X129664774Y-95837244D01*
X129672083Y-95907863D01*
X129640053Y-95971224D01*
X129620445Y-95988213D01*
X129433051Y-96119427D01*
X129266427Y-96286051D01*
X129131269Y-96479078D01*
X129128948Y-96484056D01*
X129128946Y-96484059D01*
X129038531Y-96677955D01*
X129031682Y-96692642D01*
X129030260Y-96697950D01*
X129030259Y-96697952D01*
X128976624Y-96898124D01*
X128970694Y-96920255D01*
X128950156Y-97155000D01*
X128970694Y-97389745D01*
X129031682Y-97617358D01*
X129034004Y-97622338D01*
X129034005Y-97622340D01*
X129127483Y-97822802D01*
X129131269Y-97830922D01*
X129266427Y-98023949D01*
X129433051Y-98190573D01*
X129508496Y-98243400D01*
X129620445Y-98321787D01*
X129664774Y-98377244D01*
X129672083Y-98447863D01*
X129640053Y-98511224D01*
X129620445Y-98528213D01*
X129433051Y-98659427D01*
X129266427Y-98826051D01*
X129131269Y-99019078D01*
X129031682Y-99232642D01*
X128970694Y-99460255D01*
X128950156Y-99695000D01*
X103505000Y-99695000D01*
X103505000Y-91349957D01*
X114791873Y-91349957D01*
X114797154Y-91357011D01*
X114966836Y-91456166D01*
X114976119Y-91460613D01*
X115179302Y-91538201D01*
X115189200Y-91541077D01*
X115402328Y-91584438D01*
X115412556Y-91585657D01*
X115629902Y-91593628D01*
X115640188Y-91593161D01*
X115855921Y-91565525D01*
X115865999Y-91563383D01*
X116074316Y-91500884D01*
X116083914Y-91497122D01*
X116279229Y-91401439D01*
X116288074Y-91396166D01*
X116340964Y-91358440D01*
X116349365Y-91347740D01*
X116342377Y-91334587D01*
X115584812Y-90577022D01*
X115570868Y-90569408D01*
X115569035Y-90569539D01*
X115562420Y-90573790D01*
X114798633Y-91337577D01*
X114791873Y-91349957D01*
X103505000Y-91349957D01*
X103505000Y-86303965D01*
X104064057Y-86303965D01*
X104077741Y-86695827D01*
X104129599Y-87084484D01*
X104130299Y-87087468D01*
X104130300Y-87087474D01*
X104200588Y-87387145D01*
X104219136Y-87466225D01*
X104345496Y-87837407D01*
X104507475Y-88194487D01*
X104703525Y-88534056D01*
X104705314Y-88536554D01*
X104705316Y-88536558D01*
X104919471Y-88835686D01*
X104931776Y-88852874D01*
X104933802Y-88855189D01*
X104933805Y-88855192D01*
X105188017Y-89145575D01*
X105190049Y-89147896D01*
X105475878Y-89416308D01*
X105786536Y-89655546D01*
X105789139Y-89657173D01*
X105789144Y-89657176D01*
X105890092Y-89720255D01*
X106119056Y-89863328D01*
X106470266Y-90037670D01*
X106836812Y-90176907D01*
X107215195Y-90279712D01*
X107513419Y-90330153D01*
X107598783Y-90344591D01*
X107598786Y-90344591D01*
X107601805Y-90345102D01*
X107756444Y-90355916D01*
X107989885Y-90372240D01*
X107989893Y-90372240D01*
X107992951Y-90372454D01*
X108245037Y-90365413D01*
X108381825Y-90361592D01*
X108381828Y-90361592D01*
X108384899Y-90361506D01*
X108387952Y-90361120D01*
X108387956Y-90361120D01*
X108529576Y-90343229D01*
X108773908Y-90312362D01*
X108776912Y-90311680D01*
X108776915Y-90311679D01*
X109153269Y-90226174D01*
X109153275Y-90226172D01*
X109156265Y-90225493D01*
X109208956Y-90207965D01*
X109304479Y-90176189D01*
X114182464Y-90176189D01*
X114194985Y-90393326D01*
X114196418Y-90403528D01*
X114244231Y-90615692D01*
X114247314Y-90625532D01*
X114329140Y-90827045D01*
X114333783Y-90836236D01*
X114418461Y-90974419D01*
X114428917Y-90983879D01*
X114437695Y-90980095D01*
X115199978Y-90217812D01*
X115206356Y-90206132D01*
X115936408Y-90206132D01*
X115936539Y-90207965D01*
X115940790Y-90214580D01*
X116702179Y-90975969D01*
X116714190Y-90982528D01*
X116725929Y-90973560D01*
X116760655Y-90925234D01*
X116765969Y-90916389D01*
X116862326Y-90721426D01*
X116866124Y-90711833D01*
X116929348Y-90503738D01*
X116931525Y-90493668D01*
X116960151Y-90276235D01*
X116960670Y-90269560D01*
X116962166Y-90208364D01*
X116961972Y-90201646D01*
X116944004Y-89983097D01*
X116942319Y-89972917D01*
X116889336Y-89761983D01*
X116886016Y-89752232D01*
X116799290Y-89552774D01*
X116794424Y-89543699D01*
X116724951Y-89436312D01*
X116714264Y-89427108D01*
X116704699Y-89431511D01*
X115944022Y-90192188D01*
X115936408Y-90206132D01*
X115206356Y-90206132D01*
X115207592Y-90203868D01*
X115207461Y-90202035D01*
X115203210Y-90195420D01*
X114442059Y-89434269D01*
X114430523Y-89427969D01*
X114418240Y-89437592D01*
X114366098Y-89514029D01*
X114361010Y-89522985D01*
X114269441Y-89720255D01*
X114265878Y-89729942D01*
X114207759Y-89939511D01*
X114205828Y-89949631D01*
X114182716Y-90165900D01*
X114182464Y-90176189D01*
X109304479Y-90176189D01*
X109525396Y-90102700D01*
X109525402Y-90102698D01*
X109528320Y-90101727D01*
X109669735Y-90038765D01*
X109883722Y-89943492D01*
X109883728Y-89943489D01*
X109886522Y-89942245D01*
X109891335Y-89939511D01*
X110224784Y-89750086D01*
X110224790Y-89750083D01*
X110227452Y-89748570D01*
X110505010Y-89552774D01*
X110545342Y-89524323D01*
X110545346Y-89524320D01*
X110547855Y-89522550D01*
X110773341Y-89327917D01*
X110842347Y-89268353D01*
X110842351Y-89268349D01*
X110844674Y-89266344D01*
X110856561Y-89253862D01*
X111039473Y-89061784D01*
X114793580Y-89061784D01*
X114800325Y-89074115D01*
X115559188Y-89832978D01*
X115573132Y-89840592D01*
X115574965Y-89840461D01*
X115581580Y-89836210D01*
X116344969Y-89072821D01*
X116351990Y-89059964D01*
X116344429Y-89049587D01*
X116336820Y-89044532D01*
X116146429Y-88939430D01*
X116137017Y-88935200D01*
X115932008Y-88862602D01*
X115922037Y-88859968D01*
X115707923Y-88821828D01*
X115697671Y-88820859D01*
X115480191Y-88818202D01*
X115469907Y-88818922D01*
X115254922Y-88851818D01*
X115244903Y-88854205D01*
X115038170Y-88921776D01*
X115028668Y-88925771D01*
X114835759Y-89026193D01*
X114827034Y-89031687D01*
X114802033Y-89050459D01*
X114793580Y-89061784D01*
X111039473Y-89061784D01*
X111112957Y-88984618D01*
X111115074Y-88982395D01*
X111159314Y-88925771D01*
X111354565Y-88675860D01*
X111354567Y-88675857D01*
X111356475Y-88673415D01*
X111566574Y-88342354D01*
X111592428Y-88291173D01*
X111613150Y-88250150D01*
X176903482Y-88250150D01*
X176903998Y-88256294D01*
X176911225Y-88342354D01*
X176920852Y-88457004D01*
X176978069Y-88656545D01*
X176980887Y-88662027D01*
X176980888Y-88662031D01*
X177062515Y-88820859D01*
X177072955Y-88841173D01*
X177201894Y-89003854D01*
X177206581Y-89007843D01*
X177206584Y-89007846D01*
X177355284Y-89134399D01*
X177359976Y-89138392D01*
X177541180Y-89239664D01*
X177738603Y-89303810D01*
X177944725Y-89328389D01*
X177950860Y-89327917D01*
X177950862Y-89327917D01*
X178145555Y-89312936D01*
X178145560Y-89312935D01*
X178151696Y-89312463D01*
X178157626Y-89310807D01*
X178157628Y-89310807D01*
X178251664Y-89284551D01*
X178351632Y-89256640D01*
X178536917Y-89163046D01*
X178700495Y-89035245D01*
X178836133Y-88878106D01*
X178938667Y-88697614D01*
X179004190Y-88500644D01*
X179030207Y-88294698D01*
X179030622Y-88265000D01*
X179029166Y-88250150D01*
X181903482Y-88250150D01*
X181903998Y-88256294D01*
X181911225Y-88342354D01*
X181920852Y-88457004D01*
X181978069Y-88656545D01*
X181980887Y-88662027D01*
X181980888Y-88662031D01*
X182062515Y-88820859D01*
X182072955Y-88841173D01*
X182201894Y-89003854D01*
X182206581Y-89007843D01*
X182206584Y-89007846D01*
X182355284Y-89134399D01*
X182359976Y-89138392D01*
X182541180Y-89239664D01*
X182738603Y-89303810D01*
X182944725Y-89328389D01*
X182950860Y-89327917D01*
X182950862Y-89327917D01*
X183145555Y-89312936D01*
X183145560Y-89312935D01*
X183151696Y-89312463D01*
X183157626Y-89310807D01*
X183157628Y-89310807D01*
X183251664Y-89284551D01*
X183351632Y-89256640D01*
X183536917Y-89163046D01*
X183700495Y-89035245D01*
X183836133Y-88878106D01*
X183938667Y-88697614D01*
X184004190Y-88500644D01*
X184030207Y-88294698D01*
X184030622Y-88265000D01*
X184010365Y-88058408D01*
X183950368Y-87859685D01*
X183940219Y-87840598D01*
X183855809Y-87681847D01*
X183855808Y-87681845D01*
X183852913Y-87676401D01*
X183804083Y-87616529D01*
X183725610Y-87520311D01*
X183725607Y-87520308D01*
X183721715Y-87515536D01*
X183714770Y-87509790D01*
X183566518Y-87387145D01*
X183566519Y-87387145D01*
X183561770Y-87383217D01*
X183556353Y-87380288D01*
X183556350Y-87380286D01*
X183384590Y-87287416D01*
X183384585Y-87287414D01*
X183379170Y-87284486D01*
X183180871Y-87223102D01*
X183174746Y-87222458D01*
X183174745Y-87222458D01*
X182980554Y-87202048D01*
X182980552Y-87202048D01*
X182974425Y-87201404D01*
X182888515Y-87209223D01*
X182773836Y-87219659D01*
X182773833Y-87219660D01*
X182767697Y-87220218D01*
X182761791Y-87221956D01*
X182761787Y-87221957D01*
X182659323Y-87252114D01*
X182568560Y-87278827D01*
X182384600Y-87374999D01*
X182222823Y-87505071D01*
X182218865Y-87509788D01*
X182218863Y-87509790D01*
X182214042Y-87515536D01*
X182089391Y-87664089D01*
X182086427Y-87669481D01*
X182086424Y-87669485D01*
X182082622Y-87676401D01*
X181989387Y-87845995D01*
X181926621Y-88043861D01*
X181925935Y-88049978D01*
X181925934Y-88049982D01*
X181909425Y-88197163D01*
X181903482Y-88250150D01*
X179029166Y-88250150D01*
X179010365Y-88058408D01*
X178950368Y-87859685D01*
X178940219Y-87840598D01*
X178855809Y-87681847D01*
X178855808Y-87681845D01*
X178852913Y-87676401D01*
X178804083Y-87616529D01*
X178725610Y-87520311D01*
X178725607Y-87520308D01*
X178721715Y-87515536D01*
X178714770Y-87509790D01*
X178566518Y-87387145D01*
X178566519Y-87387145D01*
X178561770Y-87383217D01*
X178556353Y-87380288D01*
X178556350Y-87380286D01*
X178384590Y-87287416D01*
X178384585Y-87287414D01*
X178379170Y-87284486D01*
X178180871Y-87223102D01*
X178174746Y-87222458D01*
X178174745Y-87222458D01*
X177980554Y-87202048D01*
X177980552Y-87202048D01*
X177974425Y-87201404D01*
X177888515Y-87209223D01*
X177773836Y-87219659D01*
X177773833Y-87219660D01*
X177767697Y-87220218D01*
X177761791Y-87221956D01*
X177761787Y-87221957D01*
X177659323Y-87252114D01*
X177568560Y-87278827D01*
X177384600Y-87374999D01*
X177222823Y-87505071D01*
X177218865Y-87509788D01*
X177218863Y-87509790D01*
X177214042Y-87515536D01*
X177089391Y-87664089D01*
X177086427Y-87669481D01*
X177086424Y-87669485D01*
X177082622Y-87676401D01*
X176989387Y-87845995D01*
X176926621Y-88043861D01*
X176925935Y-88049978D01*
X176925934Y-88049982D01*
X176909425Y-88197163D01*
X176903482Y-88250150D01*
X111613150Y-88250150D01*
X111710005Y-88058408D01*
X111743363Y-87992370D01*
X111744473Y-87989509D01*
X111884041Y-87629681D01*
X111884044Y-87629672D01*
X111885156Y-87626805D01*
X111981517Y-87281681D01*
X111989772Y-87252114D01*
X111989773Y-87252112D01*
X111990600Y-87249148D01*
X112058688Y-86863004D01*
X112088769Y-86472059D01*
X112090334Y-86360000D01*
X112087594Y-86303965D01*
X187884057Y-86303965D01*
X187897741Y-86695827D01*
X187949599Y-87084484D01*
X187950299Y-87087468D01*
X187950300Y-87087474D01*
X188020588Y-87387145D01*
X188039136Y-87466225D01*
X188165496Y-87837407D01*
X188327475Y-88194487D01*
X188523525Y-88534056D01*
X188525314Y-88536554D01*
X188525316Y-88536558D01*
X188739471Y-88835686D01*
X188751776Y-88852874D01*
X188753802Y-88855189D01*
X188753805Y-88855192D01*
X189008017Y-89145575D01*
X189010049Y-89147896D01*
X189295878Y-89416308D01*
X189606536Y-89655546D01*
X189609139Y-89657173D01*
X189609144Y-89657176D01*
X189710092Y-89720255D01*
X189939056Y-89863328D01*
X190290266Y-90037670D01*
X190656812Y-90176907D01*
X191035195Y-90279712D01*
X191333419Y-90330153D01*
X191418783Y-90344591D01*
X191418786Y-90344591D01*
X191421805Y-90345102D01*
X191576444Y-90355916D01*
X191809885Y-90372240D01*
X191809893Y-90372240D01*
X191812951Y-90372454D01*
X192065037Y-90365413D01*
X192201825Y-90361592D01*
X192201828Y-90361592D01*
X192204899Y-90361506D01*
X192207952Y-90361120D01*
X192207956Y-90361120D01*
X192349576Y-90343229D01*
X192593908Y-90312362D01*
X192596912Y-90311680D01*
X192596915Y-90311679D01*
X192973269Y-90226174D01*
X192973275Y-90226172D01*
X192976265Y-90225493D01*
X193028956Y-90207965D01*
X193345396Y-90102700D01*
X193345402Y-90102698D01*
X193348320Y-90101727D01*
X193489735Y-90038765D01*
X193703722Y-89943492D01*
X193703728Y-89943489D01*
X193706522Y-89942245D01*
X193711335Y-89939511D01*
X194044784Y-89750086D01*
X194044790Y-89750083D01*
X194047452Y-89748570D01*
X194325010Y-89552774D01*
X194365342Y-89524323D01*
X194365346Y-89524320D01*
X194367855Y-89522550D01*
X194593341Y-89327917D01*
X194662347Y-89268353D01*
X194662351Y-89268349D01*
X194664674Y-89266344D01*
X194676561Y-89253862D01*
X194932957Y-88984618D01*
X194935074Y-88982395D01*
X194979314Y-88925771D01*
X195174565Y-88675860D01*
X195174567Y-88675857D01*
X195176475Y-88673415D01*
X195386574Y-88342354D01*
X195412428Y-88291173D01*
X195530005Y-88058408D01*
X195563363Y-87992370D01*
X195564473Y-87989509D01*
X195704041Y-87629681D01*
X195704044Y-87629672D01*
X195705156Y-87626805D01*
X195801517Y-87281681D01*
X195809772Y-87252114D01*
X195809773Y-87252112D01*
X195810600Y-87249148D01*
X195878688Y-86863004D01*
X195908769Y-86472059D01*
X195910334Y-86360000D01*
X195907594Y-86303965D01*
X195891330Y-85971440D01*
X195891180Y-85968367D01*
X195833901Y-85580473D01*
X195739043Y-85200019D01*
X195607512Y-84830637D01*
X195440564Y-84475854D01*
X195438997Y-84473225D01*
X195438992Y-84473216D01*
X195241361Y-84141689D01*
X195239791Y-84139055D01*
X195237977Y-84136595D01*
X195237972Y-84136587D01*
X195008933Y-83825926D01*
X195008931Y-83825923D01*
X195007111Y-83823455D01*
X194744744Y-83532068D01*
X194455195Y-83267673D01*
X194141228Y-83032795D01*
X194093015Y-83003596D01*
X193808467Y-82831267D01*
X193808458Y-82831262D01*
X193805839Y-82829676D01*
X193452229Y-82660255D01*
X193449339Y-82659203D01*
X193449334Y-82659201D01*
X193086674Y-82527204D01*
X193086671Y-82527203D01*
X193083775Y-82526149D01*
X192807563Y-82455229D01*
X192706977Y-82429403D01*
X192706974Y-82429402D01*
X192703993Y-82428637D01*
X192316508Y-82368651D01*
X191925018Y-82346764D01*
X191921939Y-82346893D01*
X191921936Y-82346893D01*
X191666188Y-82357612D01*
X191533261Y-82363183D01*
X191530217Y-82363611D01*
X191530215Y-82363611D01*
X191319778Y-82393186D01*
X191144976Y-82417753D01*
X190763869Y-82509953D01*
X190393579Y-82638902D01*
X190037638Y-82803369D01*
X189699446Y-83001785D01*
X189539444Y-83118033D01*
X189384711Y-83230453D01*
X189384705Y-83230458D01*
X189382230Y-83232256D01*
X189379944Y-83234285D01*
X189379941Y-83234288D01*
X189300123Y-83305154D01*
X189089017Y-83492583D01*
X189086938Y-83494828D01*
X189086931Y-83494835D01*
X188824694Y-83778026D01*
X188822608Y-83780279D01*
X188585544Y-84092599D01*
X188380089Y-84426562D01*
X188208203Y-84778980D01*
X188071527Y-85146489D01*
X187971367Y-85525581D01*
X187908677Y-85912638D01*
X187908483Y-85915718D01*
X187908483Y-85915720D01*
X187904978Y-85971440D01*
X187884057Y-86303965D01*
X112087594Y-86303965D01*
X112071330Y-85971440D01*
X112071180Y-85968367D01*
X112013901Y-85580473D01*
X111919043Y-85200019D01*
X111787512Y-84830637D01*
X111620564Y-84475854D01*
X111618997Y-84473225D01*
X111618992Y-84473216D01*
X111421361Y-84141689D01*
X111419791Y-84139055D01*
X111417977Y-84136595D01*
X111417972Y-84136587D01*
X111188933Y-83825926D01*
X111188931Y-83825923D01*
X111187111Y-83823455D01*
X110924744Y-83532068D01*
X110635195Y-83267673D01*
X110321228Y-83032795D01*
X110273015Y-83003596D01*
X109988467Y-82831267D01*
X109988458Y-82831262D01*
X109985839Y-82829676D01*
X109632229Y-82660255D01*
X109629339Y-82659203D01*
X109629334Y-82659201D01*
X109266674Y-82527204D01*
X109266671Y-82527203D01*
X109263775Y-82526149D01*
X108987563Y-82455229D01*
X108886977Y-82429403D01*
X108886974Y-82429402D01*
X108883993Y-82428637D01*
X108496508Y-82368651D01*
X108105018Y-82346764D01*
X108101939Y-82346893D01*
X108101936Y-82346893D01*
X107846188Y-82357612D01*
X107713261Y-82363183D01*
X107710217Y-82363611D01*
X107710215Y-82363611D01*
X107499778Y-82393186D01*
X107324976Y-82417753D01*
X106943869Y-82509953D01*
X106573579Y-82638902D01*
X106217638Y-82803369D01*
X105879446Y-83001785D01*
X105719444Y-83118033D01*
X105564711Y-83230453D01*
X105564705Y-83230458D01*
X105562230Y-83232256D01*
X105559944Y-83234285D01*
X105559941Y-83234288D01*
X105480123Y-83305154D01*
X105269017Y-83492583D01*
X105266938Y-83494828D01*
X105266931Y-83494835D01*
X105004694Y-83778026D01*
X105002608Y-83780279D01*
X104765544Y-84092599D01*
X104560089Y-84426562D01*
X104388203Y-84778980D01*
X104251527Y-85146489D01*
X104151367Y-85525581D01*
X104088677Y-85912638D01*
X104088483Y-85915718D01*
X104088483Y-85915720D01*
X104084978Y-85971440D01*
X104064057Y-86303965D01*
X103505000Y-86303965D01*
X103505000Y-81914000D01*
X103525002Y-81845879D01*
X103578658Y-81799386D01*
X103631000Y-81788000D01*
X196343000Y-81788000D01*
X196411121Y-81808002D01*
G37*
%TD.AperFunction*%
M02*
